<svg xmlns="http://www.w3.org/2000/svg" viewBox="0 0 24.07 26"><defs><style>.a,.b{fill:#fff;}.a{stroke:#768c03;stroke-linecap:round;stroke-linejoin:round;}</style></defs><path class="a" d="M25,11.73" transform="translate(-7.47 -7.72)"/><path class="b" d="M19.51,33.72a12.13,12.13,0,0,1-12-12,12.36,12.36,0,0,1,6.26-10.59,1.06,1.06,0,0,1,1.12.32,1.06,1.06,0,0,1-.32,1.12,10.3,10.3,0,0,0-5.46,9.15,10.44,10.44,0,1,0,15.41-9.15.92.92,0,0,1-.32-1.12.92.92,0,0,1,1.12-.32,12,12,0,0,1,6.26,10.59A12.12,12.12,0,0,1,19.51,33.72Z" transform="translate(-7.47 -7.72)"/><path class="b" d="M19.51,17.35a.76.76,0,0,1-.81-.8v-8a.81.81,0,0,1,1.61,0v8A.76.76,0,0,1,19.51,17.35Z" transform="translate(-7.47 -7.72)"/></svg>