<svg id="a707f70e-69bf-4e3b-ba07-5c46f2edddf9" data-name="图层 1" xmlns="http://www.w3.org/2000/svg" viewBox="0 0 411.57411 428.79468"><defs><style>.a77c485f-92ca-49e3-b677-4a99544bfed6,.b8a333c3-052d-4807-94c9-791f15179592,.bea152cb-a5da-41d0-9cd9-4018396c26ac{fill:none;stroke-width:20px;}.a77c485f-92ca-49e3-b677-4a99544bfed6{stroke:#00a0e9;}.a2e58ddc-1cfc-4273-a15e-02dccdb4a121,.a77c485f-92ca-49e3-b677-4a99544bfed6,.b8a333c3-052d-4807-94c9-791f15179592,.bea152cb-a5da-41d0-9cd9-4018396c26ac{stroke-miterlimit:10;}.bea152cb-a5da-41d0-9cd9-4018396c26ac{stroke:#094;}.e08cba65-b3ae-427b-8b53-2d3511f97519{fill:#13ae67;}.f88976f5-208e-4222-b855-eea67e9c6759{fill:#1d2088;}.b8a333c3-052d-4807-94c9-791f15179592{stroke:#f39800;}.bf40e765-cdd1-4619-b1cf-f5f07e4500fb{fill:#f8b62d;}.a2e58ddc-1cfc-4273-a15e-02dccdb4a121,.a7f78e41-5f74-4ae2-b0b3-0931cad73d42{fill:#231815;}.a2e58ddc-1cfc-4273-a15e-02dccdb4a121{stroke:#fff100;stroke-width:3px;}.a6a43d5f-a0e1-4a90-b38e-a32bc95306a2{fill:#00a0e9;}</style></defs><path class="a77c485f-92ca-49e3-b677-4a99544bfed6" d="M266.82209,238.57227l68.08585,0A21.88473,21.88473,0,0,1,356.79267,260.457V399.5464" transform="translate(-46.24229 -200.36524)"/><path class="a77c485f-92ca-49e3-b677-4a99544bfed6" d="M356.79267,496.84906V597.27519a21.88474,21.88474,0,0,1-21.88473,21.88474H78.127a21.88474,21.88474,0,0,1-21.88474-21.88474V260.457A21.88474,21.88474,0,0,1,78.127,238.57224l68.08585,0" transform="translate(-46.24229 -200.36524)"/><rect class="a77c485f-92ca-49e3-b677-4a99544bfed6" x="99.97058" y="10" width="120.60921" height="56.41399" rx="28.20697"/><polyline class="bea152cb-a5da-41d0-9cd9-4018396c26ac" points="293.718 220.58 210.556 220.58 263.566 177.783"/><line class="bea152cb-a5da-41d0-9cd9-4018396c26ac" x1="411.57411" y1="220.57957" x2="320.14454" y2="220.57957"/><path class="e08cba65-b3ae-427b-8b53-2d3511f97519" d="M374.64355,390.76416l12.80079-1.92041h2.56054l14.08008,1.92041v5.12012H374.64355ZM412.79,309.48047h7.67969l29.4414,86.40381H438.00684l-25.7295-76.67578h2.94434L389.1084,395.88428h-6.01563Zm-14.97656,52.48242H432.375l2.04785,5.88818h-38.6582Zm25.21679,28.80127,16.12891-1.92041h2.55957l15.873,1.92041v5.12012H423.03027Z" transform="translate(-46.24229 -200.36524)"/><path class="f88976f5-208e-4222-b855-eea67e9c6759" d="M71.29443,381.76465l-.478-3.82422q.95214-10.03783,11.5913-19.83691a134.25861,134.25861,0,0,1,26.8877-18.64209q16.25025-8.83887,51.624-14.81788,20.07568-3.10326,33.57959-3.10693a111.16043,111.16043,0,0,1,23.78028,2.27051,33.7043,33.7043,0,0,1,16.96924,8.9624,21.72828,21.72828,0,0,1,6.69189,15.89356q0,9.20361-7.76758,17.32763a50.583,50.583,0,0,1-19.47851,12.42774q-22.70874,8.36865-43.49805,9.32129,10.27368,6.21753,16.96924,10.87451a108.63943,108.63943,0,0,1,14.33984,12.30859q7.64649,7.65162,9.79932,13.14453a27.3502,27.3502,0,0,1,2.15088,9.79883q0,14.105-10.75537,27.00684-7.16968,8.84033-19.95606,14.10156a70.67633,70.67633,0,0,1-27.12646,5.25781q-30.5962,0-33.46045-21.50976a1.936,1.936,0,0,1-.47754-1.43457q-9.08643,14.57519-15.05713,14.5791a27.87177,27.87177,0,0,1-5.37744-.83594q-3.70826-.84082-3.82422-1.793-.123-.958-.11963-4.0625,0-3.10986,4.541-14.9375,4.53735-11.83153,10.27734-23.30273,11.231-21.50977,22.227-41.58594,1.90942-4.30224,1.91162-6.45313a18.28465,18.28465,0,0,0-.23877-3.3457q.95216-6.68847,11.59131-17.5664,10.63184-10.87281,19.23975-10.87452a20.06461,20.06461,0,0,1,7.64795,2.15088q4.77831,2.15112,5.73584,5.9751a6.77768,6.77768,0,0,1,.11962,2.03125c-.082.23926-.519.20166-1.31445-.11963a6.83924,6.83924,0,0,0-1.43408-.478q-7.65162,0-18.28369,11.35254a160.53349,160.53349,0,0,0-20.43457,27.84375q-20.31666,33.46362-29.15772,54.96924a21.79306,21.79306,0,0,0-1.91211,7.40918q0,3.58594,3.10694,3.585,3.10326,0,8.36523-6.57226,5.25439-6.56984,7.40869-6.45313a5.44954,5.44954,0,0,1,3.46582,1.31445,6.50466,6.50466,0,0,1,1.79248,2.50977,16.16377,16.16377,0,0,1,.7168,3.7041,17.70564,17.70564,0,0,0,.478,3.10742q3.82031,16.96729,24.13916,16.96875h.95605q16.49048,0,28.20166-7.64746,12.906-8.60449,12.90625-21.39062,0-12.78369-11.95019-26.8877a129.08442,129.08442,0,0,0-11.23291-10.75488q-15.77418-13.623-16.252-17.44678-.48193-3.82031,3.22657-6.33349a12.41012,12.41012,0,0,1,6.81152-2.50977q11.707,0,32.02588-8.36475,29.8733-12.189,32.02588-27.00732v-1.43359q0-4.30226-3.82373-8.126-6.45338-6.92944-27.2461-6.93115-28.44507,0-66.20312,10.27685a139.21556,139.21556,0,0,0-40.39112,17.686q-19.12353,12.67089-19.11962,27.00683a11.16072,11.16072,0,0,0,1.91162,6.09473,11.8857,11.8857,0,0,0,4.42187,4.30176,62.35886,62.35886,0,0,0,6.57227,2.86816q4.06128,1.55714,5.85547,2.39014c1.19531.56006,1.59082,1.23584,1.19531,2.03125q-.59985,1.199-3.46582.71728-7.88671-.47607-15.77393-6.57275-7.88672-6.09449-7.88672-14.22021A12.09077,12.09077,0,0,1,71.29443,381.76465Z" transform="translate(-46.24229 -200.36524)"/><polyline class="b8a333c3-052d-4807-94c9-791f15179592" points="182.934 255.389 382.328 255.389 335.839 291.863"/><path class="bf40e765-cdd1-4619-b1cf-f5f07e4500fb" d="M380.30762,517.02344v-5.12012h17.91992v7.04h-1.2793ZM398.22754,590.627v7.04H380.30762v-5.12011l16.64062-1.91993Zm-5.75977-39.042c0-13.18457,0-26.49707-.38379-39.68164h12.28809c-.38379,12.92871-.38379,26.24121-.38379,39.68164v4.48047c0,15.10449,0,28.417.38379,41.60156H392.084c.38379-12.92871.38379-26.24121.38379-39.68164Zm5.75977-1.15234h12.67285c15.74512,0,22.5293-4.99219,22.5293-16.76856s-6.78418-15.873-19.96875-15.873h-15.2334v-5.8877h18.94531c17.53711,0,27.77735,8.7041,27.77735,20.99219,0,9.98535-6.91211,18.81738-23.9375,20.86523V552.6084c19.96972,1.665,28.1621,10.625,28.1621,21.63379,0,11.64844-9.60058,23.4248-33.79394,23.4248H398.22754v-5.88867h14.08105c16.64063,0,24.70508-6.27148,24.70508-17.53613,0-11.90528-7.80859-17.9209-25.72949-17.9209H398.22754Z" transform="translate(-46.24229 -200.36524)"/><line class="a2e58ddc-1cfc-4273-a15e-02dccdb4a121" x1="47.88288" y1="374.5601" x2="276.45679" y2="374.5601"/><line class="a2e58ddc-1cfc-4273-a15e-02dccdb4a121" x1="47.4492" y1="388.07847" x2="276.02312" y2="388.07847"/><line class="a2e58ddc-1cfc-4273-a15e-02dccdb4a121" x1="48.22148" y1="363.19222" x2="276.79539" y2="363.19222"/><path class="a6a43d5f-a0e1-4a90-b38e-a32bc95306a2" d="M103.13672,566.59277a1.7869,1.7869,0,0,1-.41992-.0625q-1.07081-.27391-1.07129-1.124a3.66749,3.66749,0,0,1,1.10254-2.13184,25.18414,25.18414,0,0,1,4.65136-3.63281,51.837,51.837,0,0,0,2.499-5.64844q-.252.29444-.98633,1.27051-.73534.97558-1.30273,1.65821a8.3722,8.3722,0,0,1-1.36426,1.292,2.49791,2.49791,0,0,1-1.47071.60937,1.58993,1.58993,0,0,1-1.03906-.30469,1.01747,1.01747,0,0,1-.40918-.64062,4.62894,4.62894,0,0,1-.042-.56738,3.2413,3.2413,0,0,1,.41992-1.55371,6.91327,6.91327,0,0,1,1.7002-2.20508,1.11674,1.11674,0,0,1,.7041-.37793.90094.90094,0,0,1,.55664.18945q.27246.293.168.50391a7.0559,7.0559,0,0,0-1.82715,1.78418A4.24874,4.24874,0,0,0,104.25,557.458a2.559,2.559,0,0,0-.02148.36719.4283.4283,0,0,0,.17871.35742.59858.59858,0,0,0,.36718.13574,2.03258,2.03258,0,0,0,1.36524-.69238q.71337-.69288,1.36523-1.46.6504-.76612,1.48047-1.83692.82911-1.07081,1.0918-1.40722a.71439.71439,0,0,1,.53515-.33594,1.47754,1.47754,0,0,1,.69336.18847c.23829.126.33985.22461.30469.29395q-.05272.10547-1.07129,2.38379-1.01807,2.2793-1.48047,3.26562a12.71422,12.71422,0,0,0,1.71192-1.291,14.97659,14.97659,0,0,0,2.04687-2.06934q.21094-.252.27344-.042a.33623.33623,0,0,1,.02051.13672.507.507,0,0,1-.126.26269,17.35712,17.35712,0,0,1-2.07812,2.16309,13.33447,13.33447,0,0,1-2.26856,1.76367q-1.78565,3.6753-2.39355,4.62012Q104.669,566.59228,103.13672,566.59277Zm3.86426-6.15332a34.98466,34.98466,0,0,0-3.60157,2.98243,2.99665,2.99665,0,0,0-1.082,1.87988q0,.78662.54688.78711a1.65079,1.65079,0,0,0,.96582-.43067,5.45817,5.45817,0,0,0,1.0498-1.14453,10.56143,10.56143,0,0,0,.7666-1.22851q.26222-.51417.72461-1.51172Q106.83252,560.77588,107.001,560.43945Z" transform="translate(-46.24229 -200.36524)"/><path class="a6a43d5f-a0e1-4a90-b38e-a32bc95306a2" d="M113.46777,558.82324a1.60577,1.60577,0,0,1-.72461-.20019,1.89,1.89,0,0,1-.66113-.56641,1.29911,1.29911,0,0,1-.27246-.78809,1.76232,1.76232,0,0,1,.18848-.79785,5.49536,5.49536,0,0,1,1.35449-1.71093,12.15583,12.15583,0,0,1,1.94238-1.418,6.75223,6.75223,0,0,1,1.59668-.73535,4.71581,4.71581,0,0,1,1.14356-.14649,1.61286,1.61286,0,0,1,.956.2832.77292.77292,0,0,1,.39844.59864.22153.22153,0,0,1-.02051.126q-.0205.02052-.10547-.0205a1.1414,1.1414,0,0,0-1.03906-.39942,3.97982,3.97982,0,0,0-1.78516.51465,9.2599,9.2599,0,0,0-1.8789,1.291,8.24274,8.24274,0,0,0-1.292,1.56445,2.88267,2.88267,0,0,0-.55664,1.27051q0,.77783.44141.77734a2.69477,2.69477,0,0,0,1.34375-.71387,26.21487,26.21487,0,0,0,2.03711-1.84863,16.26451,16.26451,0,0,1,2.0791-2.07812,1.654,1.654,0,0,1,.6084.14648q.35742.14794.23145.35742a6.68307,6.68307,0,0,0-1.25977,3.04492,4.34039,4.34039,0,0,0-.02148.48243.6989.6989,0,0,0,.168.48339q.31494.33546.86133.042a8.89711,8.89711,0,0,0,1.52246-1.17579,10.37071,10.37071,0,0,0,1.56446-1.72265.14223.14223,0,0,1,.18945-.05176c.06934.03516.10449.06641.10449.09375q0,.31494-.99707,1.376a12.35106,12.35106,0,0,1-1.52246,1.43847,3.14,3.14,0,0,1-1.82715.73536,1.05459,1.05459,0,0,1-1.07129-.79883,2.33887,2.33887,0,0,1-.0625-.56641,5.628,5.628,0,0,1,.39844-1.99512,8.2596,8.2596,0,0,0-.77734.83985,12.45178,12.45178,0,0,1-1.60645,1.5332A2.75089,2.75089,0,0,1,113.46777,558.82324Z" transform="translate(-46.24229 -200.36524)"/><path class="a6a43d5f-a0e1-4a90-b38e-a32bc95306a2" d="M127.874,552.62793q.48193,0,.48243.51465a3.32425,3.32425,0,0,1-.48243,1.417,16.14773,16.14773,0,0,0-.71386,1.4707,4.322,4.322,0,0,0-.39942,1.543,1.21618,1.21618,0,0,0,.168.7666q.31494.33546.86133.03125a9.66743,9.66743,0,0,0,1.52246-1.17578,10.153,10.153,0,0,0,1.56445-1.71191.15249.15249,0,0,1,.19922-.05176c.07715.03516.11524.07031.11524.10449a.20926.20926,0,0,1-.042.11524,8.1461,8.1461,0,0,1-1.13378,1.44922,10.43807,10.43807,0,0,1-1.5752,1.418,2.58076,2.58076,0,0,1-1.49023.53516,1.43216,1.43216,0,0,1-1.00879-.32519,1.059,1.059,0,0,1-.294-.76661,4.68187,4.68187,0,0,1,.084-.89257,5.444,5.444,0,0,1,.31543-.99707,14.17993,14.17993,0,0,1,.66113-1.40723,1.91372,1.91372,0,0,0,.28418-.66211c0-.10449-.05664-.15723-.168-.15723q-.33692,0-1.28125.81934a19.74412,19.74412,0,0,0-1.92188,2.29883,16.56386,16.56386,0,0,1-1.43847,1.7959,3.31428,3.31428,0,0,1-.94434.37793c-.127,0-.18945-.02051-.18945-.0625a.5577.5577,0,0,1,.042-.17872q.04248-.11571.40918-1.14453.36768-1.02831.79785-2.25781.43066-1.22754.52539-1.48047a2.41924,2.41924,0,0,0,.126-.43066,2.26168,2.26168,0,0,1,.07324-.30469,1.08692,1.08692,0,0,1,.1582-.2832.38974.38974,0,0,1,.30372-.168,2.23381,2.23381,0,0,1,.48339.042c.19629.03516.29395.12305.29395.2627a2.15175,2.15175,0,0,1-.23047.64062q-.23145.49365-1.32324,3.3916.75585-.92431,1.91113-2.13183a20.22921,20.22921,0,0,1,1.95313-1.83789A2.47842,2.47842,0,0,1,127.874,552.62793Z" transform="translate(-46.24229 -200.36524)"/><path class="a6a43d5f-a0e1-4a90-b38e-a32bc95306a2" d="M130.05762,566.59277a1.78683,1.78683,0,0,1-.41992-.0625q-1.0708-.27391-1.07129-1.124a3.66749,3.66749,0,0,1,1.10254-2.13184,25.18414,25.18414,0,0,1,4.65136-3.63281,40.35807,40.35807,0,0,0,2.10059-4.89258q-1.17627,1.42823-1.68067,1.97364-1.88964,2.10059-3.04492,2.10058a1.60577,1.60577,0,0,1-.72461-.20019,1.88993,1.88993,0,0,1-.66113-.56641,1.29911,1.29911,0,0,1-.27246-.78809,3.72217,3.72217,0,0,1,1.55371-2.499,11.51865,11.51865,0,0,1,1.93164-1.42773,6.75223,6.75223,0,0,1,1.59668-.73535,4.6811,4.6811,0,0,1,1.13379-.14649,1.6422,1.6422,0,0,1,.96582.29395c.28027.19629.41992.3916.41992.58789,0,.1123-.05566.14746-.168.10547q-.23144-.39992-1.01855-.39942a3.97982,3.97982,0,0,0-1.78516.51465,8.77521,8.77521,0,0,0-1.79492,1.21777,7.17982,7.17982,0,0,0-1.35449,1.59571,2.98809,2.98809,0,0,0-.55664,1.3125q0,.73535.41992.73535a3.63127,3.63127,0,0,0,1.80566-.96582,22.15235,22.15235,0,0,0,3.46485-3.42285q.27246-.39992,1.13476.0205.33546.16846.27246.29395-.27246.60938-.99707,2.11035-.72509,1.50147-1.082,2.25781a10.63779,10.63779,0,0,0,1.64844-1.2705,20.04793,20.04793,0,0,0,2.04785-2.04786q.46143-.54492.46192-.168,0,.52587-2.52051,2.77246a13.9791,13.9791,0,0,1-2.05762,1.63769q-1.78565,3.6753-2.39355,4.62012Q131.58984,566.59228,130.05762,566.59277Zm3.86426-6.15332a35.02508,35.02508,0,0,0-3.61231,2.99317,3.09358,3.09358,0,0,0-1.0918,2.06836.4675.4675,0,0,0,.18848.41992.70985.70985,0,0,0,.39941.126,1.18768,1.18768,0,0,0,.60938-.31543,6.13462,6.13462,0,0,0,.68262-.61915q.28271-.30468.49316-.56738a8.20414,8.20414,0,0,0,.47266-.67187q.2622-.40869.40918-.64063.14648-.23144.40918-.72461.2622-.49365.35742-.67187.09375-.17871.35644-.72461C133.77148,560.74805,133.87988,560.52344,133.92188,560.43945Z" transform="translate(-46.24229 -200.36524)"/><path class="a6a43d5f-a0e1-4a90-b38e-a32bc95306a2" d="M146.543,546.30664a1.85237,1.85237,0,0,1,.65137-.14648,1.29551,1.29551,0,0,1,1.21777.5039.83577.83577,0,0,1,.168.44043q0,1.42822-2.39453,3.59082-2.12111,1.8706-3.90528,3.21387a34.51047,34.51047,0,0,0-1.21875,3.25488q.75733-.92431,1.91114-2.14258,2.332-2.41406,3.25488-2.415a.42957.42957,0,0,1,.4834.46191,1.6038,1.6038,0,0,1-.19922.9248q-.24169.44092-.45215.81836a5.82162,5.82162,0,0,0-.98633,2.91895.90358.90358,0,0,0,.168.60937q.293.33546.83984.042a8.89748,8.89748,0,0,0,1.52247-1.17579,11.285,11.285,0,0,0,1.58593-1.72265c.06934-.06934.13575-.08692.19922-.05176.0625.03516.09473.07031.09473.10449a.21722.21722,0,0,1-.042.11524,7.88792,7.88792,0,0,1-1.13477,1.43847,11.27751,11.27751,0,0,1-1.32226,1.25,3.09515,3.09515,0,0,1-1.84864.73536,1.05351,1.05351,0,0,1-1.07031-.79883,1.428,1.428,0,0,1-.06348-.45117,3.90268,3.90268,0,0,1,.042-.55665,9.09015,9.09015,0,0,1,1.11328-2.751,1.37549,1.37549,0,0,0,.21-.53516c0-.10547-.05664-.15722-.168-.15722q-.33691,0-1.30176.83984a19.74431,19.74431,0,0,0-1.92187,2.29883,16.84706,16.84706,0,0,1-1.43848,1.7959,3.386,3.386,0,0,1-.93457.37793q-.17871,0-.19922-.05274a.16365.16365,0,0,1,.02051-.13574q.04248-.085.33594-.92481.9873-2.792,1.34375-3.69531-.69288.88184-1.72168,1.99512c-.11231.11133-.168.08691-.168-.07422a.82763.82763,0,0,1,.18945-.49316q.189-.252.78711-.97657.59912-.72509.85059-1.08105a.34747.34747,0,0,1-.19922-.29395.25115.25115,0,0,1,.126-.26269.5769.5769,0,0,1,.45118.05176,4.17776,4.17776,0,0,0,.37793-.65039Q144.29589,547.168,146.543,546.30664Zm1.17578,1.5752a1.88324,1.88324,0,0,0,.27344-.85059c0-.23047-.10156-.34668-.30469-.34668a1.52224,1.52224,0,0,0-.80859.37793,15.127,15.127,0,0,0-4.17871,5.90137,18.25391,18.25391,0,0,0,2.85546-2.35254A11.80738,11.80738,0,0,0,147.71875,547.88184Z" transform="translate(-46.24229 -200.36524)"/><path class="a6a43d5f-a0e1-4a90-b38e-a32bc95306a2" d="M157.65137,557.10059a11.26289,11.26289,0,0,1-1.46973,1.36523,3.05025,3.05025,0,0,1-1.82715.60938,1.073,1.073,0,0,1-.49414-.17872.88439.88439,0,0,1-.40918-.51464,2.16789,2.16789,0,0,1-.10449-.65137,5.882,5.882,0,0,1,.41992-2.16309,7.64856,7.64856,0,0,0-.57812.89258,8.67926,8.67926,0,0,1-1.25977,1.60645,2.14571,2.14571,0,0,1-1.50195.75683,2.20454,2.20454,0,0,1-.81836-.18945,1.3853,1.3853,0,0,1-.83985-1.38574,4.69329,4.69329,0,0,1,.85059-2.55176,5.09737,5.09737,0,0,1,1.08106-1.39649,2.33724,2.33724,0,0,1,.59863-.084,1.59052,1.59052,0,0,1,.57715.11523q.29443.11572-.084.38868a7.60717,7.60717,0,0,0-2.05761,2.94043,3.191,3.191,0,0,0-.23145,1.06054c0,.28711.07422.47168.2207.55567a.86562.86562,0,0,0,.43067.126,2.54129,2.54129,0,0,0,1.375-.70312,15.15219,15.15219,0,0,0,2.40527-2.92969q.20947-.31494.73438-1.22851.5244-.9126.62988-1.08106a2.46043,2.46043,0,0,1,.78808.15723c.30079.10547.40235.24121.30469.40918q-1.00928,1.68163-1.418,2.47851a5.80763,5.80763,0,0,0-.55664,1.86914,4.631,4.631,0,0,0-.02051.48243.69891.69891,0,0,0,.168.48339q.31494.33546.8711.03125a8.99465,8.99465,0,0,0,1.52246-1.17578,10.30618,10.30618,0,0,0,1.55371-1.71191.15394.15394,0,0,1,.20019-.05176c.07618.03516.11524.07031.11524.10449a.20924.20924,0,0,1-.042.11524A8.14578,8.14578,0,0,1,157.65137,557.10059Z" transform="translate(-46.24229 -200.36524)"/><path class="a6a43d5f-a0e1-4a90-b38e-a32bc95306a2" d="M159.31055,558.82324a1.60571,1.60571,0,0,1-.72461-.20019,1.89,1.89,0,0,1-.66114-.56641,1.29911,1.29911,0,0,1-.27246-.78809,1.76232,1.76232,0,0,1,.18848-.79785,5.49551,5.49551,0,0,1,1.35449-1.71093,12.15546,12.15546,0,0,1,1.94239-1.418,6.75205,6.75205,0,0,1,1.59668-.73535,4.71579,4.71579,0,0,1,1.14355-.14649,1.61286,1.61286,0,0,1,.95605.2832.77292.77292,0,0,1,.39844.59864.22144.22144,0,0,1-.02051.126q-.0205.02052-.10546-.0205a1.14142,1.14142,0,0,0-1.03907-.39942,3.97978,3.97978,0,0,0-1.78515.51465,9.26,9.26,0,0,0-1.87891,1.291,8.24269,8.24269,0,0,0-1.292,1.56445,2.88255,2.88255,0,0,0-.55664,1.27051q0,.77783.4414.77734a2.69477,2.69477,0,0,0,1.34375-.71387,26.21293,26.21293,0,0,0,2.03711-1.84863,16.26451,16.26451,0,0,1,2.0791-2.07812,1.654,1.654,0,0,1,.6084.14648q.35742.14794.23145.35742a6.68307,6.68307,0,0,0-1.25977,3.04492,4.34039,4.34039,0,0,0-.02148.48243.69886.69886,0,0,0,.168.48339q.31494.33546.86133.042a8.89789,8.89789,0,0,0,1.52246-1.17579,10.37062,10.37062,0,0,0,1.56445-1.72265.14223.14223,0,0,1,.18945-.05176c.06934.03516.10449.06641.10449.09375q0,.31494-.99707,1.376a12.35033,12.35033,0,0,1-1.52246,1.43847,3.14,3.14,0,0,1-1.82714.73536,1.05458,1.05458,0,0,1-1.07129-.79883,2.33838,2.33838,0,0,1-.0625-.56641,5.628,5.628,0,0,1,.39843-1.99512,8.2596,8.2596,0,0,0-.77734.83985,12.45113,12.45113,0,0,1-1.60645,1.5332A2.75087,2.75087,0,0,1,159.31055,558.82324Z" transform="translate(-46.24229 -200.36524)"/><path class="a6a43d5f-a0e1-4a90-b38e-a32bc95306a2" d="M173.7168,552.62793q.48193,0,.48242.51465a3.32421,3.32421,0,0,1-.48242,1.417,16.14559,16.14559,0,0,0-.71387,1.4707,4.3221,4.3221,0,0,0-.39941,1.543,1.21619,1.21619,0,0,0,.168.7666q.315.33546.86133.03125a9.667,9.667,0,0,0,1.52246-1.17578,10.15351,10.15351,0,0,0,1.56446-1.71191.15249.15249,0,0,1,.19922-.05176c.07714.03516.11523.07031.11523.10449a.20924.20924,0,0,1-.042.11524,8.14578,8.14578,0,0,1-1.13379,1.44922,10.43807,10.43807,0,0,1-1.5752,1.418,2.58072,2.58072,0,0,1-1.49023.53516,1.43218,1.43218,0,0,1-1.00879-.32519,1.059,1.059,0,0,1-.29395-.76661,4.68187,4.68187,0,0,1,.084-.89257,5.444,5.444,0,0,1,.31543-.99707,14.17993,14.17993,0,0,1,.66113-1.40723,1.91372,1.91372,0,0,0,.28418-.66211c0-.10449-.05664-.15723-.168-.15723q-.33691,0-1.28125.81934a19.74431,19.74431,0,0,0-1.92187,2.29883,16.56172,16.56172,0,0,1-1.43848,1.7959,3.31428,3.31428,0,0,1-.94434.37793c-.12695,0-.18945-.02051-.18945-.0625a.5577.5577,0,0,1,.042-.17872q.04248-.11571.40918-1.14453.36768-1.02831.79786-2.25781.43065-1.22754.52539-1.48047a2.42,2.42,0,0,0,.126-.43066,2.2632,2.2632,0,0,1,.07324-.30469,1.08669,1.08669,0,0,1,.15821-.2832.38971.38971,0,0,1,.30371-.168,2.23384,2.23384,0,0,1,.4834.042c.19629.03516.29394.12305.29394.2627a2.15175,2.15175,0,0,1-.23047.64062q-.23144.49365-1.32324,3.3916.75587-.92431,1.91113-2.13183a20.23038,20.23038,0,0,1,1.95313-1.83789A2.47841,2.47841,0,0,1,173.7168,552.62793Z" transform="translate(-46.24229 -200.36524)"/><path class="a6a43d5f-a0e1-4a90-b38e-a32bc95306a2" d="M183.64941,546.30664a1.85242,1.85242,0,0,1,.65137-.14648,1.29549,1.29549,0,0,1,1.21777.5039.83577.83577,0,0,1,.168.44043q0,1.42822-2.39453,3.59082-2.12109,1.8706-3.90527,3.21387a34.50769,34.50769,0,0,0-1.21875,3.25488q.75732-.92431,1.91113-2.14258,2.332-2.41406,3.25488-2.415a.42957.42957,0,0,1,.4834.46191,1.6038,1.6038,0,0,1-.19922.9248q-.24169.44092-.45214.81836a5.82152,5.82152,0,0,0-.98633,2.91895.90352.90352,0,0,0,.168.60937q.293.33546.83984.042a8.8975,8.8975,0,0,0,1.52246-1.17579,11.28456,11.28456,0,0,0,1.58594-1.72265c.06933-.06934.13574-.08692.19922-.05176.0625.03516.09472.07031.09472.10449a.21713.21713,0,0,1-.042.11524,7.88823,7.88823,0,0,1-1.13476,1.43847,11.27664,11.27664,0,0,1-1.32227,1.25,3.09511,3.09511,0,0,1-1.84863.73536,1.0535,1.0535,0,0,1-1.07031-.79883,1.42774,1.42774,0,0,1-.06348-.45117,3.90261,3.90261,0,0,1,.042-.55665,9.09042,9.09042,0,0,1,1.11328-2.751,1.37549,1.37549,0,0,0,.21-.53516c0-.10547-.05664-.15722-.168-.15722q-.33691,0-1.30175.83984a19.74412,19.74412,0,0,0-1.92188,2.29883,16.84558,16.84558,0,0,1-1.43848,1.7959,3.38578,3.38578,0,0,1-.93457.37793q-.17871,0-.19921-.05274a.16364.16364,0,0,1,.0205-.13574q.04248-.085.33594-.92481.9873-2.792,1.34375-3.69531-.69286.88184-1.72168,1.99512-.16845.167-.168-.07422a.82764.82764,0,0,1,.18946-.49316q.189-.252.78711-.97657.59912-.72509.85058-1.08105a.34749.34749,0,0,1-.19922-.29395.25116.25116,0,0,1,.126-.26269.57687.57687,0,0,1,.45117.05176,4.17617,4.17617,0,0,0,.37793-.65039Q181.40235,547.168,183.64941,546.30664Zm1.17579,1.5752a1.8832,1.8832,0,0,0,.27343-.85059c0-.23047-.10156-.34668-.30468-.34668a1.52226,1.52226,0,0,0-.8086.37793,15.127,15.127,0,0,0-4.17871,5.90137,18.25349,18.25349,0,0,0,2.85547-2.35254A11.80765,11.80765,0,0,0,184.8252,547.88184Z" transform="translate(-46.24229 -200.36524)"/><path class="a6a43d5f-a0e1-4a90-b38e-a32bc95306a2" d="M194.75781,557.10059a11.26289,11.26289,0,0,1-1.46972,1.36523,3.05027,3.05027,0,0,1-1.82715.60938,1.07291,1.07291,0,0,1-.49414-.17872.88435.88435,0,0,1-.40918-.51464,2.16757,2.16757,0,0,1-.10449-.65137,5.88181,5.88181,0,0,1,.41992-2.16309,7.64774,7.64774,0,0,0-.57813.89258,8.67877,8.67877,0,0,1-1.25976,1.60645,2.14571,2.14571,0,0,1-1.502.75683,2.20458,2.20458,0,0,1-.81836-.18945,1.3853,1.3853,0,0,1-.83984-1.38574,4.69321,4.69321,0,0,1,.85059-2.55176,5.09723,5.09723,0,0,1,1.081-1.39649,2.33724,2.33724,0,0,1,.59863-.084,1.59048,1.59048,0,0,1,.57715.11523q.29444.11572-.084.38868a7.6072,7.6072,0,0,0-2.05762,2.94043,3.191,3.191,0,0,0-.23144,1.06054c0,.28711.07421.47168.2207.55567a.86561.86561,0,0,0,.43066.126,2.54123,2.54123,0,0,0,1.375-.70312,15.15214,15.15214,0,0,0,2.40528-2.92969q.20946-.31494.73437-1.22851.52442-.9126.62988-1.08106a2.46054,2.46054,0,0,1,.78809.15723c.30078.10547.40234.24121.30469.40918q-1.00928,1.68163-1.418,2.47851a5.80738,5.80738,0,0,0-.55664,1.86914,4.631,4.631,0,0,0-.02051.48243.69886.69886,0,0,0,.168.48339q.31494.33546.87109.03125a8.99385,8.99385,0,0,0,1.52246-1.17578,10.30574,10.30574,0,0,0,1.55371-1.71191.154.154,0,0,1,.2002-.05176c.07617.03516.11523.07031.11523.10449a.20924.20924,0,0,1-.042.11524A8.14578,8.14578,0,0,1,194.75781,557.10059Z" transform="translate(-46.24229 -200.36524)"/><path class="a6a43d5f-a0e1-4a90-b38e-a32bc95306a2" d="M196.416,558.82324a1.60571,1.60571,0,0,1-.72461-.20019,1.89,1.89,0,0,1-.66114-.56641,1.29911,1.29911,0,0,1-.27246-.78809,1.76232,1.76232,0,0,1,.18848-.79785,5.49536,5.49536,0,0,1,1.35449-1.71093,12.15583,12.15583,0,0,1,1.94238-1.418,6.75241,6.75241,0,0,1,1.59668-.73535,4.71587,4.71587,0,0,1,1.14356-.14649,1.61286,1.61286,0,0,1,.95605.2832.77292.77292,0,0,1,.39844.59864.22153.22153,0,0,1-.02051.126q-.02051.02052-.10547-.0205a1.14139,1.14139,0,0,0-1.03906-.39942,3.97975,3.97975,0,0,0-1.78515.51465,9.26,9.26,0,0,0-1.87891,1.291,8.24232,8.24232,0,0,0-1.292,1.56445,2.88255,2.88255,0,0,0-.55664,1.27051q0,.77783.4414.77734a2.69477,2.69477,0,0,0,1.34375-.71387,26.21487,26.21487,0,0,0,2.03711-1.84863,16.26451,16.26451,0,0,1,2.0791-2.07812,1.654,1.654,0,0,1,.6084.14648q.35742.14794.23145.35742a6.68307,6.68307,0,0,0-1.25977,3.04492,4.34039,4.34039,0,0,0-.02148.48243.69886.69886,0,0,0,.168.48339q.31494.33546.86132.042a8.89748,8.89748,0,0,0,1.52247-1.17579,10.37062,10.37062,0,0,0,1.56445-1.72265.14223.14223,0,0,1,.18945-.05176c.06934.03516.10449.06641.10449.09375q0,.31494-.99707,1.376a12.35106,12.35106,0,0,1-1.52246,1.43847,3.14,3.14,0,0,1-1.82715.73536,1.0546,1.0546,0,0,1-1.07129-.79883,2.33887,2.33887,0,0,1-.0625-.56641,5.628,5.628,0,0,1,.39844-1.99512,8.2596,8.2596,0,0,0-.77734.83985,12.45178,12.45178,0,0,1-1.60645,1.5332A2.75089,2.75089,0,0,1,196.416,558.82324Z" transform="translate(-46.24229 -200.36524)"/><path class="a6a43d5f-a0e1-4a90-b38e-a32bc95306a2" d="M210.82227,552.62793q.48192,0,.48242.51465a3.32435,3.32435,0,0,1-.48242,1.417,16.14559,16.14559,0,0,0-.71387,1.4707,4.32216,4.32216,0,0,0-.39942,1.543,1.21618,1.21618,0,0,0,.168.7666q.31494.33546.86133.03125a9.667,9.667,0,0,0,1.52246-1.17578,10.15351,10.15351,0,0,0,1.56446-1.71191.15248.15248,0,0,1,.19921-.05176c.07715.03516.11524.07031.11524.10449a.20924.20924,0,0,1-.042.11524,8.14578,8.14578,0,0,1-1.13379,1.44922,10.43807,10.43807,0,0,1-1.5752,1.418,2.58072,2.58072,0,0,1-1.49023.53516,1.43218,1.43218,0,0,1-1.00879-.32519,1.059,1.059,0,0,1-.29395-.76661,4.68187,4.68187,0,0,1,.084-.89257,5.444,5.444,0,0,1,.31543-.99707,14.17993,14.17993,0,0,1,.66113-1.40723,1.91372,1.91372,0,0,0,.28418-.66211c0-.10449-.05664-.15723-.168-.15723q-.33691,0-1.28125.81934a19.74431,19.74431,0,0,0-1.92187,2.29883,16.56315,16.56315,0,0,1-1.43848,1.7959,3.31428,3.31428,0,0,1-.94434.37793c-.12695,0-.18945-.02051-.18945-.0625a.5577.5577,0,0,1,.042-.17872q.04248-.11571.40918-1.14453.36768-1.02831.79785-2.25781.43066-1.22754.52539-1.48047a2.41924,2.41924,0,0,0,.126-.43066,2.2632,2.2632,0,0,1,.07324-.30469,1.08669,1.08669,0,0,1,.15821-.2832.38971.38971,0,0,1,.30371-.168,2.23389,2.23389,0,0,1,.4834.042c.19628.03516.29394.12305.29394.2627a2.15175,2.15175,0,0,1-.23047.64062q-.23144.49365-1.32324,3.3916.75586-.92431,1.91113-2.13183a20.22921,20.22921,0,0,1,1.95313-1.83789A2.47841,2.47841,0,0,1,210.82227,552.62793Z" transform="translate(-46.24229 -200.36524)"/><path class="a6a43d5f-a0e1-4a90-b38e-a32bc95306a2" d="M219.18066,555.90332a4.99936,4.99936,0,0,0-.27343.95606q-.02052.24169-.02051.65136a1.372,1.372,0,0,0,.21.74512q.356.56689,1.19727.084a8.44481,8.44481,0,0,0,1.5957-1.22851,11.10063,11.10063,0,0,0,1.49121-1.62793.1395.1395,0,0,1,.126-.0625c.126,0,.16015.09082.10449.27246a7.68549,7.68549,0,0,1-1.165,1.44922,12.931,12.931,0,0,1-1.54395,1.39648,2.31908,2.31908,0,0,1-1.38574.51465A1.39177,1.39177,0,0,1,217.9209,557.5v-.126a13.68312,13.68312,0,0,1,1.49023-4.4414,27.11069,27.11069,0,0,1,2.541-4.4834l.65137-.81934a7.53343,7.53343,0,0,1,.67187-.67187,2.51506,2.51506,0,0,1,1.73242-.79785,1.27329,1.27329,0,0,1,1.208.54589,1.15165,1.15165,0,0,1,.10449.5459,2.55836,2.55836,0,0,1-.31445,1.00782A29.52062,29.52062,0,0,1,219.18066,555.90332Zm6.25782-8.02148a1.6704,1.6704,0,0,0,.25195-.71387q0-.44092-.35645-.44141a1.33227,1.33227,0,0,0-.73535.33594,13.47026,13.47026,0,0,0-3.25488,4.11621,28.16064,28.16064,0,0,0-1.84863,3.88477,16.16845,16.16845,0,0,0,3.24511-3.21289A24.51318,24.51318,0,0,0,225.43848,547.88184Z" transform="translate(-46.24229 -200.36524)"/><path class="a6a43d5f-a0e1-4a90-b38e-a32bc95306a2" d="M227.43262,556.28223a3.0378,3.0378,0,0,0,.3789-1.19727,1.88065,1.88065,0,0,0-.09472-.66211.34379.34379,0,0,1,.084-.40918.51315.51315,0,0,1,.45117-.126q.42042.10546.41993.94531a4.20749,4.20749,0,0,1-.98633,2.20508.52163.52163,0,0,0,.58789.5664q.56689,0,1.72168-1.21777c.36426-.41992.59082-.69336.68261-.81934.09082-.126.1709-.1709.24122-.13574s.10546.06641.10546.09375a3.21548,3.21548,0,0,1-.75586,1.09277q-1.19823,1.46925-2.12109,1.46973a.88064.88064,0,0,1-.86133-.52539q-.42041.44092-.81933.81934a2.75814,2.75814,0,0,1-1.82715.69336,1.57286,1.57286,0,0,1-.94434-.27344,1.68365,1.68365,0,0,1-.73535-1.5752,4.58852,4.58852,0,0,1,.83984-2.51953,6.08693,6.08693,0,0,1,1.13477-1.32324,3.04725,3.04725,0,0,1,1.95215-.90332,1.53121,1.53121,0,0,1,.44141.06348.799.799,0,0,1,.62988.79785q0,.48339-.252.4834c-.07031-.02832-.10449-.13282-.10449-.31543q0-.37794-.4209-.37793-.73534,0-1.88964,1.34375a5.63877,5.63877,0,0,0-1.38575,2.709,2.86618,2.86618,0,0,0-.042.51465,1.45847,1.45847,0,0,0,.18848.65137.719.719,0,0,0,.7041.36718,1.91569,1.91569,0,0,0,1.123-.46191,4.90883,4.90883,0,0,0,1.09179-1.17578l-.0625-.126a.59636.59636,0,0,1,.084-.5459A.37376.37376,0,0,1,227.43262,556.28223Z" transform="translate(-46.24229 -200.36524)"/><path class="a6a43d5f-a0e1-4a90-b38e-a32bc95306a2" d="M231.54883,553.90918q0-1.00928-.58789-1.00879a1.14863,1.14863,0,0,0-.2627.03223c-.09082.02051-.13574.00293-.13574-.05274a.34472.34472,0,0,1,.126-.21,2.17506,2.17506,0,0,1,.86035-.168q.88183,0,1.10254.252a.76761.76761,0,0,1,.2207.5039,5.1737,5.1737,0,0,1-.38867,1.249c-.25879.666-.39551,1.01171-.40918,1.04a7.79167,7.79167,0,0,0-.56738,2.373q1.89111-2.5415,2.47851-3.1709,1.23925-1.36522,1.76367-1.86914a8.06608,8.06608,0,0,1,2.14258-1.5332,1.3807,1.3807,0,0,1,.48242-.10449,1.01,1.01,0,0,1,.94532.41992.32663.32663,0,0,1,.084.19922.51158.51158,0,0,1-.06348.2207c-.042.084-.11914.08008-.23046-.01074a1.35344,1.35344,0,0,0-.75586-.13672q-.96681,0-3.23438,2.26856a30.0387,30.0387,0,0,0-2.50976,2.93945,6.0301,6.0301,0,0,0-1.22852,2.18457c0,.11133-.10449.168-.31445.168a.51594.51594,0,0,1-.47266-.2627.90814.90814,0,0,1-.15723-.4414,2.13164,2.13164,0,0,1,.02051-.31446q.0205-.13623.41992-1.54394.39845-1.40625.50391-1.86914-.252.4204-.69238,1.02929c-.09864.11231-.17871.14356-.24219.09473-.0625-.04883-.09375-.09473-.09375-.13672a.338.338,0,0,1,.042-.14746A7.97962,7.97962,0,0,0,231.54883,553.90918Z" transform="translate(-46.24229 -200.36524)"/><path class="a6a43d5f-a0e1-4a90-b38e-a32bc95306a2" d="M241.92285,552.48047q1.13379,0,1.13379,1.09277a1.34556,1.34556,0,0,1-.31543.92383,4.246,4.246,0,0,1-1.70117,1.35449,5.73669,5.73669,0,0,1-1.99414.64063c-.19629.01367-.30176-.042-.31543-.168-.01367-.05664.00293-.0918.05273-.10547a.45519.45519,0,0,1,.11524-.02051,3.34346,3.34346,0,0,0,1.23926-.46289,6.76926,6.76926,0,0,0,2.05761-1.55371,1.25177,1.25177,0,0,0,.27344-.72461.30216.30216,0,0,0-.33594-.34668,1.78145,1.78145,0,0,0-.73535.23145,7.25549,7.25549,0,0,0-2.0791,1.60644,5.82475,5.82475,0,0,0-1.42773,2.23633,2.20836,2.20836,0,0,0-.10547.66211.9008.9008,0,0,0,.27343.61914,1.09215,1.09215,0,0,0,.83985.29395,3.90117,3.90117,0,0,0,1.44922-.33594,7.69951,7.69951,0,0,0,3.65332-2.91895c.084-.1123.16113-.13281.23144-.06347.05567.02832.084.06347.084.10547a.25592.25592,0,0,1-.0625.14648,7.5243,7.5243,0,0,1-1.59668,1.86914,5.67974,5.67974,0,0,1-3.63282,1.59668,2.372,2.372,0,0,1-2.12109-.90332,1.55,1.55,0,0,1-.23047-.86133,3.3598,3.3598,0,0,1,.27246-1.19629,6.57848,6.57848,0,0,1,2.24707-2.457A5.25194,5.25194,0,0,1,241.92285,552.48047Z" transform="translate(-46.24229 -200.36524)"/><path class="a6a43d5f-a0e1-4a90-b38e-a32bc95306a2" d="M247.82324,566.59277a1.787,1.787,0,0,1-.41992-.0625q-1.07081-.27391-1.07129-1.124a3.66755,3.66755,0,0,1,1.10254-2.13184,25.18431,25.18431,0,0,1,4.65137-3.63281,51.83833,51.83833,0,0,0,2.499-5.64844q-.252.29444-.98633,1.27051-.73535.97558-1.30273,1.65821a8.3722,8.3722,0,0,1-1.36426,1.292,2.49791,2.49791,0,0,1-1.4707.60937,1.58992,1.58992,0,0,1-1.03906-.30469,1.01743,1.01743,0,0,1-.40918-.64062,4.6292,4.6292,0,0,1-.042-.56738,3.2412,3.2412,0,0,1,.41993-1.55371,6.91324,6.91324,0,0,1,1.70019-2.20508,1.11676,1.11676,0,0,1,.7041-.37793.90092.90092,0,0,1,.55664.18945q.27246.293.168.50391a7.0559,7.0559,0,0,0-1.82715,1.78418,4.24886,4.24886,0,0,0-.75586,1.80664,2.5605,2.5605,0,0,0-.02148.36719.4283.4283,0,0,0,.17871.35742.59859.59859,0,0,0,.36719.13574,2.03254,2.03254,0,0,0,1.36523-.69238q.71339-.69288,1.36524-1.46.65039-.76612,1.48047-1.83692.8291-1.07081,1.09179-1.40722a.71442.71442,0,0,1,.53516-.33594,1.47754,1.47754,0,0,1,.69336.18847c.23828.126.33984.22461.30469.29395q-.05274.10547-1.07129,2.38379-1.01807,2.2793-1.48047,3.26562a12.71433,12.71433,0,0,0,1.71191-1.291,14.9767,14.9767,0,0,0,2.04688-2.06934q.21093-.252.27343-.042a.33606.33606,0,0,1,.02051.13672.507.507,0,0,1-.126.26269,17.35808,17.35808,0,0,1-2.07813,2.16309,13.33409,13.33409,0,0,1-2.26855,1.76367q-1.78564,3.6753-2.39356,4.62012Q249.35547,566.59228,247.82324,566.59277Zm3.86426-6.15332a34.98429,34.98429,0,0,0-3.60156,2.98243,2.9966,2.9966,0,0,0-1.082,1.87988q0,.78662.54687.78711a1.65076,1.65076,0,0,0,.96582-.43067,5.45847,5.45847,0,0,0,1.04981-1.14453,10.5628,10.5628,0,0,0,.7666-1.22851q.2622-.51417.72461-1.51172Q251.519,560.77588,251.6875,560.43945Z" transform="translate(-46.24229 -200.36524)"/><path class="a6a43d5f-a0e1-4a90-b38e-a32bc95306a2" d="M265.84082,557.10059a11.26225,11.26225,0,0,1-1.46973,1.36523,3.05022,3.05022,0,0,1-1.82714.60938,1.073,1.073,0,0,1-.49415-.17872.88437.88437,0,0,1-.40917-.51464,2.16759,2.16759,0,0,1-.1045-.65137,5.882,5.882,0,0,1,.41992-2.16309,7.64856,7.64856,0,0,0-.57812.89258,8.67883,8.67883,0,0,1-1.25977,1.60645,2.14571,2.14571,0,0,1-1.50195.75683,2.20458,2.20458,0,0,1-.81836-.18945,1.38529,1.38529,0,0,1-.83984-1.38574,4.69327,4.69327,0,0,1,.85058-2.55176,5.09737,5.09737,0,0,1,1.08106-1.39649,2.33724,2.33724,0,0,1,.59863-.084,1.59048,1.59048,0,0,1,.57715.11523q.29444.11572-.084.38868a7.6072,7.6072,0,0,0-2.05762,2.94043,3.191,3.191,0,0,0-.23145,1.06054c0,.28711.07422.47168.22071.55567a.86561.86561,0,0,0,.43066.126,2.54123,2.54123,0,0,0,1.375-.70312,15.15219,15.15219,0,0,0,2.40527-2.92969q.20947-.31494.73438-1.22851.52441-.9126.62988-1.08106a2.46054,2.46054,0,0,1,.78809.15723c.30078.10547.40234.24121.30468.40918q-1.00928,1.68163-1.418,2.47851a5.80738,5.80738,0,0,0-.55664,1.86914,4.6282,4.6282,0,0,0-.02051.48243.69886.69886,0,0,0,.168.48339q.31494.33546.87109.03125a8.99425,8.99425,0,0,0,1.52246-1.17578,10.30574,10.30574,0,0,0,1.55371-1.71191.154.154,0,0,1,.2002-.05176c.07617.03516.11523.07031.11523.10449a.20924.20924,0,0,1-.042.11524A8.14578,8.14578,0,0,1,265.84082,557.10059Z" transform="translate(-46.24229 -200.36524)"/><path class="a6a43d5f-a0e1-4a90-b38e-a32bc95306a2" d="M265.47266,565.40625a.444.444,0,0,1-.1045.13672q-.05273.041-.43066.252a1.43781,1.43781,0,0,1-.68262.21c-.20312,0-.30468-.04883-.30468-.14746a.50094.50094,0,0,1,.042-.168q.37793-.71337,3.88476-9.68066a8.42137,8.42137,0,0,1-.96582.084.78933.78933,0,0,1-.49316-.13672.42779.42779,0,0,1-.17871-.35644q0-.22119.47265-.39941a2.25732,2.25732,0,0,1,.72461-.17872.57286.57286,0,0,1,.41993.168c.1123.11231.18847.168.23046.168h.06348l.60938-1.55371q.37793-1.05029,1.15429-2.74023a24.81744,24.81744,0,0,1,1.40723-2.69825q1.40625-2.12109,2.81445-2.12109l.50391.0625.41992.14746a1.09139,1.09139,0,0,1,.6084.97656,3.13622,3.13622,0,0,1-.33594,1.333,14.50335,14.50335,0,0,1-2.30957,3.1709,28.70459,28.70459,0,0,1-3.36035,3.25488q1.72266-.14647,2.21582-.14648c.3291,0,.5.042.51465.126,0,.05566-.13379.123-.39942.19921q-.39843.11572-3.23339.53516-2.5005,6.34278-2.541,7.2666a2.45743,2.45743,0,0,1-.09473.66113c-.0498.13282-.10839.28711-.17871.46192s-.123.30859-.15722.39941c-.03516.09082-.07325.19239-.11524.30469a1.78957,1.78957,0,0,1-.10547.24121C265.53906,565.28711,265.50781,565.34375,265.47266,565.40625Zm9.27148-16.93652a2.295,2.295,0,0,0,.35742-1.15528c0-.36328-.13379-.5459-.39941-.5459q-.79835,0-2.26758,2.0586a27.406,27.406,0,0,0-1.5332,2.415,26.68865,26.68865,0,0,0-1.72168,3.6748l-.168.33594a18.53043,18.53043,0,0,0,3.12891-3.1084A26.83286,26.83286,0,0,0,274.74414,548.46973Z" transform="translate(-46.24229 -200.36524)"/><path class="a6a43d5f-a0e1-4a90-b38e-a32bc95306a2" d="M277.30664,552.48047q1.13379,0,1.13379,1.09277a1.34556,1.34556,0,0,1-.31543.92383,4.246,4.246,0,0,1-1.70117,1.35449,5.73669,5.73669,0,0,1-1.99414.64063c-.19629.01367-.30176-.042-.31543-.168-.01367-.05664.00293-.0918.05273-.10547a.45519.45519,0,0,1,.11524-.02051,3.34337,3.34337,0,0,0,1.23925-.46289,6.76932,6.76932,0,0,0,2.05762-1.55371,1.25177,1.25177,0,0,0,.27344-.72461.30216.30216,0,0,0-.33594-.34668,1.7814,1.7814,0,0,0-.73535.23145,7.25549,7.25549,0,0,0-2.0791,1.60644,5.82491,5.82491,0,0,0-1.42774,2.23633,2.20866,2.20866,0,0,0-.10546.66211.9008.9008,0,0,0,.27343.61914,1.09215,1.09215,0,0,0,.83985.29395,3.90117,3.90117,0,0,0,1.44922-.33594,7.69951,7.69951,0,0,0,3.65332-2.91895c.084-.1123.16113-.13281.23144-.06347.05567.02832.084.06347.084.10547a.25592.25592,0,0,1-.0625.14648,7.5243,7.5243,0,0,1-1.59668,1.86914,5.67976,5.67976,0,0,1-3.63282,1.59668,2.372,2.372,0,0,1-2.12109-.90332,1.55,1.55,0,0,1-.23047-.86133,3.3598,3.3598,0,0,1,.27246-1.19629,6.57839,6.57839,0,0,1,2.24707-2.457A5.25194,5.25194,0,0,1,277.30664,552.48047Z" transform="translate(-46.24229 -200.36524)"/><path class="a6a43d5f-a0e1-4a90-b38e-a32bc95306a2" d="M281.1709,552.77441q.52441,0,.62988.33594a.52962.52962,0,0,1-.05273.36817c-.06348.11914-.1084.21386-.13672.2832-.02832.07031-.04883.126-.0625.168q-.10547.21093-.21.39941a12.90377,12.90377,0,0,0-1.26074,3.04492,4.6282,4.6282,0,0,0-.02051.48243.69886.69886,0,0,0,.168.48339q.293.33546.83984.042a8.8975,8.8975,0,0,0,1.52246-1.17579,11.28456,11.28456,0,0,0,1.58594-1.72265.14106.14106,0,0,1,.18847-.05176c.07032.03516.10547.07031.10547.10449a.21713.21713,0,0,1-.042.11524,8.11433,8.11433,0,0,1-1.13476,1.44922,6.74609,6.74609,0,0,1-2.2461,1.78515,2.71233,2.71233,0,0,1-.88281.18946,1.08007,1.08007,0,0,1-1.11231-.79883,1.29762,1.29762,0,0,1-.042-.35645,6.17373,6.17373,0,0,1,.67188-2.22656,6.78691,6.78691,0,0,1-.81934,1.05078q-.189.20947-.29394,0a.26927.26927,0,0,1-.02051-.11621.30372.30372,0,0,1,.084-.17773q1.02832-1.28175,1.61621-2.16309a.34064.34064,0,0,1,.042-.27344q.4204-1.17627.73535-1.23926Zm1.6582-2.793-.168.67187a1.37714,1.37714,0,0,1-.27246.60938q-.27393.4204-.41992.41992-.90381,0-.90332-.44043a4.40438,4.40438,0,0,1,.90332-.77735l.35645-.27343c.22363-.19532.36425-.29395.41992-.29395A.07449.07449,0,0,1,282.8291,549.98145Z" transform="translate(-46.24229 -200.36524)"/><path class="a6a43d5f-a0e1-4a90-b38e-a32bc95306a2" d="M292.02734,553.04785q0,.252-.48242.25195a6.76421,6.76421,0,0,0-1.99512,1.19727l-1.51269,1.17578a5.09457,5.09457,0,0,0,.77734,2.01563,1.05225,1.05225,0,0,0,.91407.69336,2.05864,2.05864,0,0,0,1.3125-.77735q.356-.37793,1.72168-2.12109c.06933-.084.13671-.10449.19921-.0625.06348.042.09473.084.09473.126a.34452.34452,0,0,1-.042.14648,13.81793,13.81793,0,0,1-1.93164,2.39453,2.84291,2.84291,0,0,1-1.82715.90332,1.40711,1.40711,0,0,1-.33594-.042q-1.05028-.23145-1.78515-2.43652-4.28467,4.34764-4.36817,6.13183c0,.168-.04883.25195-.14746.25195l-.10449-.042a.28558.28558,0,0,1-.084-.21,5.12948,5.12948,0,0,1,1.11329-2.74023,23.47476,23.47476,0,0,1,2.22558-2.78223,12.8281,12.8281,0,0,0,1.11328-1.23926,2.04794,2.04794,0,0,0-.29394-1.01855q-.29443-.51417-.4834-.58789a.43773.43773,0,0,0-.39844.05273,2.69429,2.69429,0,0,0-.68262.66113c-.23144.30176-.36425.47266-.39941.51465s-.08105.09766-.13672.168-.11914.14356-.18848.2207a.26239.26239,0,0,1-.2207.1045c-.07715-.00684-.11523-.04492-.11523-.11524a.375.375,0,0,1,.084-.2207q.08351-.11425.49317-.66113.41015-.54639.69336-.91407a4.8061,4.8061,0,0,1,.67187-.70312,1.12292,1.12292,0,0,1,.68262-.33594.83911.83911,0,0,1,.5459.21,1.11516,1.11516,0,0,1,.33593.41992c.05567.14063.13672.38868.24121.74512q.15821.53613.22071.72461a18.59138,18.59138,0,0,1,3.15039-2.541.89423.89423,0,0,1,.31445-.0625l.31543.0625A.47151.47151,0,0,1,292.02734,553.04785Z" transform="translate(-46.24229 -200.36524)"/><path class="a6a43d5f-a0e1-4a90-b38e-a32bc95306a2" d="M294.52637,552.77441q.52442,0,.62988.33594a.52968.52968,0,0,1-.05273.36817c-.06348.11914-.1084.21386-.13672.2832-.02832.07031-.04883.126-.0625.168q-.10548.21093-.21.39941a12.90446,12.90446,0,0,0-1.26075,3.04492,4.63137,4.63137,0,0,0-.0205.48243.6989.6989,0,0,0,.168.48339q.293.33546.83985.042a8.8975,8.8975,0,0,0,1.52246-1.17579,11.28456,11.28456,0,0,0,1.58594-1.72265.14106.14106,0,0,1,.18847-.05176c.07032.03516.10547.07031.10547.10449a.21722.21722,0,0,1-.042.11524,8.114,8.114,0,0,1-1.13477,1.44922,6.746,6.746,0,0,1-2.24609,1.78515,2.71238,2.71238,0,0,1-.88281.18946,1.08007,1.08007,0,0,1-1.11231-.79883,1.29762,1.29762,0,0,1-.042-.35645,6.17352,6.17352,0,0,1,.67188-2.22656,6.7876,6.7876,0,0,1-.81934,1.05078q-.189.20947-.29394,0a.26927.26927,0,0,1-.02051-.11621.30372.30372,0,0,1,.084-.17773q1.02833-1.28175,1.61621-2.16309a.34067.34067,0,0,1,.042-.27344q.42042-1.17627.73536-1.23926Zm1.6582-2.793-.168.67187a1.37714,1.37714,0,0,1-.27246.60938q-.27393.4204-.41992.41992-.90381,0-.90332-.44043a4.40438,4.40438,0,0,1,.90332-.77735l.35644-.27343c.22364-.19532.36426-.29395.41993-.29395A.07449.07449,0,0,1,296.18457,549.98145Z" transform="translate(-46.24229 -200.36524)"/><path class="a6a43d5f-a0e1-4a90-b38e-a32bc95306a2" d="M298.30566,558.82324a1.60577,1.60577,0,0,1-.72461-.20019,1.89,1.89,0,0,1-.66113-.56641,1.29911,1.29911,0,0,1-.27246-.78809,1.76232,1.76232,0,0,1,.18848-.79785,5.49536,5.49536,0,0,1,1.35449-1.71093,12.15583,12.15583,0,0,1,1.94238-1.418,6.75223,6.75223,0,0,1,1.59668-.73535,4.71581,4.71581,0,0,1,1.14356-.14649,1.61286,1.61286,0,0,1,.95605.2832.77292.77292,0,0,1,.39844.59864.22153.22153,0,0,1-.02051.126q-.02051.02052-.10547-.0205a1.1414,1.1414,0,0,0-1.03906-.39942,3.97982,3.97982,0,0,0-1.78516.51465,9.2599,9.2599,0,0,0-1.8789,1.291,8.24232,8.24232,0,0,0-1.292,1.56445,2.8826,2.8826,0,0,0-.55665,1.27051q0,.77783.44141.77734a2.69477,2.69477,0,0,0,1.34375-.71387,26.21487,26.21487,0,0,0,2.03711-1.84863,16.26451,16.26451,0,0,1,2.0791-2.07812,1.654,1.654,0,0,1,.6084.14648q.35742.14794.23145.35742a6.68307,6.68307,0,0,0-1.25977,3.04492,4.34039,4.34039,0,0,0-.02148.48243.6989.6989,0,0,0,.168.48339q.315.33546.86133.042a8.89711,8.89711,0,0,0,1.52246-1.17579,10.37027,10.37027,0,0,0,1.56446-1.72265.14223.14223,0,0,1,.18945-.05176c.06934.03516.10449.06641.10449.09375q0,.31494-.99707,1.376a12.35106,12.35106,0,0,1-1.52246,1.43847,3.14,3.14,0,0,1-1.82715.73536,1.05459,1.05459,0,0,1-1.07129-.79883,2.33887,2.33887,0,0,1-.0625-.56641,5.628,5.628,0,0,1,.39844-1.99512,8.2596,8.2596,0,0,0-.77734.83985,12.45178,12.45178,0,0,1-1.60645,1.5332A2.75089,2.75089,0,0,1,298.30566,558.82324Z" transform="translate(-46.24229 -200.36524)"/><path class="a6a43d5f-a0e1-4a90-b38e-a32bc95306a2" d="M102.70605,592.40625a.44381.44381,0,0,1-.10449.13672q-.05273.041-.43066.252a1.43781,1.43781,0,0,1-.68262.21c-.20312,0-.30469-.04883-.30469-.14746a.501.501,0,0,1,.042-.168q.37793-.71337,3.88476-9.68066a8.42137,8.42137,0,0,1-.96582.084.78933.78933,0,0,1-.49316-.13672.42779.42779,0,0,1-.17871-.35644q0-.22119.47265-.39941a2.25732,2.25732,0,0,1,.72461-.17872.57282.57282,0,0,1,.41992.168c.11231.11231.18848.168.23047.168h.06348l.60937-1.55371q.37794-1.05029,1.1543-2.74023a24.81744,24.81744,0,0,1,1.40723-2.69825q1.40625-2.12109,2.81445-2.12109l.50391.0625.41992.14746a1.09139,1.09139,0,0,1,.6084.97656,3.13622,3.13622,0,0,1-.33594,1.333,14.50335,14.50335,0,0,1-2.30957,3.1709,28.70459,28.70459,0,0,1-3.36035,3.25488q1.72266-.14647,2.21582-.14648c.3291,0,.5.042.51465.126,0,.05566-.13379.123-.39942.19921q-.39843.11572-3.2334.53516-2.50048,6.34278-2.541,7.2666a2.45743,2.45743,0,0,1-.09473.66113c-.0498.13282-.1084.28711-.17871.46192s-.123.30859-.15723.39941c-.03515.09082-.07324.19239-.11523.30469a1.78957,1.78957,0,0,1-.10547.24121C102.77246,592.28711,102.74121,592.34375,102.70605,592.40625Zm9.27149-16.93652a2.295,2.295,0,0,0,.35742-1.15528c0-.36328-.13379-.5459-.39941-.5459q-.79835,0-2.26758,2.0586a27.406,27.406,0,0,0-1.5332,2.415,26.68865,26.68865,0,0,0-1.72168,3.6748l-.168.33594a18.53,18.53,0,0,0,3.1289-3.1084A26.83215,26.83215,0,0,0,111.97754,575.46973Z" transform="translate(-46.24229 -200.36524)"/><path class="a6a43d5f-a0e1-4a90-b38e-a32bc95306a2" d="M114.03516,583.28223a3.0378,3.0378,0,0,0,.3789-1.19727,1.88065,1.88065,0,0,0-.09472-.66211.34379.34379,0,0,1,.084-.40918.51314.51314,0,0,1,.45117-.126q.42042.10546.41992.94531a4.20746,4.20746,0,0,1-.98632,2.20508.52163.52163,0,0,0,.58789.5664q.5669,0,1.72168-1.21777c.36425-.41992.59082-.69336.68261-.81934.09082-.126.1709-.1709.24121-.13574s.10547.06641.10547.09375a3.21548,3.21548,0,0,1-.75586,1.09277q-1.19823,1.46925-2.12109,1.46973a.88064.88064,0,0,1-.86133-.52539q-.42041.44092-.81933.81934a2.75814,2.75814,0,0,1-1.82715.69336,1.57283,1.57283,0,0,1-.94434-.27344,1.68365,1.68365,0,0,1-.73535-1.5752,4.58852,4.58852,0,0,1,.83984-2.51953,6.08693,6.08693,0,0,1,1.13477-1.32324,3.04725,3.04725,0,0,1,1.95215-.90332,1.53114,1.53114,0,0,1,.4414.06348.799.799,0,0,1,.62989.79785q0,.48339-.252.4834c-.07031-.02832-.10449-.13282-.10449-.31543q0-.37794-.4209-.37793-.73534,0-1.88965,1.34375a5.63883,5.63883,0,0,0-1.38574,2.709,2.86618,2.86618,0,0,0-.042.51465,1.45847,1.45847,0,0,0,.18848.65137.719.719,0,0,0,.7041.36718,1.91569,1.91569,0,0,0,1.123-.46191,4.90883,4.90883,0,0,0,1.09179-1.17578l-.0625-.126a.59636.59636,0,0,1,.084-.5459A.37376.37376,0,0,1,114.03516,583.28223Z" transform="translate(-46.24229 -200.36524)"/><path class="a6a43d5f-a0e1-4a90-b38e-a32bc95306a2" d="M119.832,586.11719q-1.07081,0-1.07129-1.292,0-1.292,1.84766-3.18165a2.45221,2.45221,0,0,0,.21-.23046l.14746-.21c.19531-.26563.28711-.43458.27246-.50391l-.0625-.18945c-.05664-.168-.28711-.29-.69336-.36719a5.5409,5.5409,0,0,0-.98633-.11621q-1.89111,2.66748-2.18457,3.0459-.29444.37792-.39843.31445a.1769.1769,0,0,1-.10547-.14649.505.505,0,0,1,.126-.25195,17.19744,17.19744,0,0,0,1.95313-2.96191.63687.63687,0,0,1-.37793-.17774q-.126-.13623-.02149-.46191a2.63439,2.63439,0,0,1,.64063-.87207,3.58229,3.58229,0,0,1,.93457-.73438c.26563-.12695.43359-.20312.50391-.23144a.61381.61381,0,0,1,.23144-.042q.252,0-.168.75586l-.81933,1.30175q.94482.063,1.61718.06348l.73536-.02148a1.11907,1.11907,0,0,1,.52441.09472c.1123.06348.13965.17188.084.3252a3.90327,3.90327,0,0,1-.73437,1.07129,10.55928,10.55928,0,0,0-1.89063,3.1289,2.06361,2.06361,0,0,0-.14648.69336c0,.40625.14648.6084.44043.6084a1.49439,1.49439,0,0,0,.55664-.23047,9.70751,9.70751,0,0,0,1.376-1.10254,10.34964,10.34964,0,0,0,1.55371-1.71191.15249.15249,0,0,1,.19922-.05176c.07715.03516.11621.07031.11621.10449a.21722.21722,0,0,1-.042.11524,8.20747,8.20747,0,0,1-1.13477,1.44922,10.28235,10.28235,0,0,1-1.5957,1.42773A2.611,2.611,0,0,1,119.832,586.11719Z" transform="translate(-46.24229 -200.36524)"/><path class="a6a43d5f-a0e1-4a90-b38e-a32bc95306a2" d="M128.52539,579.48047q1.13379,0,1.13379,1.09277a1.34556,1.34556,0,0,1-.31543.92383,4.246,4.246,0,0,1-1.70117,1.35449,5.73669,5.73669,0,0,1-1.99414.64063c-.19629.01367-.30176-.042-.31543-.168-.01367-.05664.00293-.0918.05273-.10547a.45519.45519,0,0,1,.11524-.02051,3.34337,3.34337,0,0,0,1.23925-.46289,6.76932,6.76932,0,0,0,2.05762-1.55371,1.25177,1.25177,0,0,0,.27344-.72461.30216.30216,0,0,0-.33594-.34668A1.7814,1.7814,0,0,0,128,580.3418a7.25549,7.25549,0,0,0-2.0791,1.60644,5.82491,5.82491,0,0,0-1.42774,2.23633,2.20866,2.20866,0,0,0-.10546.66211.9008.9008,0,0,0,.27343.61914,1.09215,1.09215,0,0,0,.83985.29395,3.90117,3.90117,0,0,0,1.44922-.33594,7.69951,7.69951,0,0,0,3.65332-2.91895c.084-.1123.16113-.13281.23144-.06347.05567.02832.084.06347.084.10547a.25592.25592,0,0,1-.0625.14648,7.5243,7.5243,0,0,1-1.59668,1.86914,5.67976,5.67976,0,0,1-3.63282,1.59668,2.372,2.372,0,0,1-2.12109-.90332,1.55,1.55,0,0,1-.23047-.86133,3.3598,3.3598,0,0,1,.27246-1.19629,6.57839,6.57839,0,0,1,2.24707-2.457A5.25194,5.25194,0,0,1,128.52539,579.48047Z" transform="translate(-46.24229 -200.36524)"/><path class="a6a43d5f-a0e1-4a90-b38e-a32bc95306a2" d="M131.46484,580.90918q0-1.00928-.58789-1.00879a1.14854,1.14854,0,0,0-.26269.03223c-.09082.02051-.13574.00293-.13574-.05274a.34475.34475,0,0,1,.126-.21,2.17516,2.17516,0,0,1,.86035-.168q.88183,0,1.10254.252a.76762.76762,0,0,1,.22071.5039,5.17393,5.17393,0,0,1-.38868,1.249c-.25878.666-.3955,1.01171-.40918,1.04a7.792,7.792,0,0,0-.56738,2.373q1.89111-2.5415,2.47852-3.1709,1.23926-1.36522,1.76367-1.86914a8.06592,8.06592,0,0,1,2.14258-1.5332,1.38066,1.38066,0,0,1,.48242-.10449,1.01,1.01,0,0,1,.94531.41992.32659.32659,0,0,1,.084.19922.51172.51172,0,0,1-.06348.2207c-.042.084-.11914.08008-.23047-.01074a1.35342,1.35342,0,0,0-.75586-.13672q-.9668,0-3.23437,2.26856a30.03881,30.03881,0,0,0-2.50977,2.93945,6.03019,6.03019,0,0,0-1.22851,2.18457c0,.11133-.1045.168-.31446.168a.51593.51593,0,0,1-.47265-.2627.90814.90814,0,0,1-.15723-.4414,2.13164,2.13164,0,0,1,.02051-.31446q.0205-.13623.41992-1.54394.39843-1.40625.50391-1.86914-.252.4204-.69239,1.02929c-.09863.11231-.17871.14356-.24219.09473-.0625-.04883-.09375-.09473-.09375-.13672a.338.338,0,0,1,.042-.14746A7.97953,7.97953,0,0,0,131.46484,580.90918Z" transform="translate(-46.24229 -200.36524)"/><path class="a6a43d5f-a0e1-4a90-b38e-a32bc95306a2" d="M141.83887,579.48047q1.13379,0,1.13379,1.09277a1.34556,1.34556,0,0,1-.31543.92383,4.246,4.246,0,0,1-1.70118,1.35449,5.73663,5.73663,0,0,1-1.99414.64063c-.19628.01367-.30175-.042-.31543-.168-.01367-.05664.00293-.0918.05274-.10547a.45513.45513,0,0,1,.11523-.02051,3.3434,3.3434,0,0,0,1.23926-.46289,6.76945,6.76945,0,0,0,2.05762-1.55371,1.25177,1.25177,0,0,0,.27344-.72461.30216.30216,0,0,0-.33594-.34668,1.78136,1.78136,0,0,0-.73535.23145,7.25522,7.25522,0,0,0-2.0791,1.60644,5.82479,5.82479,0,0,0-1.42774,2.23633,2.20867,2.20867,0,0,0-.10547.66211.90077.90077,0,0,0,.27344.61914,1.09212,1.09212,0,0,0,.83984.29395,3.90113,3.90113,0,0,0,1.44922-.33594,7.69947,7.69947,0,0,0,3.65332-2.91895c.084-.1123.16114-.13281.23145-.06347.05566.02832.084.06347.084.10547a.25592.25592,0,0,1-.0625.14648,7.52409,7.52409,0,0,1-1.59668,1.86914,5.67972,5.67972,0,0,1-3.63281,1.59668,2.372,2.372,0,0,1-2.12109-.90332,1.55,1.55,0,0,1-.23047-.86133,3.3598,3.3598,0,0,1,.27246-1.19629,6.57839,6.57839,0,0,1,2.24707-2.457A5.25194,5.25194,0,0,1,141.83887,579.48047Z" transform="translate(-46.24229 -200.36524)"/><path class="a6a43d5f-a0e1-4a90-b38e-a32bc95306a2" d="M146.459,586.11719q-1.07079,0-1.07128-1.292,0-1.292,1.84765-3.18165a2.45079,2.45079,0,0,0,.21-.23046l.14746-.21c.19532-.26563.28711-.43458.27246-.50391l-.0625-.18945c-.05664-.168-.2871-.29-.69335-.36719a5.541,5.541,0,0,0-.98633-.11621q-1.89113,2.66748-2.18457,3.0459-.29443.37792-.39844.31445a.17692.17692,0,0,1-.10547-.14649.50494.50494,0,0,1,.126-.25195,17.19738,17.19738,0,0,0,1.95312-2.96191.6369.6369,0,0,1-.37793-.17774q-.126-.13623-.02148-.46191a2.63433,2.63433,0,0,1,.64062-.87207,3.58229,3.58229,0,0,1,.93457-.73438c.26563-.12695.4336-.20312.50391-.23144a.61381.61381,0,0,1,.23144-.042q.252,0-.168.75586l-.81934,1.30175q.94482.063,1.61719.06348l.73535-.02148a1.11907,1.11907,0,0,1,.52441.09472c.11231.06348.13965.17188.084.3252a3.90359,3.90359,0,0,1-.73438,1.07129,10.559,10.559,0,0,0-1.89062,3.1289,2.06341,2.06341,0,0,0-.14649.69336c0,.40625.14649.6084.44043.6084a1.49439,1.49439,0,0,0,.55664-.23047A9.70751,9.70751,0,0,0,149,584.19531a10.34964,10.34964,0,0,0,1.55371-1.71191.15249.15249,0,0,1,.19922-.05176c.07715.03516.11621.07031.11621.10449a.21722.21722,0,0,1-.042.11524,8.20747,8.20747,0,0,1-1.13477,1.44922,10.28189,10.28189,0,0,1-1.5957,1.42773A2.611,2.611,0,0,1,146.459,586.11719Z" transform="translate(-46.24229 -200.36524)"/><path class="a6a43d5f-a0e1-4a90-b38e-a32bc95306a2" d="M152.71582,584.668v.35644a1.077,1.077,0,0,1-.23047.4834q-.23145.33546-.35742.33594-.69286,0-.69336-.33594c0-.1123.14063-.28027.41992-.5039a2.21645,2.21645,0,0,1,.72461-.46192C152.66992,584.542,152.71582,584.584,152.71582,584.668Z" transform="translate(-46.24229 -200.36524)"/><path class="a6a43d5f-a0e1-4a90-b38e-a32bc95306a2" d="M200.02393,596.12207l-.042-.33594a3.464,3.464,0,0,1,1.28077-2.625q2.2888-2.03613,7.39209-2.51953.77636-.063,1.8164-.06347a14.59792,14.59792,0,0,1,2.63574.30468,5.93291,5.93291,0,0,1,2.625,1.12305,4.33357,4.33357,0,0,1,1.6377,3.51758,6.83034,6.83034,0,0,1-1.2915,4.01172,8.825,8.825,0,0,1-3.28614,2.84472,9.31583,9.31583,0,0,1-4.26318,1.00879,5.90684,5.90684,0,0,1-3.67529-1.07129c-.01368.01367-.08057.13282-.19922.35742q-.17871.33546-.36768.6504-.96606,1.53222-1.72168.41992a2.704,2.704,0,0,1-.4414-1.55371,15.26147,15.26147,0,0,1,.18945-2.1836,1.55966,1.55966,0,0,0-.16846-.58886.41368.41368,0,0,1,.14746-.41993,1.42994,1.42994,0,0,1,.47217-.21.52447.52447,0,0,1,.41992,0q.11573.085-.05224.45215a1.64454,1.64454,0,0,0-.168.68164q0,.31641.65088.93457a3.815,3.815,0,0,0,.79785.66211q.50391-1.23926,2.14209-4.6416a1.44878,1.44878,0,0,0,.189-.56641.82267.82267,0,0,0-.042-.29394,5.02529,5.02529,0,0,1,1.3335-1.93262q1.229-1.32275,1.98437-1.32226a1.87418,1.87418,0,0,1,.73535.19921.77264.77264,0,0,1,.50391.55664c0,.084-.00733.12891-.021.13672-.01416.00684-.04931-.0039-.105-.03222a.3355.3355,0,0,0-.126-.042,2.465,2.465,0,0,0-1.58545.97657,13.73742,13.73742,0,0,0-1.81641,2.55176q-1.59668,2.73047-2.562,4.83007a4.725,4.725,0,0,0,2.835.94532,7.68475,7.68475,0,0,0,3.82178-1.0293,10.33772,10.33772,0,0,0,2.93994-2.373,6.9046,6.9046,0,0,0,1.80615-4.34668,3.86589,3.86589,0,0,0-1.24951-2.81445,5.70952,5.70952,0,0,0-3.9585-1.32324h-.25195a15.90074,15.90074,0,0,0-4.51514.7041A12.20923,12.20923,0,0,0,202.418,593.707a3.56277,3.56277,0,0,0-1.68018,2.709.97.97,0,0,0,.22071.62988,1.25279,1.25279,0,0,0,.46191.3789q.241.104.60889.23047.36695.126.48291.17871a.23556.23556,0,0,1,.13672.11524c.02783.1123-.07032.168-.29395.168A3.35859,3.35859,0,0,1,200.79,597.54a1.456,1.456,0,0,1-.78711-1.208A1.06324,1.06324,0,0,1,200.02393,596.12207Zm2.835,4.59961q0,2.83447.39892,2.835.2937,0,.83985-1.4707a.2147.2147,0,0,0,.042-.084q-.14722-.126-.61963-.61914Q203.04761,600.88916,202.85889,600.72168Z" transform="translate(-46.24229 -200.36524)"/><path class="a6a43d5f-a0e1-4a90-b38e-a32bc95306a2" d="M222.26221,596.5q1.13379,0,1.13427,1.09277a1.3432,1.3432,0,0,1-.31543.92383,4.25093,4.25093,0,0,1-1.70068,1.35449,5.74079,5.74079,0,0,1-1.99512.64063c-.19629.01367-.30127-.042-.31494-.168-.01416-.05664.00342-.0918.05225-.10547a.46175.46175,0,0,1,.11572-.02051,3.34469,3.34469,0,0,0,1.23877-.46289,6.77239,6.77239,0,0,0,2.05811-1.55371,1.24751,1.24751,0,0,0,.273-.72461.302.302,0,0,0-.33594-.34668,1.78181,1.78181,0,0,0-.73487.23145,7.26209,7.26209,0,0,0-2.0791,1.60644,5.8191,5.8191,0,0,0-1.42773,2.23633,2.20774,2.20774,0,0,0-.105.66211.90226.90226,0,0,0,.27295.61914,1.09212,1.09212,0,0,0,.83984.29395,3.90325,3.90325,0,0,0,1.44922-.33594,7.7055,7.7055,0,0,0,3.65381-2.91895c.084-.1123.16064-.13281.231-.06347.05566.02832.084.06347.084.10547a.25711.25711,0,0,1-.063.14648,7.49138,7.49138,0,0,1-1.59619,1.86914,5.67869,5.67869,0,0,1-3.63281,1.59668,2.372,2.372,0,0,1-2.1211-.90332,1.55028,1.55028,0,0,1-.23095-.86133,3.35123,3.35123,0,0,1,.27295-1.19629,6.5869,6.5869,0,0,1,2.24707-2.457A5.25561,5.25561,0,0,1,222.26221,596.5Z" transform="translate(-46.24229 -200.36524)"/><path class="a6a43d5f-a0e1-4a90-b38e-a32bc95306a2" d="M229.38086,597.99121l.105-.41992q0-.4204-.31494-.41992a4.199,4.199,0,0,0-2.352,1.34375,6.077,6.077,0,0,0-1.88965,2.709,2.29086,2.29086,0,0,0-.105.64063.83335.83335,0,0,0,.126.47265.86822.86822,0,0,0,.77685.37793,4.822,4.822,0,0,0,1.13379-.14746,6.33633,6.33633,0,0,0,2.23682-1.08105,11.605,11.605,0,0,0,1.87939-1.96387.16509.16509,0,0,1,.19971-.0625c.07666.02832.11523.06641.11523.11523a.627.627,0,0,1-.063.22071,11.0928,11.0928,0,0,1-2.11035,2.21582,5.71629,5.71629,0,0,1-2.55176,1.10254,5.263,5.263,0,0,1-.77685.0625,2.20119,2.20119,0,0,1-1.56445-.50391,1.5068,1.5068,0,0,1-.53565-1.11328,3.48823,3.48823,0,0,1,.29395-1.32227,6.5869,6.5869,0,0,1,2.24707-2.457,5.25561,5.25561,0,0,1,2.73-1.26074,1.82624,1.82624,0,0,1,.48291.06348q.58813.20947.58838.67187a1.45857,1.45857,0,0,1-.23145.71387c-.15381.2666-.26953.36035-.34619.2832A.225.225,0,0,1,229.38086,597.99121Z" transform="translate(-46.24229 -200.36524)"/><path class="a6a43d5f-a0e1-4a90-b38e-a32bc95306a2" d="M235.57568,596.5q1.13379,0,1.13428,1.09277a1.3432,1.3432,0,0,1-.31543.92383,4.251,4.251,0,0,1-1.70068,1.35449,5.74079,5.74079,0,0,1-1.99512.64063c-.19629.01367-.30127-.042-.31494-.168-.01416-.05664.00342-.0918.05225-.10547a.46167.46167,0,0,1,.11572-.02051,3.34469,3.34469,0,0,0,1.23877-.46289,6.77221,6.77221,0,0,0,2.0581-1.55371,1.24751,1.24751,0,0,0,.27295-.72461.302.302,0,0,0-.33594-.34668,1.78182,1.78182,0,0,0-.73486.23145,7.26209,7.26209,0,0,0-2.0791,1.60644,5.819,5.819,0,0,0-1.42773,2.23633,2.20745,2.20745,0,0,0-.105.66211.9023.9023,0,0,0,.27295.61914,1.09215,1.09215,0,0,0,.83985.29395,3.90325,3.90325,0,0,0,1.44922-.33594,7.7055,7.7055,0,0,0,3.65381-2.91895c.084-.1123.16064-.13281.231-.06347.05567.02832.084.06347.084.10547a.25711.25711,0,0,1-.063.14648,7.49138,7.49138,0,0,1-1.59619,1.86914,5.67874,5.67874,0,0,1-3.63282,1.59668,2.372,2.372,0,0,1-2.12109-.90332,1.5502,1.5502,0,0,1-.231-.86133,3.35123,3.35123,0,0,1,.273-1.19629,6.587,6.587,0,0,1,2.24707-2.457A5.25564,5.25564,0,0,1,235.57568,596.5Z" transform="translate(-46.24229 -200.36524)"/><path class="a6a43d5f-a0e1-4a90-b38e-a32bc95306a2" d="M240.17432,597.15137a2.14365,2.14365,0,0,1-.231.64062q-.23145.49365-1.32275,3.3916.75585-.92432,1.91113-2.14257,2.33056-2.436,3.21289-2.43555a.72111.72111,0,0,1,.36719.10449c.11914.07031.17871.22852.17871.47266a1.82948,1.82948,0,0,1-.231.81933q-.23145.45117-.5249,1.10254a9.03413,9.03413,0,0,1-.39942.81836,10.398,10.398,0,0,1,2.66748-1.94238,4.41787,4.41787,0,0,1,1.19678-.3457c.1958,0,.294.06933.294.21a1.81154,1.81154,0,0,1-.31494.6084,8.54631,8.54631,0,0,0-.69288,1.42773,6.16078,6.16078,0,0,0-.41992,1.32324,6.08673,6.08673,0,0,0-.042.67188.69889.69889,0,0,0,.168.4834q.31494.33544.86084.042a8.89784,8.89784,0,0,0,1.52246-1.17578,10.41365,10.41365,0,0,0,1.56445-1.72266.15311.15311,0,0,1,.19971-.05176c.07666.03516.11523.07031.11523.10449a.21315.21315,0,0,1-.042.11524,8.14578,8.14578,0,0,1-1.13379,1.44922,6.752,6.752,0,0,1-2.24707,1.78515,1.84542,1.84542,0,0,1-1.42822.084,1.102,1.102,0,0,1-.5459-.56738,1.97262,1.97262,0,0,1-.105-.62989,5.35178,5.35178,0,0,1,.38867-1.97363,8.67339,8.67339,0,0,1,.61914-1.34375,4.88411,4.88411,0,0,0-1.36474.83984,19.0706,19.0706,0,0,0-1.38623,1.32325l-.41992.46191a.79006.79006,0,0,1-.66114.52441q-.47315.063-.45166-.31445a7.14484,7.14484,0,0,1,.77686-1.78516,8.925,8.925,0,0,0,.73486-1.54394c0-.10449-.05566-.15723-.168-.15723q-.37793,0-1.36474.86133a19.803,19.803,0,0,0-1.92139,2.29883,16.70314,16.70314,0,0,1-1.43848,1.7959,3.32081,3.32081,0,0,1-.94531.37793c-.126,0-.189-.02051-.189-.0625a.485.485,0,0,1,.063-.18946q.063-.126,1.28125-3.65429a6.78044,6.78044,0,0,1-.84033,1.09277q-.16771.189-.168-.07422a.712.712,0,0,1,.147-.45117,14.687,14.687,0,0,0,1.38623-2.09961q.126-.73535.5039-.86133a.87612.87612,0,0,1,.53565,0C240.07275,596.91309,240.17432,597.01172,240.17432,597.15137Z" transform="translate(-46.24229 -200.36524)"/><path class="a6a43d5f-a0e1-4a90-b38e-a32bc95306a2" d="M255.56787,596.94141a1.62322,1.62322,0,0,1,.90283.38867,1.31453,1.31453,0,0,1,.58789.7666,1.9812,1.9812,0,0,1,.02149.27246,3.22406,3.22406,0,0,1-.92432,2.02637,9.73418,9.73418,0,0,1-2.0791,1.83789,6.27509,6.27509,0,0,1-3.54883,1.21777,2.81132,2.81132,0,0,1-1.13428-.18847q-.33618-.16846.84034-.168a6.20148,6.20148,0,0,0,3.31787-1.5127,5.47971,5.47971,0,0,0,2.394-3.31738,1.33454,1.33454,0,0,0-.01074-.59863.35041.35041,0,0,0-.36719-.30469,4.36912,4.36912,0,0,0-2.478,1.32324,8.4989,8.4989,0,0,0-1.33349,1.46973,2.82013,2.82013,0,0,0-.68262,1.51172.56044.56044,0,0,0,.03125.17871.45474.45474,0,0,1-.07324.30468q-.27319.54639-.77686-.06347a1.73658,1.73658,0,0,1-.12646-.65039,7.69079,7.69079,0,0,1,.29443-2.03711,4.54313,4.54313,0,0,0-.36767.51465,7.18519,7.18519,0,0,1-.66163.85058q-.189.20947-.29394,0a.26156.26156,0,0,1-.021-.11621.30685.30685,0,0,1,.084-.17773,17.95756,17.95756,0,0,0,1.91113-2.64649q.37793-1.05029,1.15479-2.74023a22.166,22.166,0,0,1,1.42822-2.69824q1.34326-2.12111,2.772-2.1211a2.34058,2.34058,0,0,1,.52539.0625l.41992.14746a1.04857,1.04857,0,0,1,.6084.91309,2.66438,2.66438,0,0,1-.33594,1.208,11.00137,11.00137,0,0,1-2.352,2.80273,30.798,30.798,0,0,1-3.50683,2.86719,6.637,6.637,0,0,0-.65088,1.97363,11.18549,11.18549,0,0,1,2.02637-2.22558A3.765,3.765,0,0,1,255.56787,596.94141Zm-.67236-1.88965q2.499-2.521,2.499-3.73828,0-.50391-.37793-.50391a1.52,1.52,0,0,0-.79785.37793q-2.16357,1.6582-4.2002,6.2373A19.39335,19.39335,0,0,0,254.89551,595.05176Z" transform="translate(-46.24229 -200.36524)"/><path class="a6a43d5f-a0e1-4a90-b38e-a32bc95306a2" d="M262.72852,596.5q1.13379,0,1.13378,1.09277a1.34556,1.34556,0,0,1-.31542.92383,4.246,4.246,0,0,1-1.70118,1.35449,5.73669,5.73669,0,0,1-1.99414.64063c-.19629.01367-.30176-.042-.31543-.168-.01367-.05664.00293-.0918.05274-.10547a.45513.45513,0,0,1,.11523-.02051,3.3434,3.3434,0,0,0,1.23926-.46289,6.76945,6.76945,0,0,0,2.05762-1.55371,1.25175,1.25175,0,0,0,.27343-.72461.30215.30215,0,0,0-.33593-.34668,1.78136,1.78136,0,0,0-.73535.23145,7.25539,7.25539,0,0,0-2.07911,1.60644,5.82482,5.82482,0,0,0-1.42773,2.23633,2.20867,2.20867,0,0,0-.10547.66211.90077.90077,0,0,0,.27344.61914,1.09212,1.09212,0,0,0,.83984.29395,3.90117,3.90117,0,0,0,1.44922-.33594,7.69947,7.69947,0,0,0,3.65332-2.91895c.084-.1123.16113-.13281.23145-.06347.05566.02832.084.06347.084.10547a.25592.25592,0,0,1-.0625.14648,7.52391,7.52391,0,0,1-1.59668,1.86914,5.67972,5.67972,0,0,1-3.63281,1.59668,2.372,2.372,0,0,1-2.1211-.90332,1.55009,1.55009,0,0,1-.23046-.86133,3.35984,3.35984,0,0,1,.27246-1.19629,6.57854,6.57854,0,0,1,2.24707-2.457A5.25191,5.25191,0,0,1,262.72852,596.5Z" transform="translate(-46.24229 -200.36524)"/><path class="a6a43d5f-a0e1-4a90-b38e-a32bc95306a2" d="M267.34863,603.13672q-1.07079,0-1.07129-1.292,0-1.292,1.84766-3.18164a2.4519,2.4519,0,0,0,.21-.23047l.14746-.21c.19531-.26563.28711-.43457.27246-.50391l-.0625-.18945c-.05664-.168-.28711-.29-.69336-.36719a5.5409,5.5409,0,0,0-.98632-.11621q-1.89112,2.66748-2.18457,3.0459-.29443.37792-.39844.31445a.17692.17692,0,0,1-.10547-.14648.505.505,0,0,1,.126-.252,17.198,17.198,0,0,0,1.95312-2.96191.6369.6369,0,0,1-.37793-.17774q-.126-.13623-.02148-.46191a2.63433,2.63433,0,0,1,.64062-.87207,3.58229,3.58229,0,0,1,.93457-.73438c.26563-.12695.4336-.20312.50391-.23144a.61381.61381,0,0,1,.23144-.042q.252,0-.168.75586l-.81933,1.30175q.94482.063,1.61719.06348l.73535-.02148a1.11907,1.11907,0,0,1,.52441.09472c.11231.06348.13965.17188.084.3252a3.90359,3.90359,0,0,1-.73438,1.07129,10.55916,10.55916,0,0,0-1.89062,3.1289,2.06345,2.06345,0,0,0-.14649.69336c0,.40625.14649.6084.44043.6084a1.49439,1.49439,0,0,0,.55664-.23047,9.70675,9.70675,0,0,0,1.376-1.10254,10.34964,10.34964,0,0,0,1.55371-1.71191.1525.1525,0,0,1,.19922-.05176c.07715.03516.11621.07031.11621.10449a.21722.21722,0,0,1-.042.11524,8.20747,8.20747,0,0,1-1.13477,1.44922,10.28189,10.28189,0,0,1-1.5957,1.42773A2.611,2.611,0,0,1,267.34863,603.13672Z" transform="translate(-46.24229 -200.36524)"/><path class="a6a43d5f-a0e1-4a90-b38e-a32bc95306a2" d="M278.14258,602.7373a1.1328,1.1328,0,0,1-.67285.168c-.294,0-.44043-.04882-.44043-.14648q0-.48341,3.31836-4.52637,3.31786-4.0415,4.70312-5.44922a24.94436,24.94436,0,0,0-4.05273-.29394h-.58789q-2.373.085-2.81348,1.78515-.085.37794-.27344.252a.18927.18927,0,0,1-.084-.21,3.15024,3.15024,0,0,1,1.13379-2.19434,4.3962,4.3962,0,0,1,2.33105-.51465q.50391,0,2.60449.17871,2.09913.17871,2.43555.24121a1.3031,1.3031,0,0,1,.73535-.62988.99548.99548,0,0,1,.18848-.02148c.168,0,.25195.09863.25195.29394a.96526.96526,0,0,1-.24121.59863,1.64038,1.64038,0,0,1-.59863.47266q-.16847.16846-1.56445,1.72168-1.396,1.55566-2.63575,3.02441A35.40978,35.40978,0,0,0,278.14258,602.7373Z" transform="translate(-46.24229 -200.36524)"/><path class="a6a43d5f-a0e1-4a90-b38e-a32bc95306a2" d="M286.87793,602.42188a3.33076,3.33076,0,0,1-.92383,1.51269q-1.13379,1.46923-1.42773,1.46973c-.07032,0-.10547-.05567-.10547-.168a6.47013,6.47013,0,0,1,.58789-.72461,3.69333,3.69333,0,0,0,.7666-1.25977,1.09514,1.09514,0,0,0,.03125-.83007q-.35742-.69288.52539-.69239a.45742.45742,0,0,1,.38867.24121A.842.842,0,0,1,286.87793,602.42188Z" transform="translate(-46.24229 -200.36524)"/><path class="a6a43d5f-a0e1-4a90-b38e-a32bc95306a2" d="M300.12891,602.27539a6.24787,6.24787,0,0,0,.92382.0625,7.66384,7.66384,0,0,0,1.0918-.084q1.1543-.167,1.30176-.65039c.05566-.168.14746-.249.27344-.24122.126.00684.1709.07618.13574.21a.92392.92392,0,0,1-.126.30371,1.582,1.582,0,0,1-.18847.2207c-.07715.07715-.14063.13672-.18946.17871s-.126.10156-.23047.17871a1.97815,1.97815,0,0,0-.19921.15723,3.46112,3.46112,0,0,1-2.10059.58789,6.27223,6.27223,0,0,1-1.13379-.10449q-.56689-.10548-2.457-.59864-1.88966-.49365-2.20508-.62011a4.54594,4.54594,0,0,1-.90332.79882,1.89929,1.89929,0,0,1-.67187.35645c-.09766,0-.14649-.05566-.14649-.168q0-1.65821,1.91113-1.65918h.23047q6.50978-3.84228,7.53907-6.32031a2.2444,2.2444,0,0,0,.23144-.84082,1.78039,1.78039,0,0,0-.77734-1.46973,2.3146,2.3146,0,0,0-1.44922-.41992,8.20666,8.20666,0,0,0-1.76367.18945,10.74551,10.74551,0,0,0-1.70118.67188q-1.28174.67236-1.28125,1.30176a.94171.94171,0,0,0,.09473.37793c.06348.13964.05566.23437-.02051.2832-.07715.0498-.165.02441-.26269-.07324a1.08306,1.08306,0,0,1-.39942-.8291,1.54766,1.54766,0,0,1,.59864-1.04,4.68546,4.68546,0,0,1,1.48047-.92383,7.92617,7.92617,0,0,1,3.1289-.69336,6.59712,6.59712,0,0,1,1.95313.27344,2.278,2.278,0,0,1,1.80566,1.88964.7543.7543,0,0,1,.02148.18946,4.58819,4.58819,0,0,1-1.72167,2.98144,32.018,32.018,0,0,1-6.78321,4.51563,18.43815,18.43815,0,0,1,2.1836.53515A17.63487,17.63487,0,0,0,300.12891,602.27539Z" transform="translate(-46.24229 -200.36524)"/><path class="a6a43d5f-a0e1-4a90-b38e-a32bc95306a2" d="M306.32324,602.2959a4.56449,4.56449,0,0,1-1.09179-3.06543,8.27693,8.27693,0,0,1,.48242-2.583,6.99652,6.99652,0,0,1,4.01172-4.20019,5.2314,5.2314,0,0,1,2.16211-.56739c.1123,0,.26269.00782.45214.02149a1.01121,1.01121,0,0,1,.57715.27343,1.0621,1.0621,0,0,1,.36719.57715c.0498.2168.02441.36719-.07324.45118a.1197.1197,0,0,1-.084-.042,1.20506,1.20506,0,0,0-1.09179-.48242,4.44235,4.44235,0,0,0-2.43555.8291,8.05169,8.05169,0,0,0-2.15332,2.08985,7.13285,7.13285,0,0,0-1.18652,2.91894,8.48291,8.48291,0,0,0-.084,1.30176,3.86816,3.86816,0,0,0,.41992,1.65918,2.21276,2.21276,0,0,0,2.19532,1.30176,4.90825,4.90825,0,0,0,3.20214-1.417,7.80626,7.80626,0,0,0,2.26758-3.20312,9.11354,9.11354,0,0,0,.65137-3.02344,3.29791,3.29791,0,0,0-.98731-2.5625,3.48242,3.48242,0,0,0-2.541-.88183q-.48341,0-.59863-.126c-.07618-.084-.042-.16406.10547-.24121a1.04682,1.04682,0,0,1,.49316-.11621,4.62974,4.62974,0,0,1,2.94043,1.11328,4.42661,4.42661,0,0,1,1.51172,3.57031,7.05318,7.05318,0,0,1-.5459,2.625,8.28873,8.28873,0,0,1-2.63574,3.50684,5.80847,5.80847,0,0,1-3.55957,1.32324A3.53671,3.53671,0,0,1,306.32324,602.2959Z" transform="translate(-46.24229 -200.36524)"/><path class="a6a43d5f-a0e1-4a90-b38e-a32bc95306a2" d="M323.94238,602.27539a6.248,6.248,0,0,0,.92383.0625,7.66384,7.66384,0,0,0,1.0918-.084q1.15429-.167,1.30176-.65039c.05566-.168.14746-.249.27343-.24122.126.00684.1709.07618.13575.21a.92414.92414,0,0,1-.126.30371,1.58147,1.58147,0,0,1-.18848.2207c-.07715.07715-.14062.13672-.18945.17871s-.126.10156-.23047.17871a1.97872,1.97872,0,0,0-.19922.15723,3.46106,3.46106,0,0,1-2.10058.58789,6.27223,6.27223,0,0,1-1.13379-.10449q-.5669-.10548-2.457-.59864-1.88966-.49365-2.20508-.62011a4.5465,4.5465,0,0,1-.90332.79882,1.89922,1.89922,0,0,1-.67188.35645c-.09765,0-.14648-.05566-.14648-.168q0-1.65821,1.91113-1.65918h.23047q6.50976-3.84228,7.53906-6.32031a2.24426,2.24426,0,0,0,.23145-.84082,1.78037,1.78037,0,0,0-.77735-1.46973,2.31456,2.31456,0,0,0-1.44922-.41992,8.20673,8.20673,0,0,0-1.76367.18945,10.7454,10.7454,0,0,0-1.70117.67188q-1.28174.67236-1.28125,1.30176a.94171.94171,0,0,0,.09473.37793c.06347.13964.05566.23437-.02051.2832-.07715.0498-.165.02441-.2627-.07324a1.08305,1.08305,0,0,1-.39941-.8291,1.54768,1.54768,0,0,1,.59863-1.04,4.68568,4.68568,0,0,1,1.48047-.92383,7.92626,7.92626,0,0,1,3.12891-.69336,6.59706,6.59706,0,0,1,1.95312.27344,2.278,2.278,0,0,1,1.80567,1.88964.7543.7543,0,0,1,.02148.18946,4.58821,4.58821,0,0,1-1.72168,2.98144,32.01783,32.01783,0,0,1-6.7832,4.51563,18.43808,18.43808,0,0,1,2.18359.53515A17.63625,17.63625,0,0,0,323.94238,602.27539Z" transform="translate(-46.24229 -200.36524)"/><path class="a6a43d5f-a0e1-4a90-b38e-a32bc95306a2" d="M335.34473,596.20605a3.97225,3.97225,0,0,0,2.17382-.65039,1.92358,1.92358,0,0,0,1.01758-1.65918,1.52176,1.52176,0,0,0-.59765-1.19726,2.44564,2.44564,0,0,0-1.59668-.51465,4.46914,4.46914,0,0,0-2.03711.50391,1.57345,1.57345,0,0,0-1.03906,1.418q0,.189-.23145.27246c-.15332.05664-.23047,0-.23047-.168a2.229,2.229,0,0,1,1.11328-1.97364,5.11945,5.11945,0,0,1,2.81348-.71386,4.13174,4.13174,0,0,1,1.91113.41992,1.95292,1.95292,0,0,1,1.0918,1.80566,2.56042,2.56042,0,0,1-.46192,1.38672,3.58567,3.58567,0,0,1-1.97363,1.40625,2.01138,2.01138,0,0,1,1.36524.58789,1.9362,1.9362,0,0,1,.54589,1.42871,3.8108,3.8108,0,0,1-1.01855,2.583,6.44472,6.44472,0,0,1-2.44727,1.73242,7.52,7.52,0,0,1-2.835.57715q-3.04393,0-3.06543-2.03711a1.81959,1.81959,0,0,1,.14649-.69238c.09765-.23828.23144-.35742.39941-.35742a.92127.92127,0,0,1,.18848.02148.35073.35073,0,0,1,.21094.37793,1.70185,1.70185,0,0,0-.10547.65039,1.47209,1.47209,0,0,0,.7666,1.22852,2.92969,2.92969,0,0,0,1.501.41015,5.33225,5.33225,0,0,0,3.41308-1.39648,4.07816,4.07816,0,0,0,1.627-3.18164,1.5237,1.5237,0,0,0-.45117-1.082,2.77766,2.77766,0,0,0-1.333-.70313,8.21234,8.21234,0,0,0-.97656.13672,5.90562,5.90562,0,0,1-.78808.11524c-.36426,0-.58789-.08692-.67188-.2627a.37.37,0,0,1,.05274-.45117.636.636,0,0,1,.60839-.10547A4.71927,4.71927,0,0,0,335.34473,596.20605Z" transform="translate(-46.24229 -200.36524)"/><path class="a7f78e41-5f74-4ae2-b0b3-0931cad73d42" d="M161.6875,239.65039q.4292-6.35889,6.35938-6.70312a6.92559,6.92559,0,0,1,5.24218,1.80468,1.2903,1.2903,0,0,0,.51563.42969h.17187a.24452.24452,0,0,0,.08594.17188q-.68847,1.97754-1.89062.85937a4.49115,4.49115,0,0,0-4.125-2.32031q-4.46925.43066-4.8125,5.75781.17138,4.38282,4.89843,4.64063a4.69964,4.69964,0,0,0,4.64063-3.60938,2.15447,2.15447,0,0,0-.08594-.77344.27493.27493,0,0,1,.17188-.25781,11.23935,11.23935,0,0,1,1.71875,1.20313v.34375q-1.46191,4.04-6.44532,4.125Q161.85889,245.23731,161.6875,239.65039Z" transform="translate(-46.24229 -200.36524)"/><path class="a7f78e41-5f74-4ae2-b0b3-0931cad73d42" d="M176.38281,233.97852q-.08642-.42921.51563-.60157,1.11621.17286,1.375.85938a3.85659,3.85659,0,0,1-.17188,1.03125v.17187a16.77809,16.77809,0,0,0-.25781,2.14844q0,1.28907.08594,3.09375a12.45827,12.45827,0,0,0,.42969,3.35156q-.08643,1.11768-.85938,1.28907a1.2257,1.2257,0,0,1-.85937-1.11719v-1.11719q.17138-2.3203.17187-3.26562,0-2.32032-.08594-3.69532A9.93172,9.93172,0,0,0,176.38281,233.97852Z" transform="translate(-46.24229 -200.36524)"/><path class="a7f78e41-5f74-4ae2-b0b3-0931cad73d42" d="M181.71094,234.752q-1.03125,0-1.03125-1.11718a1.04494,1.04494,0,0,1,1.03125-1.20313,1.315,1.315,0,0,1,1.11719,1.20313Q182.7417,234.75244,181.71094,234.752Zm-.85938,1.375a.552.552,0,0,1,.42969-.42968,2.25431,2.25431,0,0,1,1.46094.85937v.34375a9.38031,9.38031,0,0,0-.17188,1.54688q-.08642,1.37548-.08593,2.49218a25.22738,25.22738,0,0,0,.25781,3.00782,1.153,1.153,0,0,1-.85938,1.375.80757.80757,0,0,1-.77343-.77344q0-.085.08593-1.11719.085-1.80468.17188-2.49219A22.68243,22.68243,0,0,0,180.85156,236.127Z" transform="translate(-46.24229 -200.36524)"/><path class="a7f78e41-5f74-4ae2-b0b3-0931cad73d42" d="M185.14844,235.7832a.67118.67118,0,0,1,.60156-.60156q.94482.17286,1.03125.94531a1.84971,1.84971,0,0,0-.17187,1.28907,5.60978,5.60978,0,0,1,3.86718-1.71875q4.812.2578,4.98438,4.72656-.17286,4.72705-4.98438,4.89844a5.43163,5.43163,0,0,1-3.86718-1.54688,13.16069,13.16069,0,0,0,.17187,3.4375,1.37035,1.37035,0,0,1-.94531,1.11719q-.68849,0-.60156-.6875A92.35135,92.35135,0,0,0,185.14844,235.7832Zm1.46094,3.00782v3.69531a4.97463,4.97463,0,0,0,3.86718,1.63281q3.43653,0,3.69532-3.69531-.34425-3.52295-3.69532-3.69531A4.74052,4.74052,0,0,0,186.60938,238.791Z" transform="translate(-46.24229 -200.36524)"/><path class="a7f78e41-5f74-4ae2-b0b3-0931cad73d42" d="M197.69531,243.68945q.17139-2.57812.08594-5.32812a46.10424,46.10424,0,0,0-.25781-5.07031q0-.42921.77344-.60157a1.92237,1.92237,0,0,1,1.03125.77344v.42969q-.60205.85986-.42969,3.52344a5.92919,5.92919,0,0,1,3.69531-1.71875q4.72558.2578,4.98438,4.89843-.17286,4.64063-5.07032,4.72657a4.66161,4.66161,0,0,1-3.4375-1.375,2.27291,2.27291,0,0,1-.42968,1.375h-.25782A1.402,1.402,0,0,1,197.69531,243.68945Zm1.28907-4.72656v3.52344a5.02264,5.02264,0,0,0,3.52343,1.89062q3.69433-.34277,3.69532-3.78125-.08643-3.60937-3.52344-3.86718A4.45173,4.45173,0,0,0,198.98438,238.96289Z" transform="translate(-46.24229 -200.36524)"/><path class="a7f78e41-5f74-4ae2-b0b3-0931cad73d42" d="M213.07813,235.61133q.085.08643.42968-.25781a.88885.88885,0,0,1,.34375-.17188,1.97161,1.97161,0,0,0,1.11719.34375q4.125,1.11768,4.29688,4.98438-.34425,4.55566-5.24219,4.72656-4.72705-.25782-5.07031-4.72656Q209.38233,236.29981,213.07813,235.61133Zm4.98437,4.89844q-.17284-3.60937-3.86719-3.78125-4.04.17284-4.03906,3.78125.17139,3.35155,3.86719,3.60937Q217.71778,244.03418,218.0625,240.50977Z" transform="translate(-46.24229 -200.36524)"/><path class="a7f78e41-5f74-4ae2-b0b3-0931cad73d42" d="M229.23438,244.54883v-.94531a5.20063,5.20063,0,0,1-3.86719,1.63281q-4.46923-.25782-4.55469-4.55469.25782-4.64062,4.64063-4.89844a5.74342,5.74342,0,0,1,3.69531,1.46094q-.08643-.51562-.17188-1.03125,0-.687.42969-.77344a1.55038,1.55038,0,0,1,1.03125,1.11719,18.79525,18.79525,0,0,0-.17187,3.69531,16.43086,16.43086,0,0,0,.60156,3.52344,1.135,1.135,0,0,1-1.11719,1.20313C229.40625,244.97852,229.23438,244.83594,229.23438,244.54883Zm0-2.14844-.17188-3.4375a3.8291,3.8291,0,0,0-3.60937-2.23437q-3.18018.43066-3.52344,3.95312a3.44969,3.44969,0,0,0,3.4375,3.60938A5.554,5.554,0,0,0,229.23438,242.40039Z" transform="translate(-46.24229 -200.36524)"/><path class="a7f78e41-5f74-4ae2-b0b3-0931cad73d42" d="M233.44531,236.55664v-.34375a1.58666,1.58666,0,0,1,1.11719-.51562c.11426-.05664.28613,0,.51563.17187a9.33529,9.33529,0,0,1-.08594.94531,3.46174,3.46174,0,0,0,0,1.54688,5.02708,5.02708,0,0,1,3.86719-2.23438,4.3344,4.3344,0,0,1,2.57812.85938.94714.94714,0,0,1,0,1.20312q-.43067.60206-.85937.08594a3.98446,3.98446,0,0,0-1.80469-1.03125,4.77929,4.77929,0,0,0-3.69531,2.40625,17.62754,17.62754,0,0,0,.25781,4.29688c0,.11523.02832.17187.08594.17187q-.08643,1.03125-.85938,1.20313-.94629-.085-.85937-.85938.085-1.374.17187-3.00781-.08643-1.28907-.17187-2.66406A17.4463,17.4463,0,0,0,233.44531,236.55664Z" transform="translate(-46.24229 -200.36524)"/><path class="a7f78e41-5f74-4ae2-b0b3-0931cad73d42" d="M250.97656,233.11914a.55009.55009,0,0,1,.25782-.34375,2.44842,2.44842,0,0,1,1.54687.6875.52277.52277,0,0,1,0,.6875,1.97878,1.97878,0,0,0-.25781.77344q-.17286,3.00879-.08594,5.24219a38.379,38.379,0,0,0,.17188,3.95312,1.26821,1.26821,0,0,1-.60157,1.20313q-.43067,0-.77343-.60157v-.6875a5.6184,5.6184,0,0,1-3.69532,1.20313q-4.98486-.25782-5.24218-4.64063.4292-4.64062,5.32812-4.98437a6.59683,6.59683,0,0,1,3.78125,1.63281A14.47093,14.47093,0,0,0,250.97656,233.11914Zm.34375,9.02344a23.67889,23.67889,0,0,1,.08594-3.09375,4.5947,4.5947,0,0,0-3.78125-2.40625,4.11739,4.11739,0,0,0-3.95312,3.95312q.17138,3.438,3.86718,3.60938Q250.5464,243.8623,251.32031,242.14258Z" transform="translate(-46.24229 -200.36524)"/></svg>