<?xml version="1.0" encoding="utf-8"?>
<!-- Generator: Adobe Illustrator 24.2.1, SVG Export Plug-In . SVG Version: 6.00 Build 0)  -->
<svg version="1.1" id="图层_1" xmlns="http://www.w3.org/2000/svg" xmlns:xlink="http://www.w3.org/1999/xlink" x="0px" y="0px"
	 viewBox="0 0 595.28 841.89" style="enable-background:new 0 0 595.28 841.89;" xml:space="preserve">
<style type="text/css">
	.st0{fill:#65C2C2;}
	.st1{fill:none;stroke:#00A0E9;stroke-width:20;stroke-miterlimit:10;}
	.st2{fill:none;stroke:#009944;stroke-width:20;stroke-miterlimit:10;}
	.st3{fill:#13AE67;}
	.st4{fill:#1D2088;}
	.st5{fill:none;stroke:#F39800;stroke-width:20;stroke-miterlimit:10;}
	.st6{fill:#F8B62D;}
	.st7{stroke:#FFF100;stroke-width:3;stroke-miterlimit:10;}
	.st8{fill:#12335F;}
	.st9{fill:#040000;}
</style>
<path class="st0" d="M333.13,615.3H85.99c-13.07,0-23.67-10.6-23.67-23.67V252.31c0-13.07,10.6-23.67,23.67-23.67h247.13
	c13.07,0,23.67,10.6,23.67,23.67v339.32C356.79,604.7,346.2,615.3,333.13,615.3z"/>
<path class="st0" d="M243.57,215.26h-79.27c-6,0-10.87,4.87-10.87,10.87v20.37c0,6,4.87,10.87,10.87,10.87h79.27
	c6,0,10.87-4.87,10.87-10.87v-20.37C254.44,220.13,249.58,215.26,243.57,215.26z"/>
<path class="st1" d="M266.82,238.57l68.09,0c12.09,0,21.88,9.8,21.88,21.88v139.09"/>
<path class="st1" d="M356.79,496.85v100.43c0,12.09-9.8,21.88-21.88,21.88H78.13c-12.09,0-21.88-9.8-21.88-21.88V260.46
	c0-12.09,9.8-21.88,21.88-21.88l68.09,0"/>
<path class="st1" d="M238.62,266.78h-64.2c-15.51,0-28.21-12.69-28.21-28.21v0c0-15.51,12.69-28.21,28.21-28.21h64.2
	c15.51,0,28.21,12.69,28.21,28.21v0C266.82,254.09,254.13,266.78,238.62,266.78z"/>
<polyline class="st2" points="339.96,420.94 256.8,420.94 309.81,378.15 "/>
<line class="st2" x1="457.82" y1="420.94" x2="366.39" y2="420.94"/>
<g>
	<path class="st3" d="M374.64,390.76l12.8-1.92H390l14.08,1.92v5.12h-29.44V390.76z M412.79,309.48h7.68l29.44,86.4h-11.9
		l-25.73-76.68h2.94l-26.11,76.68h-6.02L412.79,309.48z M397.81,361.96h34.56l2.05,5.89h-38.66L397.81,361.96z M423.03,390.76
		l16.13-1.92h2.56l15.87,1.92v5.12h-34.56V390.76z"/>
</g>
<g>
	<path class="st4" d="M71.29,381.76l-0.48-3.82c0.63-6.69,4.5-13.3,11.59-19.84c7.09-6.53,16.05-12.75,26.89-18.64
		c10.83-5.89,28.04-10.83,51.62-14.82c13.38-2.07,24.58-3.11,33.58-3.11c9,0,16.93,0.76,23.78,2.27c6.85,1.52,12.51,4.5,16.97,8.96
		c4.46,4.46,6.69,9.76,6.69,15.89c0,6.14-2.59,11.91-7.77,17.33c-5.18,5.42-11.67,9.56-19.48,12.43
		c-15.14,5.58-29.64,8.69-43.5,9.32c6.85,4.15,12.51,7.77,16.97,10.87c4.46,3.11,9.24,7.21,14.34,12.31c5.1,5.1,8.37,9.48,9.8,13.14
		c1.43,3.67,2.15,6.93,2.15,9.8c0,9.4-3.58,18.4-10.76,27.01c-4.78,5.89-11.43,10.59-19.96,14.1c-8.53,3.5-17.57,5.26-27.13,5.26
		c-20.4,0-31.55-7.17-33.46-21.51c-0.32-0.32-0.48-0.8-0.48-1.43c-6.06,9.72-11.08,14.58-15.06,14.58c-1.12,0-2.91-0.28-5.38-0.84
		c-2.47-0.56-3.75-1.16-3.82-1.79c-0.08-0.64-0.12-1.99-0.12-4.06c0-2.07,1.51-7.05,4.54-14.94c3.02-7.89,6.45-15.66,10.28-23.3
		c7.49-14.34,14.9-28.2,22.23-41.59c1.27-2.87,1.91-5.02,1.91-6.45s-0.08-2.55-0.24-3.35c0.63-4.46,4.5-10.31,11.59-17.57
		c7.09-7.25,13.5-10.87,19.24-10.87c1.91,0,4.46,0.72,7.65,2.15c3.19,1.43,5.1,3.43,5.74,5.98c0.16,1.12,0.2,1.79,0.12,2.03
		c-0.08,0.24-0.52,0.2-1.31-0.12c-0.8-0.32-1.28-0.48-1.43-0.48c-5.1,0-11.2,3.79-18.28,11.35c-7.09,7.57-13.9,16.85-20.43,27.84
		c-13.54,22.31-23.27,40.63-29.16,54.97c-1.28,3.19-1.91,5.66-1.91,7.41c0,2.39,1.03,3.58,3.11,3.58c2.07,0,4.86-2.19,8.37-6.57
		c3.5-4.38,5.98-6.53,7.41-6.45c1.43,0.08,2.59,0.52,3.47,1.31c0.87,0.8,1.47,1.64,1.79,2.51c0.32,0.88,0.56,2.11,0.72,3.7
		c0.16,1.59,0.32,2.63,0.48,3.11c2.55,11.31,10.59,16.97,24.14,16.97c0.32,0,0.63,0,0.96,0c10.99,0,20.39-2.55,28.2-7.65
		c8.6-5.74,12.91-12.87,12.91-21.39c0-8.52-3.98-17.48-11.95-26.89c-2.55-2.87-6.3-6.45-11.23-10.75
		c-10.52-9.08-15.93-14.9-16.25-17.45c-0.32-2.55,0.75-4.66,3.23-6.33c2.47-1.67,4.74-2.51,6.81-2.51c7.8,0,18.48-2.79,32.03-8.36
		c19.92-8.13,30.59-17.13,32.03-27.01c0-0.63,0-1.11,0-1.43c0-2.87-1.28-5.58-3.82-8.13c-4.3-4.62-13.38-6.93-27.25-6.93
		c-18.96,0-41.03,3.43-66.2,10.28c-15.3,4.15-28.76,10.04-40.39,17.69c-12.75,8.45-19.12,17.45-19.12,27.01
		c0,2.07,0.63,4.1,1.91,6.09c1.27,1.99,2.75,3.43,4.42,4.3c1.67,0.88,3.86,1.83,6.57,2.87c2.71,1.04,4.66,1.83,5.86,2.39
		c1.2,0.56,1.59,1.24,1.2,2.03c-0.4,0.8-1.55,1.04-3.47,0.72c-5.26-0.32-10.52-2.51-15.77-6.57c-5.26-4.06-7.89-8.8-7.89-14.22
		C71.06,383.36,71.13,382.56,71.29,381.76z"/>
</g>
<polyline class="st5" points="229.18,455.75 428.57,455.75 382.08,492.23 "/>
<g>
	<path class="st6" d="M380.31,517.02v-5.12h17.92v7.04h-1.28L380.31,517.02z M398.23,590.63v7.04h-17.92v-5.12l16.64-1.92H398.23z
		 M392.47,551.58c0-13.18,0-26.5-0.38-39.68h12.29c-0.38,12.93-0.38,26.24-0.38,39.68v4.48c0,15.1,0,28.42,0.38,41.6h-12.29
		c0.38-12.93,0.38-26.24,0.38-39.68V551.58z M398.23,550.43h12.67c15.75,0,22.53-4.99,22.53-16.77s-6.78-15.87-19.97-15.87h-15.23
		v-5.89h18.95c17.54,0,27.78,8.7,27.78,20.99c0,9.99-6.91,18.82-23.94,20.87v-1.15c19.97,1.67,28.16,10.63,28.16,21.63
		c0,11.65-9.6,23.42-33.79,23.42h-17.15v-5.89h14.08c16.64,0,24.71-6.27,24.71-17.54c0-11.91-7.81-17.92-25.73-17.92h-13.06V550.43z
		"/>
</g>
<line class="st7" x1="94.13" y1="574.93" x2="322.7" y2="574.93"/>
<line class="st7" x1="93.69" y1="588.44" x2="322.27" y2="588.44"/>
<line class="st7" x1="94.46" y1="563.56" x2="323.04" y2="563.56"/>
<g>
	<path class="st8" d="M103.14,566.59c-0.11,0-0.25-0.02-0.42-0.06c-0.71-0.18-1.07-0.56-1.07-1.12s0.37-1.28,1.1-2.13
		c0.74-0.85,2.29-2.06,4.65-3.63c1.32-2.69,2.15-4.57,2.5-5.65c-0.17,0.2-0.5,0.62-0.99,1.27c-0.49,0.65-0.92,1.2-1.3,1.66
		c-0.38,0.46-0.83,0.89-1.36,1.29c-0.53,0.41-1.02,0.61-1.47,0.61s-0.79-0.1-1.04-0.3c-0.25-0.2-0.38-0.42-0.41-0.64
		c-0.03-0.22-0.04-0.41-0.04-0.57c0-0.52,0.14-1.04,0.42-1.55c0.42-0.85,0.99-1.59,1.7-2.21c0.27-0.25,0.5-0.38,0.7-0.38
		s0.39,0.06,0.56,0.19c0.18,0.2,0.24,0.36,0.17,0.5c-0.53,0.31-1.14,0.9-1.83,1.78c-0.36,0.48-0.62,1.08-0.76,1.81
		c-0.01,0.1-0.02,0.22-0.02,0.37c0,0.15,0.06,0.27,0.18,0.36s0.24,0.14,0.37,0.14c0.43,0,0.89-0.23,1.37-0.69s0.93-0.95,1.37-1.46
		c0.43-0.51,0.93-1.12,1.48-1.84c0.55-0.71,0.92-1.18,1.09-1.41s0.35-0.34,0.54-0.34c0.22,0,0.46,0.06,0.69,0.19s0.34,0.22,0.3,0.29
		c-0.04,0.07-0.39,0.87-1.07,2.38c-0.68,1.52-1.17,2.61-1.48,3.27c0.34-0.18,0.91-0.61,1.71-1.29c0.8-0.68,1.49-1.37,2.05-2.07
		c0.14-0.17,0.23-0.18,0.27-0.04c0.01,0.03,0.02,0.07,0.02,0.14c0,0.06-0.04,0.15-0.13,0.26c-0.43,0.57-1.13,1.29-2.08,2.16
		c-0.95,0.87-1.71,1.46-2.27,1.76c-1.19,2.45-1.99,3.99-2.39,4.62C105.19,565.82,104.16,566.59,103.14,566.59z M107,560.44
		c-1.68,1.26-2.88,2.25-3.6,2.98c-0.72,0.73-1.08,1.35-1.08,1.88c0,0.52,0.18,0.79,0.55,0.79c0.28,0,0.6-0.14,0.97-0.43
		c0.36-0.29,0.71-0.67,1.05-1.14s0.59-0.89,0.77-1.23c0.17-0.34,0.42-0.85,0.72-1.51C106.68,561.11,106.89,560.66,107,560.44z"/>
	<path class="st8" d="M113.47,558.82c-0.22,0-0.46-0.07-0.72-0.2c-0.26-0.13-0.48-0.32-0.66-0.57s-0.27-0.51-0.27-0.79
		c0-0.28,0.06-0.55,0.19-0.8c0.28-0.59,0.73-1.16,1.35-1.71c0.62-0.55,1.27-1.03,1.94-1.42c0.67-0.39,1.2-0.64,1.6-0.74
		c0.39-0.1,0.77-0.15,1.14-0.15s0.69,0.09,0.96,0.28c0.27,0.19,0.4,0.39,0.4,0.6c0,0.07-0.01,0.11-0.02,0.13s-0.05,0.01-0.11-0.02
		c-0.17-0.27-0.51-0.4-1.04-0.4s-1.12,0.17-1.79,0.51s-1.29,0.77-1.88,1.29c-0.49,0.46-0.92,0.98-1.29,1.56
		c-0.37,0.58-0.56,1-0.56,1.27c0,0.52,0.15,0.78,0.44,0.78s0.74-0.24,1.34-0.71c0.99-0.84,1.67-1.46,2.04-1.85
		c1.29-1.39,1.98-2.08,2.08-2.08c0.17,0,0.37,0.05,0.61,0.15c0.24,0.1,0.32,0.22,0.23,0.36c-0.71,1.01-1.13,2.02-1.26,3.04
		c-0.01,0.13-0.02,0.29-0.02,0.48c0,0.2,0.06,0.36,0.17,0.48c0.21,0.22,0.5,0.24,0.86,0.04s0.87-0.59,1.52-1.18s1.17-1.16,1.56-1.72
		c0.06-0.07,0.12-0.09,0.19-0.05c0.07,0.04,0.1,0.07,0.1,0.09c0,0.21-0.33,0.67-1,1.38c-0.67,0.71-1.17,1.19-1.52,1.44
		c-0.66,0.49-1.27,0.74-1.83,0.74c-0.53,0-0.89-0.27-1.07-0.8c-0.04-0.17-0.06-0.36-0.06-0.57c0-0.63,0.13-1.29,0.4-2
		c-0.06,0.03-0.31,0.31-0.78,0.84c-0.46,0.53-1,1.04-1.61,1.53C114.51,558.58,113.96,558.82,113.47,558.82z"/>
	<path class="st8" d="M127.87,552.63c0.32,0,0.48,0.17,0.48,0.51s-0.16,0.82-0.48,1.42c-0.32,0.6-0.56,1.09-0.71,1.47
		c-0.27,0.64-0.4,1.16-0.4,1.54c0,0.39,0.06,0.64,0.17,0.77c0.21,0.22,0.5,0.23,0.86,0.03c0.36-0.2,0.87-0.59,1.52-1.18
		c0.65-0.58,1.17-1.15,1.56-1.71c0.06-0.07,0.12-0.09,0.2-0.05s0.12,0.07,0.12,0.1c0,0.04-0.01,0.07-0.04,0.12
		c-0.21,0.38-0.59,0.86-1.13,1.45s-1.07,1.06-1.58,1.42c-0.5,0.36-1,0.54-1.49,0.54c-0.48-0.01-0.81-0.12-1.01-0.33
		c-0.2-0.2-0.29-0.46-0.29-0.77s0.03-0.61,0.08-0.89s0.16-0.62,0.32-1c0.25-0.6,0.47-1.07,0.66-1.41c0.19-0.34,0.28-0.56,0.28-0.66
		c0-0.1-0.06-0.16-0.17-0.16c-0.22,0-0.65,0.27-1.28,0.82c-0.43,0.41-1.08,1.17-1.92,2.3c-0.85,1.13-1.33,1.73-1.44,1.8
		c-0.5,0.25-0.82,0.38-0.94,0.38c-0.13,0-0.19-0.02-0.19-0.06s0.01-0.1,0.04-0.18c0.03-0.08,0.16-0.46,0.41-1.14s0.51-1.44,0.8-2.26
		c0.29-0.82,0.46-1.31,0.53-1.48c0.06-0.17,0.11-0.31,0.13-0.43c0.02-0.12,0.04-0.22,0.07-0.3c0.03-0.08,0.08-0.18,0.16-0.28
		c0.08-0.1,0.18-0.16,0.3-0.17c0.13-0.01,0.29,0.01,0.48,0.04c0.2,0.04,0.29,0.12,0.29,0.26c0,0.1-0.08,0.31-0.23,0.64
		c-0.15,0.33-0.6,1.46-1.32,3.39c0.5-0.62,1.14-1.33,1.91-2.13c0.77-0.8,1.42-1.42,1.95-1.84
		C127.1,552.82,127.54,552.63,127.87,552.63z"/>
	<path class="st8" d="M130.06,566.59c-0.11,0-0.25-0.02-0.42-0.06c-0.71-0.18-1.07-0.56-1.07-1.12s0.37-1.28,1.1-2.13
		c0.74-0.85,2.29-2.06,4.65-3.63c1.01-2.06,1.71-3.69,2.1-4.89c-0.78,0.95-1.34,1.61-1.68,1.97c-1.26,1.4-2.27,2.1-3.04,2.1
		c-0.22,0-0.46-0.07-0.72-0.2c-0.26-0.13-0.48-0.32-0.66-0.57s-0.27-0.51-0.27-0.79c0-0.74,0.52-1.58,1.55-2.5
		c0.62-0.56,1.26-1.04,1.93-1.43c0.67-0.39,1.2-0.64,1.6-0.74c0.39-0.1,0.77-0.15,1.13-0.15c0.36,0,0.69,0.1,0.97,0.29
		s0.42,0.39,0.42,0.59c0,0.11-0.06,0.15-0.17,0.11c-0.15-0.27-0.49-0.4-1.02-0.4s-1.12,0.17-1.79,0.51s-1.26,0.75-1.79,1.22
		c-0.53,0.47-0.98,1-1.35,1.6c-0.37,0.6-0.56,1.03-0.56,1.31c0,0.49,0.14,0.74,0.42,0.74c0.39,0,0.99-0.32,1.81-0.97
		c1.2-0.94,2.36-2.08,3.46-3.42c0.18-0.27,0.56-0.26,1.13,0.02c0.22,0.11,0.31,0.21,0.27,0.29c-0.18,0.41-0.51,1.11-1,2.11
		c-0.48,1-0.84,1.75-1.08,2.26c0.32-0.17,0.87-0.59,1.65-1.27c0.78-0.68,1.46-1.36,2.05-2.05c0.31-0.36,0.46-0.42,0.46-0.17
		c0,0.35-0.84,1.27-2.52,2.77c-0.97,0.87-1.65,1.41-2.06,1.64c-1.19,2.45-1.99,3.99-2.39,4.62
		C132.12,565.82,131.08,566.59,130.06,566.59z M133.92,560.44c-1.68,1.26-2.88,2.26-3.61,2.99c-0.73,0.73-1.09,1.42-1.09,2.07
		c0,0.2,0.06,0.34,0.19,0.42s0.26,0.13,0.4,0.13s0.34-0.11,0.61-0.32c0.27-0.21,0.49-0.42,0.68-0.62c0.19-0.2,0.35-0.39,0.49-0.57
		c0.14-0.17,0.3-0.4,0.47-0.67c0.17-0.27,0.31-0.49,0.41-0.64s0.23-0.4,0.41-0.72s0.29-0.55,0.36-0.67
		c0.06-0.12,0.18-0.36,0.36-0.72C133.77,560.75,133.88,560.52,133.92,560.44z"/>
	<path class="st8" d="M146.54,546.31c0.25-0.1,0.47-0.15,0.65-0.15c0.62,0,1.02,0.17,1.22,0.5c0.11,0.17,0.17,0.31,0.17,0.44
		c0,0.95-0.8,2.15-2.39,3.59c-1.41,1.25-2.72,2.32-3.91,3.21c-0.39,0.88-0.8,1.97-1.22,3.25c0.5-0.62,1.14-1.33,1.91-2.14
		c1.55-1.61,2.64-2.42,3.25-2.42c0.31,0,0.47,0.15,0.48,0.46c0.03,0.32-0.04,0.63-0.2,0.92c-0.16,0.29-0.31,0.57-0.45,0.82
		c-0.66,1.09-0.99,2.07-0.99,2.92c0,0.28,0.06,0.48,0.17,0.61c0.2,0.22,0.48,0.24,0.84,0.04s0.87-0.59,1.52-1.18
		s1.18-1.16,1.59-1.72c0.07-0.07,0.14-0.09,0.2-0.05c0.06,0.04,0.09,0.07,0.09,0.1c0,0.04-0.01,0.07-0.04,0.12
		c-0.21,0.38-0.59,0.86-1.13,1.44c-0.55,0.58-0.99,1-1.32,1.25c-0.64,0.49-1.26,0.74-1.85,0.74c-0.53,0-0.89-0.27-1.07-0.8
		c-0.04-0.13-0.06-0.28-0.06-0.45c0-0.17,0.01-0.36,0.04-0.56c0.07-0.59,0.44-1.5,1.11-2.75c0.14-0.25,0.21-0.43,0.21-0.54
		c0-0.11-0.06-0.16-0.17-0.16c-0.22,0-0.66,0.28-1.3,0.84c-0.43,0.41-1.08,1.17-1.92,2.3c-0.85,1.13-1.33,1.73-1.44,1.8
		c-0.5,0.25-0.82,0.38-0.93,0.38s-0.19-0.02-0.2-0.05c-0.01-0.04-0.01-0.08,0.02-0.14c0.03-0.06,0.14-0.36,0.34-0.92
		c0.66-1.86,1.11-3.09,1.34-3.7c-0.46,0.59-1.04,1.25-1.72,2c-0.11,0.11-0.17,0.09-0.17-0.07c0-0.16,0.06-0.33,0.19-0.49
		s0.39-0.49,0.79-0.98s0.68-0.84,0.85-1.08c-0.13-0.07-0.19-0.17-0.2-0.29c-0.01-0.13,0.03-0.21,0.13-0.26
		c0.09-0.05,0.24-0.03,0.45,0.05c0.14-0.2,0.27-0.41,0.38-0.65C143.46,548.96,145.04,546.88,146.54,546.31z M147.72,547.88
		c0.18-0.34,0.27-0.62,0.27-0.85c0-0.23-0.1-0.35-0.3-0.35s-0.47,0.13-0.81,0.38c-1.54,1.18-2.93,3.14-4.18,5.9
		c0.91-0.59,1.86-1.37,2.86-2.35C146.55,549.63,147.27,548.72,147.72,547.88z"/>
	<path class="st8" d="M157.65,557.1c-0.55,0.59-1.04,1.04-1.47,1.37c-0.56,0.41-1.17,0.61-1.83,0.61c-0.13,0-0.29-0.06-0.49-0.18
		c-0.2-0.12-0.34-0.29-0.41-0.51s-0.1-0.44-0.1-0.65c0-0.73,0.14-1.45,0.42-2.16c-0.04,0.03-0.24,0.33-0.58,0.89
		c-0.34,0.57-0.76,1.1-1.26,1.61s-1,0.76-1.5,0.76c-0.24,0-0.51-0.06-0.82-0.19c-0.56-0.25-0.84-0.71-0.84-1.39
		c0-0.83,0.28-1.68,0.85-2.55c0.57-0.88,0.93-1.34,1.08-1.4c0.21-0.06,0.41-0.08,0.6-0.08c0.19,0,0.38,0.04,0.58,0.12
		c0.2,0.08,0.17,0.21-0.08,0.39c-0.97,0.88-1.65,1.86-2.06,2.94c-0.15,0.42-0.23,0.77-0.23,1.06s0.07,0.47,0.22,0.56
		c0.15,0.08,0.29,0.13,0.43,0.13c0.34,0,0.79-0.23,1.38-0.7c0.58-0.47,1.38-1.45,2.41-2.93c0.14-0.21,0.38-0.62,0.73-1.23
		c0.35-0.61,0.56-0.97,0.63-1.08c0.22,0,0.49,0.05,0.79,0.16c0.3,0.11,0.4,0.24,0.3,0.41c-0.67,1.12-1.14,1.95-1.42,2.48
		c-0.27,0.53-0.46,1.16-0.56,1.87c-0.01,0.13-0.02,0.29-0.02,0.48c0,0.2,0.06,0.36,0.17,0.48c0.21,0.22,0.5,0.23,0.87,0.03
		c0.37-0.2,0.88-0.59,1.52-1.18s1.16-1.15,1.55-1.71c0.06-0.07,0.12-0.09,0.2-0.05c0.08,0.04,0.12,0.07,0.12,0.1
		c0,0.04-0.01,0.07-0.04,0.12C158.58,556.03,158.2,556.51,157.65,557.1z"/>
	<path class="st8" d="M159.31,558.82c-0.22,0-0.46-0.07-0.72-0.2c-0.26-0.13-0.48-0.32-0.66-0.57s-0.27-0.51-0.27-0.79
		c0-0.28,0.06-0.55,0.19-0.8c0.28-0.59,0.73-1.16,1.35-1.71c0.62-0.55,1.27-1.03,1.94-1.42c0.67-0.39,1.2-0.64,1.6-0.74
		c0.39-0.1,0.77-0.15,1.14-0.15s0.69,0.09,0.96,0.28c0.27,0.19,0.4,0.39,0.4,0.6c0,0.07-0.01,0.11-0.02,0.13s-0.05,0.01-0.11-0.02
		c-0.17-0.27-0.51-0.4-1.04-0.4s-1.12,0.17-1.79,0.51s-1.29,0.77-1.88,1.29c-0.49,0.46-0.92,0.98-1.29,1.56
		c-0.37,0.58-0.56,1-0.56,1.27c0,0.52,0.15,0.78,0.44,0.78s0.74-0.24,1.34-0.71c0.99-0.84,1.67-1.46,2.04-1.85
		c1.29-1.39,1.98-2.08,2.08-2.08c0.17,0,0.37,0.05,0.61,0.15c0.24,0.1,0.32,0.22,0.23,0.36c-0.71,1.01-1.13,2.02-1.26,3.04
		c-0.01,0.13-0.02,0.29-0.02,0.48c0,0.2,0.06,0.36,0.17,0.48c0.21,0.22,0.5,0.24,0.86,0.04s0.87-0.59,1.52-1.18s1.17-1.16,1.56-1.72
		c0.06-0.07,0.12-0.09,0.19-0.05c0.07,0.04,0.1,0.07,0.1,0.09c0,0.21-0.33,0.67-1,1.38c-0.67,0.71-1.17,1.19-1.52,1.44
		c-0.66,0.49-1.27,0.74-1.83,0.74c-0.53,0-0.89-0.27-1.07-0.8c-0.04-0.17-0.06-0.36-0.06-0.57c0-0.63,0.13-1.29,0.4-2
		c-0.06,0.03-0.31,0.31-0.78,0.84c-0.46,0.53-1,1.04-1.61,1.53C160.35,558.58,159.8,558.82,159.31,558.82z"/>
	<path class="st8" d="M173.72,552.63c0.32,0,0.48,0.17,0.48,0.51s-0.16,0.82-0.48,1.42c-0.32,0.6-0.56,1.09-0.71,1.47
		c-0.27,0.64-0.4,1.16-0.4,1.54c0,0.39,0.06,0.64,0.17,0.77c0.21,0.22,0.5,0.23,0.86,0.03c0.36-0.2,0.87-0.59,1.52-1.18
		c0.65-0.58,1.17-1.15,1.56-1.71c0.06-0.07,0.12-0.09,0.2-0.05s0.12,0.07,0.12,0.1c0,0.04-0.01,0.07-0.04,0.12
		c-0.21,0.38-0.59,0.86-1.13,1.45s-1.07,1.06-1.58,1.42c-0.5,0.36-1,0.54-1.49,0.54c-0.48-0.01-0.81-0.12-1.01-0.33
		c-0.2-0.2-0.29-0.46-0.29-0.77s0.03-0.61,0.08-0.89s0.16-0.62,0.32-1c0.25-0.6,0.47-1.07,0.66-1.41c0.19-0.34,0.28-0.56,0.28-0.66
		c0-0.1-0.06-0.16-0.17-0.16c-0.22,0-0.65,0.27-1.28,0.82c-0.43,0.41-1.08,1.17-1.92,2.3c-0.85,1.13-1.33,1.73-1.44,1.8
		c-0.5,0.25-0.82,0.38-0.94,0.38c-0.13,0-0.19-0.02-0.19-0.06s0.01-0.1,0.04-0.18c0.03-0.08,0.16-0.46,0.41-1.14s0.51-1.44,0.8-2.26
		c0.29-0.82,0.46-1.31,0.53-1.48c0.06-0.17,0.11-0.31,0.13-0.43c0.02-0.12,0.04-0.22,0.07-0.3c0.03-0.08,0.08-0.18,0.16-0.28
		c0.08-0.1,0.18-0.16,0.3-0.17c0.13-0.01,0.29,0.01,0.48,0.04c0.2,0.04,0.29,0.12,0.29,0.26c0,0.1-0.08,0.31-0.23,0.64
		c-0.15,0.33-0.6,1.46-1.32,3.39c0.5-0.62,1.14-1.33,1.91-2.13c0.77-0.8,1.42-1.42,1.95-1.84
		C172.95,552.82,173.38,552.63,173.72,552.63z"/>
	<path class="st8" d="M183.65,546.31c0.25-0.1,0.47-0.15,0.65-0.15c0.62,0,1.02,0.17,1.22,0.5c0.11,0.17,0.17,0.31,0.17,0.44
		c0,0.95-0.8,2.15-2.39,3.59c-1.41,1.25-2.72,2.32-3.91,3.21c-0.39,0.88-0.8,1.97-1.22,3.25c0.5-0.62,1.14-1.33,1.91-2.14
		c1.55-1.61,2.64-2.42,3.25-2.42c0.31,0,0.47,0.15,0.48,0.46c0.03,0.32-0.04,0.63-0.2,0.92c-0.16,0.29-0.31,0.57-0.45,0.82
		c-0.66,1.09-0.99,2.07-0.99,2.92c0,0.28,0.06,0.48,0.17,0.61c0.2,0.22,0.48,0.24,0.84,0.04s0.87-0.59,1.52-1.18
		s1.18-1.16,1.59-1.72c0.07-0.07,0.14-0.09,0.2-0.05c0.06,0.04,0.09,0.07,0.09,0.1c0,0.04-0.01,0.07-0.04,0.12
		c-0.21,0.38-0.59,0.86-1.13,1.44c-0.55,0.58-0.99,1-1.32,1.25c-0.64,0.49-1.26,0.74-1.85,0.74c-0.53,0-0.89-0.27-1.07-0.8
		c-0.04-0.13-0.06-0.28-0.06-0.45c0-0.17,0.01-0.36,0.04-0.56c0.07-0.59,0.44-1.5,1.11-2.75c0.14-0.25,0.21-0.43,0.21-0.54
		c0-0.11-0.06-0.16-0.17-0.16c-0.22,0-0.66,0.28-1.3,0.84c-0.43,0.41-1.08,1.17-1.92,2.3c-0.85,1.13-1.33,1.73-1.44,1.8
		c-0.5,0.25-0.82,0.38-0.93,0.38s-0.19-0.02-0.2-0.05c-0.01-0.04-0.01-0.08,0.02-0.14c0.03-0.06,0.14-0.36,0.34-0.92
		c0.66-1.86,1.11-3.09,1.34-3.7c-0.46,0.59-1.04,1.25-1.72,2c-0.11,0.11-0.17,0.09-0.17-0.07c0-0.16,0.06-0.33,0.19-0.49
		s0.39-0.49,0.79-0.98s0.68-0.84,0.85-1.08c-0.13-0.07-0.19-0.17-0.2-0.29c-0.01-0.13,0.03-0.21,0.13-0.26
		c0.09-0.05,0.24-0.03,0.45,0.05c0.14-0.2,0.27-0.41,0.38-0.65C180.57,548.96,182.15,546.88,183.65,546.31z M184.83,547.88
		c0.18-0.34,0.27-0.62,0.27-0.85c0-0.23-0.1-0.35-0.3-0.35s-0.47,0.13-0.81,0.38c-1.54,1.18-2.93,3.14-4.18,5.9
		c0.91-0.59,1.86-1.37,2.86-2.35C183.66,549.63,184.38,548.72,184.83,547.88z"/>
	<path class="st8" d="M194.76,557.1c-0.55,0.59-1.04,1.04-1.47,1.37c-0.56,0.41-1.17,0.61-1.83,0.61c-0.13,0-0.29-0.06-0.49-0.18
		c-0.2-0.12-0.34-0.29-0.41-0.51s-0.1-0.44-0.1-0.65c0-0.73,0.14-1.45,0.42-2.16c-0.04,0.03-0.24,0.33-0.58,0.89
		c-0.34,0.57-0.76,1.1-1.26,1.61s-1,0.76-1.5,0.76c-0.24,0-0.51-0.06-0.82-0.19c-0.56-0.25-0.84-0.71-0.84-1.39
		c0-0.83,0.28-1.68,0.85-2.55c0.57-0.88,0.93-1.34,1.08-1.4c0.21-0.06,0.41-0.08,0.6-0.08c0.19,0,0.38,0.04,0.58,0.12
		c0.2,0.08,0.17,0.21-0.08,0.39c-0.97,0.88-1.65,1.86-2.06,2.94c-0.15,0.42-0.23,0.77-0.23,1.06s0.07,0.47,0.22,0.56
		c0.15,0.08,0.29,0.13,0.43,0.13c0.34,0,0.79-0.23,1.38-0.7c0.58-0.47,1.38-1.45,2.41-2.93c0.14-0.21,0.38-0.62,0.73-1.23
		c0.35-0.61,0.56-0.97,0.63-1.08c0.22,0,0.49,0.05,0.79,0.16c0.3,0.11,0.4,0.24,0.3,0.41c-0.67,1.12-1.14,1.95-1.42,2.48
		c-0.27,0.53-0.46,1.16-0.56,1.87c-0.01,0.13-0.02,0.29-0.02,0.48c0,0.2,0.06,0.36,0.17,0.48c0.21,0.22,0.5,0.23,0.87,0.03
		c0.37-0.2,0.88-0.59,1.52-1.18s1.16-1.15,1.55-1.71c0.06-0.07,0.12-0.09,0.2-0.05c0.08,0.04,0.12,0.07,0.12,0.1
		c0,0.04-0.01,0.07-0.04,0.12C195.68,556.03,195.3,556.51,194.76,557.1z"/>
	<path class="st8" d="M196.42,558.82c-0.22,0-0.46-0.07-0.72-0.2c-0.26-0.13-0.48-0.32-0.66-0.57s-0.27-0.51-0.27-0.79
		c0-0.28,0.06-0.55,0.19-0.8c0.28-0.59,0.73-1.16,1.35-1.71c0.62-0.55,1.27-1.03,1.94-1.42c0.67-0.39,1.2-0.64,1.6-0.74
		c0.39-0.1,0.77-0.15,1.14-0.15s0.69,0.09,0.96,0.28c0.27,0.19,0.4,0.39,0.4,0.6c0,0.07-0.01,0.11-0.02,0.13s-0.05,0.01-0.11-0.02
		c-0.17-0.27-0.51-0.4-1.04-0.4s-1.12,0.17-1.79,0.51s-1.29,0.77-1.88,1.29c-0.49,0.46-0.92,0.98-1.29,1.56
		c-0.37,0.58-0.56,1-0.56,1.27c0,0.52,0.15,0.78,0.44,0.78s0.74-0.24,1.34-0.71c0.99-0.84,1.67-1.46,2.04-1.85
		c1.29-1.39,1.98-2.08,2.08-2.08c0.17,0,0.37,0.05,0.61,0.15c0.24,0.1,0.32,0.22,0.23,0.36c-0.71,1.01-1.13,2.02-1.26,3.04
		c-0.01,0.13-0.02,0.29-0.02,0.48c0,0.2,0.06,0.36,0.17,0.48c0.21,0.22,0.5,0.24,0.86,0.04s0.87-0.59,1.52-1.18s1.17-1.16,1.56-1.72
		c0.06-0.07,0.12-0.09,0.19-0.05c0.07,0.04,0.1,0.07,0.1,0.09c0,0.21-0.33,0.67-1,1.38c-0.67,0.71-1.17,1.19-1.52,1.44
		c-0.66,0.49-1.27,0.74-1.83,0.74c-0.53,0-0.89-0.27-1.07-0.8c-0.04-0.17-0.06-0.36-0.06-0.57c0-0.63,0.13-1.29,0.4-2
		c-0.06,0.03-0.31,0.31-0.78,0.84c-0.46,0.53-1,1.04-1.61,1.53C197.46,558.58,196.91,558.82,196.42,558.82z"/>
	<path class="st8" d="M210.82,552.63c0.32,0,0.48,0.17,0.48,0.51s-0.16,0.82-0.48,1.42c-0.32,0.6-0.56,1.09-0.71,1.47
		c-0.27,0.64-0.4,1.16-0.4,1.54c0,0.39,0.06,0.64,0.17,0.77c0.21,0.22,0.5,0.23,0.86,0.03c0.36-0.2,0.87-0.59,1.52-1.18
		c0.65-0.58,1.17-1.15,1.56-1.71c0.06-0.07,0.12-0.09,0.2-0.05s0.12,0.07,0.12,0.1c0,0.04-0.01,0.07-0.04,0.12
		c-0.21,0.38-0.59,0.86-1.13,1.45s-1.07,1.06-1.58,1.42c-0.5,0.36-1,0.54-1.49,0.54c-0.48-0.01-0.81-0.12-1.01-0.33
		c-0.2-0.2-0.29-0.46-0.29-0.77s0.03-0.61,0.08-0.89s0.16-0.62,0.32-1c0.25-0.6,0.47-1.07,0.66-1.41c0.19-0.34,0.28-0.56,0.28-0.66
		c0-0.1-0.06-0.16-0.17-0.16c-0.22,0-0.65,0.27-1.28,0.82c-0.43,0.41-1.08,1.17-1.92,2.3c-0.85,1.13-1.33,1.73-1.44,1.8
		c-0.5,0.25-0.82,0.38-0.94,0.38c-0.13,0-0.19-0.02-0.19-0.06s0.01-0.1,0.04-0.18c0.03-0.08,0.16-0.46,0.41-1.14s0.51-1.44,0.8-2.26
		c0.29-0.82,0.46-1.31,0.53-1.48c0.06-0.17,0.11-0.31,0.13-0.43c0.02-0.12,0.04-0.22,0.07-0.3c0.03-0.08,0.08-0.18,0.16-0.28
		c0.08-0.1,0.18-0.16,0.3-0.17c0.13-0.01,0.29,0.01,0.48,0.04c0.2,0.04,0.29,0.12,0.29,0.26c0,0.1-0.08,0.31-0.23,0.64
		c-0.15,0.33-0.6,1.46-1.32,3.39c0.5-0.62,1.14-1.33,1.91-2.13c0.77-0.8,1.42-1.42,1.95-1.84
		C210.05,552.82,210.49,552.63,210.82,552.63z"/>
	<path class="st8" d="M219.18,555.9c-0.17,0.48-0.26,0.79-0.27,0.96s-0.02,0.38-0.02,0.65c0,0.27,0.07,0.52,0.21,0.75
		c0.24,0.38,0.64,0.41,1.2,0.08c0.42-0.22,0.95-0.63,1.6-1.23c0.64-0.59,1.14-1.14,1.49-1.63c0.03-0.04,0.07-0.06,0.13-0.06
		c0.13,0,0.16,0.09,0.1,0.27c-0.21,0.38-0.6,0.86-1.17,1.45c-0.57,0.59-1.08,1.05-1.54,1.4s-0.92,0.51-1.39,0.51
		c-1.06,0-1.6-0.52-1.6-1.55c0-0.04,0-0.08,0-0.13c0.06-0.98,0.55-2.46,1.49-4.44c0.94-1.98,1.79-3.48,2.54-4.48l0.65-0.82
		c0.15-0.18,0.38-0.41,0.67-0.67c0.56-0.53,1.14-0.8,1.73-0.8s1,0.18,1.21,0.55c0.07,0.13,0.1,0.31,0.1,0.55s-0.1,0.57-0.31,1.01
		C224.56,550.77,222.29,553.31,219.18,555.9z M225.44,547.88c0.17-0.31,0.25-0.55,0.25-0.71c0-0.29-0.12-0.44-0.36-0.44
		c-0.2,0-0.44,0.11-0.74,0.34c-1.12,0.87-2.21,2.24-3.25,4.12c-0.84,1.51-1.46,2.81-1.85,3.88c0.97-0.66,2.05-1.73,3.25-3.21
		C223.94,550.37,224.84,549.04,225.44,547.88z"/>
	<path class="st8" d="M227.43,556.28c0.25-0.52,0.38-0.92,0.38-1.2s-0.03-0.5-0.09-0.66c-0.06-0.16-0.04-0.3,0.08-0.41
		c0.12-0.11,0.27-0.15,0.45-0.13c0.28,0.07,0.42,0.39,0.42,0.95s-0.33,1.29-0.99,2.21c0.01,0.38,0.21,0.57,0.59,0.57
		s0.95-0.41,1.72-1.22c0.36-0.42,0.59-0.69,0.68-0.82c0.09-0.13,0.17-0.17,0.24-0.14s0.11,0.07,0.11,0.09c0,0.14-0.25,0.5-0.76,1.09
		c-0.8,0.98-1.51,1.47-2.12,1.47c-0.41,0-0.69-0.17-0.86-0.53c-0.28,0.29-0.55,0.57-0.82,0.82c-0.55,0.46-1.15,0.69-1.83,0.69
		c-0.38,0-0.69-0.09-0.94-0.27c-0.49-0.29-0.74-0.82-0.74-1.58c0-0.83,0.28-1.67,0.84-2.52c0.32-0.5,0.7-0.95,1.13-1.32
		c0.69-0.6,1.34-0.9,1.95-0.9c0.15,0,0.3,0.02,0.44,0.06c0.42,0.14,0.63,0.41,0.63,0.8c0,0.32-0.08,0.48-0.25,0.48
		c-0.07-0.03-0.1-0.13-0.1-0.32c0-0.25-0.14-0.38-0.42-0.38c-0.49,0-1.12,0.45-1.89,1.34c-0.77,0.9-1.23,1.8-1.39,2.71
		c-0.03,0.15-0.04,0.33-0.04,0.51c0,0.19,0.06,0.41,0.19,0.65c0.13,0.24,0.36,0.37,0.7,0.37c0.34,0,0.72-0.15,1.12-0.46
		s0.77-0.7,1.09-1.18l-0.06-0.13c-0.06-0.22-0.03-0.41,0.08-0.55C227.1,556.27,227.25,556.23,227.43,556.28z"/>
	<path class="st8" d="M231.55,553.91c0-0.67-0.2-1.01-0.59-1.01c-0.08,0-0.17,0.01-0.26,0.03c-0.09,0.02-0.14,0-0.14-0.05
		s0.04-0.13,0.13-0.21c0.08-0.07,0.37-0.13,0.86-0.17c0.59,0,0.96,0.08,1.1,0.25c0.15,0.17,0.22,0.34,0.22,0.5s-0.13,0.58-0.39,1.25
		c-0.26,0.67-0.4,1.01-0.41,1.04c-0.42,1.26-0.61,2.05-0.57,2.37c1.26-1.69,2.09-2.75,2.48-3.17c0.83-0.91,1.41-1.53,1.76-1.87
		c0.81-0.76,1.53-1.27,2.14-1.53c0.18-0.07,0.34-0.1,0.48-0.1c0.46,0,0.78,0.14,0.95,0.42c0.06,0.07,0.08,0.14,0.08,0.2
		c0,0.06-0.02,0.14-0.06,0.22s-0.12,0.08-0.23-0.01c-0.11-0.09-0.36-0.14-0.76-0.14c-0.64,0-1.72,0.76-3.23,2.27
		c-0.91,0.94-1.75,1.92-2.51,2.94c-0.76,1.02-1.17,1.75-1.23,2.18c0,0.11-0.1,0.17-0.31,0.17s-0.37-0.09-0.47-0.26
		c-0.11-0.18-0.16-0.32-0.16-0.44s0.01-0.22,0.02-0.31s0.15-0.61,0.42-1.54c0.27-0.94,0.43-1.56,0.5-1.87
		c-0.17,0.28-0.4,0.62-0.69,1.03c-0.1,0.11-0.18,0.14-0.24,0.09c-0.06-0.05-0.09-0.09-0.09-0.14s0.01-0.09,0.04-0.15
		C230.98,555.11,231.37,554.44,231.55,553.91z"/>
	<path class="st8" d="M241.92,552.48c0.76,0,1.13,0.36,1.13,1.09c0,0.38-0.11,0.69-0.32,0.92c-0.35,0.52-0.92,0.97-1.7,1.35
		s-1.45,0.6-1.99,0.64c-0.2,0.01-0.3-0.04-0.32-0.17c-0.01-0.06,0-0.09,0.05-0.11c0.05-0.01,0.09-0.02,0.12-0.02
		c0.32-0.03,0.74-0.18,1.24-0.46c0.94-0.5,1.62-1.02,2.06-1.55c0.18-0.25,0.27-0.49,0.27-0.72c0-0.23-0.11-0.35-0.34-0.35
		c-0.18,0-0.43,0.08-0.74,0.23c-0.66,0.31-1.35,0.84-2.08,1.61c-0.73,0.76-1.2,1.51-1.43,2.24c-0.07,0.22-0.11,0.45-0.11,0.66
		s0.09,0.42,0.27,0.62c0.18,0.2,0.46,0.29,0.84,0.29c0.42,0,0.9-0.11,1.45-0.34c1.58-0.64,2.8-1.62,3.65-2.92
		c0.08-0.11,0.16-0.13,0.23-0.06c0.06,0.03,0.08,0.06,0.08,0.11s-0.02,0.09-0.06,0.15c-0.42,0.7-0.95,1.32-1.6,1.87
		c-1.25,1.06-2.46,1.6-3.63,1.6c-1.01,0-1.71-0.3-2.12-0.9c-0.15-0.24-0.23-0.53-0.23-0.86s0.09-0.73,0.27-1.2
		c0.35-0.8,1.1-1.62,2.25-2.46C240.34,552.9,241.25,552.48,241.92,552.48z"/>
	<path class="st8" d="M247.82,566.59c-0.11,0-0.25-0.02-0.42-0.06c-0.71-0.18-1.07-0.56-1.07-1.12s0.37-1.28,1.1-2.13
		c0.74-0.85,2.29-2.06,4.65-3.63c1.32-2.69,2.15-4.57,2.5-5.65c-0.17,0.2-0.5,0.62-0.99,1.27c-0.49,0.65-0.92,1.2-1.3,1.66
		c-0.38,0.46-0.83,0.89-1.36,1.29c-0.53,0.41-1.02,0.61-1.47,0.61s-0.79-0.1-1.04-0.3c-0.25-0.2-0.38-0.42-0.41-0.64
		c-0.03-0.22-0.04-0.41-0.04-0.57c0-0.52,0.14-1.04,0.42-1.55c0.42-0.85,0.99-1.59,1.7-2.21c0.27-0.25,0.5-0.38,0.7-0.38
		s0.39,0.06,0.56,0.19c0.18,0.2,0.24,0.36,0.17,0.5c-0.53,0.31-1.14,0.9-1.83,1.78c-0.36,0.48-0.62,1.08-0.76,1.81
		c-0.01,0.1-0.02,0.22-0.02,0.37c0,0.15,0.06,0.27,0.18,0.36s0.24,0.14,0.37,0.14c0.43,0,0.89-0.23,1.37-0.69s0.93-0.95,1.37-1.46
		c0.43-0.51,0.93-1.12,1.48-1.84c0.55-0.71,0.92-1.18,1.09-1.41s0.35-0.34,0.54-0.34c0.22,0,0.46,0.06,0.69,0.19s0.34,0.22,0.3,0.29
		c-0.04,0.07-0.39,0.87-1.07,2.38c-0.68,1.52-1.17,2.61-1.48,3.27c0.34-0.18,0.91-0.61,1.71-1.29c0.8-0.68,1.49-1.37,2.05-2.07
		c0.14-0.17,0.23-0.18,0.27-0.04c0.01,0.03,0.02,0.07,0.02,0.14c0,0.06-0.04,0.15-0.13,0.26c-0.43,0.57-1.13,1.29-2.08,2.16
		c-0.95,0.87-1.71,1.46-2.27,1.76c-1.19,2.45-1.99,3.99-2.39,4.62C249.88,565.82,248.84,566.59,247.82,566.59z M251.69,560.44
		c-1.68,1.26-2.88,2.25-3.6,2.98c-0.72,0.73-1.08,1.35-1.08,1.88c0,0.52,0.18,0.79,0.55,0.79c0.28,0,0.6-0.14,0.97-0.43
		c0.36-0.29,0.71-0.67,1.05-1.14s0.59-0.89,0.77-1.23c0.17-0.34,0.42-0.85,0.72-1.51C251.37,561.11,251.58,560.66,251.69,560.44z"/>
	<path class="st8" d="M265.84,557.1c-0.55,0.59-1.04,1.04-1.47,1.37c-0.56,0.41-1.17,0.61-1.83,0.61c-0.13,0-0.29-0.06-0.49-0.18
		c-0.2-0.12-0.34-0.29-0.41-0.51s-0.1-0.44-0.1-0.65c0-0.73,0.14-1.45,0.42-2.16c-0.04,0.03-0.24,0.33-0.58,0.89
		c-0.34,0.57-0.76,1.1-1.26,1.61s-1,0.76-1.5,0.76c-0.24,0-0.51-0.06-0.82-0.19c-0.56-0.25-0.84-0.71-0.84-1.39
		c0-0.83,0.28-1.68,0.85-2.55c0.57-0.88,0.93-1.34,1.08-1.4c0.21-0.06,0.41-0.08,0.6-0.08c0.19,0,0.38,0.04,0.58,0.12
		c0.2,0.08,0.17,0.21-0.08,0.39c-0.97,0.88-1.65,1.86-2.06,2.94c-0.15,0.42-0.23,0.77-0.23,1.06s0.07,0.47,0.22,0.56
		c0.15,0.08,0.29,0.13,0.43,0.13c0.34,0,0.79-0.23,1.38-0.7c0.58-0.47,1.38-1.45,2.41-2.93c0.14-0.21,0.38-0.62,0.73-1.23
		c0.35-0.61,0.56-0.97,0.63-1.08c0.22,0,0.49,0.05,0.79,0.16c0.3,0.11,0.4,0.24,0.3,0.41c-0.67,1.12-1.14,1.95-1.42,2.48
		c-0.27,0.53-0.46,1.16-0.56,1.87c-0.01,0.13-0.02,0.29-0.02,0.48c0,0.2,0.06,0.36,0.17,0.48c0.21,0.22,0.5,0.23,0.87,0.03
		c0.37-0.2,0.88-0.59,1.52-1.18s1.16-1.15,1.55-1.71c0.06-0.07,0.12-0.09,0.2-0.05c0.08,0.04,0.12,0.07,0.12,0.1
		c0,0.04-0.01,0.07-0.04,0.12C266.76,556.03,266.39,556.51,265.84,557.1z"/>
	<path class="st8" d="M265.47,565.41c-0.03,0.06-0.07,0.11-0.1,0.14c-0.04,0.03-0.18,0.11-0.43,0.25c-0.25,0.14-0.48,0.21-0.68,0.21
		s-0.3-0.05-0.3-0.15c0-0.04,0.01-0.1,0.04-0.17c0.25-0.48,1.55-3.7,3.88-9.68c-0.43,0.06-0.76,0.08-0.97,0.08s-0.37-0.04-0.49-0.14
		c-0.12-0.09-0.18-0.21-0.18-0.36c0-0.15,0.16-0.28,0.47-0.4s0.56-0.18,0.72-0.18s0.31,0.06,0.42,0.17
		c0.11,0.11,0.19,0.17,0.23,0.17h0.06l0.61-1.55c0.25-0.7,0.64-1.61,1.15-2.74c0.52-1.13,0.99-2.03,1.41-2.7
		c0.94-1.41,1.88-2.12,2.81-2.12l0.5,0.06l0.42,0.15c0.41,0.24,0.61,0.56,0.61,0.98s-0.11,0.86-0.34,1.33
		c-0.38,0.81-1.15,1.87-2.31,3.17s-2.28,2.39-3.36,3.25c1.15-0.1,1.89-0.15,2.22-0.15s0.5,0.04,0.51,0.13c0,0.06-0.13,0.12-0.4,0.2
		c-0.27,0.08-1.34,0.26-3.23,0.54c-1.67,4.23-2.51,6.65-2.54,7.27c-0.01,0.31-0.05,0.53-0.09,0.66c-0.05,0.13-0.11,0.29-0.18,0.46
		s-0.12,0.31-0.16,0.4c-0.04,0.09-0.07,0.19-0.12,0.3c-0.04,0.11-0.08,0.19-0.11,0.24S265.51,565.34,265.47,565.41z M274.74,548.47
		c0.24-0.41,0.36-0.79,0.36-1.16c0-0.36-0.13-0.55-0.4-0.55c-0.53,0-1.29,0.69-2.27,2.06c-0.57,0.81-1.08,1.62-1.53,2.42
		c-0.9,1.68-1.47,2.91-1.72,3.67l-0.17,0.34c0.98-0.73,2.02-1.76,3.13-3.11C273.25,550.8,274.11,549.58,274.74,548.47z"/>
	<path class="st8" d="M277.31,552.48c0.76,0,1.13,0.36,1.13,1.09c0,0.38-0.11,0.69-0.32,0.92c-0.35,0.52-0.92,0.97-1.7,1.35
		s-1.45,0.6-1.99,0.64c-0.2,0.01-0.3-0.04-0.32-0.17c-0.01-0.06,0-0.09,0.05-0.11c0.05-0.01,0.09-0.02,0.12-0.02
		c0.32-0.03,0.74-0.18,1.24-0.46c0.94-0.5,1.62-1.02,2.06-1.55c0.18-0.25,0.27-0.49,0.27-0.72c0-0.23-0.11-0.35-0.34-0.35
		c-0.18,0-0.43,0.08-0.74,0.23c-0.66,0.31-1.35,0.84-2.08,1.61c-0.73,0.76-1.2,1.51-1.43,2.24c-0.07,0.22-0.11,0.45-0.11,0.66
		s0.09,0.42,0.27,0.62c0.18,0.2,0.46,0.29,0.84,0.29c0.42,0,0.9-0.11,1.45-0.34c1.58-0.64,2.8-1.62,3.65-2.92
		c0.08-0.11,0.16-0.13,0.23-0.06c0.06,0.03,0.08,0.06,0.08,0.11s-0.02,0.09-0.06,0.15c-0.42,0.7-0.95,1.32-1.6,1.87
		c-1.25,1.06-2.46,1.6-3.63,1.6c-1.01,0-1.71-0.3-2.12-0.9c-0.15-0.24-0.23-0.53-0.23-0.86s0.09-0.73,0.27-1.2
		c0.35-0.8,1.1-1.62,2.25-2.46C275.72,552.9,276.63,552.48,277.31,552.48z"/>
	<path class="st8" d="M281.17,552.77c0.35,0,0.56,0.11,0.63,0.34c0.03,0.13,0.01,0.25-0.05,0.37c-0.06,0.12-0.11,0.21-0.14,0.28
		c-0.03,0.07-0.05,0.13-0.06,0.17c-0.07,0.14-0.14,0.27-0.21,0.4c-0.8,1.6-1.22,2.61-1.26,3.04c-0.01,0.13-0.02,0.29-0.02,0.48
		c0,0.2,0.06,0.36,0.17,0.48c0.2,0.22,0.48,0.24,0.84,0.04s0.87-0.59,1.52-1.18s1.18-1.16,1.59-1.72c0.06-0.07,0.12-0.09,0.19-0.05
		s0.11,0.07,0.11,0.1c0,0.04-0.01,0.07-0.04,0.12c-0.21,0.38-0.59,0.86-1.13,1.45c-0.9,0.97-1.64,1.56-2.25,1.79
		c-0.35,0.13-0.64,0.19-0.88,0.19c-0.56,0-0.93-0.27-1.11-0.8c-0.03-0.1-0.04-0.22-0.04-0.36c0-0.49,0.22-1.23,0.67-2.23
		c-0.07,0.15-0.34,0.5-0.82,1.05c-0.13,0.14-0.22,0.14-0.29,0c-0.01-0.03-0.02-0.07-0.02-0.12c0-0.05,0.03-0.11,0.08-0.18
		c0.69-0.85,1.22-1.58,1.62-2.16c-0.03-0.07-0.01-0.16,0.04-0.27c0.28-0.78,0.53-1.2,0.74-1.24
		C281.07,552.77,281.11,552.77,281.17,552.77z M282.83,549.98l-0.17,0.67c0,0.13-0.09,0.33-0.27,0.61
		c-0.18,0.28-0.32,0.42-0.42,0.42c-0.6,0-0.9-0.15-0.9-0.44c0-0.06,0.3-0.32,0.9-0.78l0.36-0.27c0.22-0.2,0.36-0.29,0.42-0.29
		S282.83,549.93,282.83,549.98z"/>
	<path class="st8" d="M292.03,553.05c0,0.17-0.16,0.25-0.48,0.25c-0.73,0.28-1.39,0.68-2,1.2l-1.51,1.18c0,0.41,0.26,1.08,0.78,2.02
		c0.24,0.46,0.54,0.69,0.91,0.69c0.37,0,0.81-0.26,1.31-0.78c0.24-0.25,0.81-0.96,1.72-2.12c0.07-0.08,0.14-0.1,0.2-0.06
		c0.06,0.04,0.09,0.08,0.09,0.13s-0.01,0.09-0.04,0.15c-0.64,0.98-1.29,1.78-1.93,2.39c-0.66,0.6-1.27,0.9-1.83,0.9
		c-0.11,0-0.22-0.01-0.34-0.04c-0.7-0.15-1.3-0.97-1.79-2.44c-2.86,2.9-4.31,4.94-4.37,6.13c0,0.17-0.05,0.25-0.15,0.25l-0.1-0.04
		c-0.06-0.06-0.08-0.13-0.08-0.21c0-0.76,0.37-1.67,1.11-2.74c0.74-1.07,1.48-2,2.23-2.78s1.11-1.2,1.11-1.24
		c0-0.34-0.1-0.68-0.29-1.02c-0.2-0.34-0.36-0.54-0.48-0.59s-0.26-0.03-0.4,0.05c-0.22,0.14-0.45,0.36-0.68,0.66
		c-0.23,0.3-0.36,0.47-0.4,0.51s-0.08,0.1-0.14,0.17s-0.12,0.14-0.19,0.22c-0.07,0.08-0.14,0.11-0.22,0.1
		c-0.08-0.01-0.12-0.04-0.12-0.12s0.03-0.14,0.08-0.22c0.06-0.08,0.22-0.3,0.49-0.66s0.5-0.67,0.69-0.91
		c0.19-0.24,0.41-0.48,0.67-0.7c0.26-0.22,0.49-0.34,0.68-0.34c0.2,0,0.38,0.07,0.55,0.21s0.28,0.28,0.34,0.42
		c0.06,0.14,0.14,0.39,0.24,0.75c0.11,0.36,0.18,0.6,0.22,0.72c1.05-1.04,2.1-1.88,3.15-2.54c0.11-0.04,0.22-0.06,0.31-0.06
		l0.32,0.06C291.92,552.71,292.03,552.85,292.03,553.05z"/>
	<path class="st8" d="M294.53,552.77c0.35,0,0.56,0.11,0.63,0.34c0.03,0.13,0.01,0.25-0.05,0.37c-0.06,0.12-0.11,0.21-0.14,0.28
		c-0.03,0.07-0.05,0.13-0.06,0.17c-0.07,0.14-0.14,0.27-0.21,0.4c-0.8,1.6-1.22,2.61-1.26,3.04c-0.01,0.13-0.02,0.29-0.02,0.48
		c0,0.2,0.06,0.36,0.17,0.48c0.2,0.22,0.48,0.24,0.84,0.04s0.87-0.59,1.52-1.18s1.18-1.16,1.59-1.72c0.06-0.07,0.12-0.09,0.19-0.05
		s0.11,0.07,0.11,0.1c0,0.04-0.01,0.07-0.04,0.12c-0.21,0.38-0.59,0.86-1.13,1.45c-0.9,0.97-1.64,1.56-2.25,1.79
		c-0.35,0.13-0.64,0.19-0.88,0.19c-0.56,0-0.93-0.27-1.11-0.8c-0.03-0.1-0.04-0.22-0.04-0.36c0-0.49,0.22-1.23,0.67-2.23
		c-0.07,0.15-0.34,0.5-0.82,1.05c-0.13,0.14-0.22,0.14-0.29,0c-0.01-0.03-0.02-0.07-0.02-0.12c0-0.05,0.03-0.11,0.08-0.18
		c0.69-0.85,1.22-1.58,1.62-2.16c-0.03-0.07-0.01-0.16,0.04-0.27c0.28-0.78,0.53-1.2,0.74-1.24
		C294.42,552.77,294.47,552.77,294.53,552.77z M296.18,549.98l-0.17,0.67c0,0.13-0.09,0.33-0.27,0.61
		c-0.18,0.28-0.32,0.42-0.42,0.42c-0.6,0-0.9-0.15-0.9-0.44c0-0.06,0.3-0.32,0.9-0.78l0.36-0.27c0.22-0.2,0.36-0.29,0.42-0.29
		S296.18,549.93,296.18,549.98z"/>
	<path class="st8" d="M298.31,558.82c-0.22,0-0.46-0.07-0.72-0.2c-0.26-0.13-0.48-0.32-0.66-0.57s-0.27-0.51-0.27-0.79
		c0-0.28,0.06-0.55,0.19-0.8c0.28-0.59,0.73-1.16,1.35-1.71c0.62-0.55,1.27-1.03,1.94-1.42c0.67-0.39,1.2-0.64,1.6-0.74
		c0.39-0.1,0.77-0.15,1.14-0.15s0.69,0.09,0.96,0.28c0.27,0.19,0.4,0.39,0.4,0.6c0,0.07-0.01,0.11-0.02,0.13s-0.05,0.01-0.11-0.02
		c-0.17-0.27-0.51-0.4-1.04-0.4s-1.12,0.17-1.79,0.51s-1.29,0.77-1.88,1.29c-0.49,0.46-0.92,0.98-1.29,1.56
		c-0.37,0.58-0.56,1-0.56,1.27c0,0.52,0.15,0.78,0.44,0.78s0.74-0.24,1.34-0.71c0.99-0.84,1.67-1.46,2.04-1.85
		c1.29-1.39,1.98-2.08,2.08-2.08c0.17,0,0.37,0.05,0.61,0.15c0.24,0.1,0.32,0.22,0.23,0.36c-0.71,1.01-1.13,2.02-1.26,3.04
		c-0.01,0.13-0.02,0.29-0.02,0.48c0,0.2,0.06,0.36,0.17,0.48c0.21,0.22,0.5,0.24,0.86,0.04s0.87-0.59,1.52-1.18s1.17-1.16,1.56-1.72
		c0.06-0.07,0.12-0.09,0.19-0.05c0.07,0.04,0.1,0.07,0.1,0.09c0,0.21-0.33,0.67-1,1.38c-0.67,0.71-1.17,1.19-1.52,1.44
		c-0.66,0.49-1.27,0.74-1.83,0.74c-0.53,0-0.89-0.27-1.07-0.8c-0.04-0.17-0.06-0.36-0.06-0.57c0-0.63,0.13-1.29,0.4-2
		c-0.06,0.03-0.31,0.31-0.78,0.84c-0.46,0.53-1,1.04-1.61,1.53C299.35,558.58,298.8,558.82,298.31,558.82z"/>
	<path class="st8" d="M102.71,592.41c-0.03,0.06-0.07,0.11-0.1,0.14c-0.04,0.03-0.18,0.11-0.43,0.25c-0.25,0.14-0.48,0.21-0.68,0.21
		s-0.3-0.05-0.3-0.15c0-0.04,0.01-0.1,0.04-0.17c0.25-0.48,1.55-3.7,3.88-9.68c-0.43,0.06-0.76,0.08-0.97,0.08s-0.37-0.04-0.49-0.14
		c-0.12-0.09-0.18-0.21-0.18-0.36c0-0.15,0.16-0.28,0.47-0.4s0.56-0.18,0.72-0.18s0.31,0.06,0.42,0.17
		c0.11,0.11,0.19,0.17,0.23,0.17h0.06l0.61-1.55c0.25-0.7,0.64-1.61,1.15-2.74c0.52-1.13,0.99-2.03,1.41-2.7
		c0.94-1.41,1.88-2.12,2.81-2.12l0.5,0.06l0.42,0.15c0.41,0.24,0.61,0.56,0.61,0.98s-0.11,0.86-0.34,1.33
		c-0.38,0.81-1.15,1.87-2.31,3.17s-2.28,2.39-3.36,3.25c1.15-0.1,1.89-0.15,2.22-0.15s0.5,0.04,0.51,0.13c0,0.06-0.13,0.12-0.4,0.2
		c-0.27,0.08-1.34,0.26-3.23,0.54c-1.67,4.23-2.51,6.65-2.54,7.27c-0.01,0.31-0.05,0.53-0.09,0.66c-0.05,0.13-0.11,0.29-0.18,0.46
		s-0.12,0.31-0.16,0.4c-0.04,0.09-0.07,0.19-0.12,0.3c-0.04,0.11-0.08,0.19-0.11,0.24S102.74,592.34,102.71,592.41z M111.98,575.47
		c0.24-0.41,0.36-0.79,0.36-1.16c0-0.36-0.13-0.55-0.4-0.55c-0.53,0-1.29,0.69-2.27,2.06c-0.57,0.81-1.08,1.62-1.53,2.42
		c-0.9,1.68-1.47,2.91-1.72,3.67l-0.17,0.34c0.98-0.73,2.02-1.76,3.13-3.11C110.48,577.8,111.35,576.58,111.98,575.47z"/>
	<path class="st8" d="M114.04,583.28c0.25-0.52,0.38-0.92,0.38-1.2s-0.03-0.5-0.09-0.66c-0.06-0.16-0.04-0.3,0.08-0.41
		c0.12-0.11,0.27-0.15,0.45-0.13c0.28,0.07,0.42,0.39,0.42,0.95s-0.33,1.29-0.99,2.21c0.01,0.38,0.21,0.57,0.59,0.57
		s0.95-0.41,1.72-1.22c0.36-0.42,0.59-0.69,0.68-0.82c0.09-0.13,0.17-0.17,0.24-0.14s0.11,0.07,0.11,0.09c0,0.14-0.25,0.5-0.76,1.09
		c-0.8,0.98-1.51,1.47-2.12,1.47c-0.41,0-0.69-0.17-0.86-0.53c-0.28,0.29-0.55,0.57-0.82,0.82c-0.55,0.46-1.15,0.69-1.83,0.69
		c-0.38,0-0.69-0.09-0.94-0.27c-0.49-0.29-0.74-0.82-0.74-1.58c0-0.83,0.28-1.67,0.84-2.52c0.32-0.5,0.7-0.95,1.13-1.32
		c0.69-0.6,1.34-0.9,1.95-0.9c0.15,0,0.3,0.02,0.44,0.06c0.42,0.14,0.63,0.41,0.63,0.8c0,0.32-0.08,0.48-0.25,0.48
		c-0.07-0.03-0.1-0.13-0.1-0.32c0-0.25-0.14-0.38-0.42-0.38c-0.49,0-1.12,0.45-1.89,1.34c-0.77,0.9-1.23,1.8-1.39,2.71
		c-0.03,0.15-0.04,0.33-0.04,0.51c0,0.19,0.06,0.41,0.19,0.65c0.13,0.24,0.36,0.37,0.7,0.37c0.34,0,0.72-0.15,1.12-0.46
		s0.77-0.7,1.09-1.18l-0.06-0.13c-0.06-0.22-0.03-0.41,0.08-0.55C113.71,583.27,113.85,583.23,114.04,583.28z"/>
	<path class="st8" d="M119.83,586.12c-0.71,0-1.07-0.43-1.07-1.29s0.62-1.92,1.85-3.18c0.1-0.1,0.17-0.17,0.21-0.23l0.15-0.21
		c0.2-0.27,0.29-0.43,0.27-0.5l-0.06-0.19c-0.06-0.17-0.29-0.29-0.69-0.37s-0.73-0.12-0.99-0.12c-1.26,1.78-1.99,2.79-2.18,3.05
		c-0.2,0.25-0.33,0.36-0.4,0.31c-0.07-0.04-0.11-0.09-0.11-0.15c0-0.06,0.04-0.14,0.13-0.25c0.76-0.92,1.41-1.91,1.95-2.96
		c-0.17-0.03-0.29-0.09-0.38-0.18s-0.09-0.25-0.02-0.46c0.07-0.22,0.28-0.51,0.64-0.87c0.36-0.36,0.67-0.61,0.93-0.73
		c0.27-0.13,0.43-0.2,0.5-0.23s0.15-0.04,0.23-0.04c0.17,0,0.11,0.25-0.17,0.76l-0.82,1.3c0.63,0.04,1.17,0.06,1.62,0.06l0.74-0.02
		c0.24,0,0.41,0.03,0.52,0.09c0.11,0.06,0.14,0.17,0.08,0.33c-0.1,0.27-0.34,0.62-0.73,1.07c-0.84,0.98-1.47,2.02-1.89,3.13
		c-0.1,0.27-0.15,0.5-0.15,0.69c0,0.41,0.15,0.61,0.44,0.61c0.1,0,0.28-0.08,0.56-0.23c0.27-0.15,0.73-0.52,1.38-1.1
		c0.64-0.58,1.16-1.15,1.55-1.71c0.06-0.07,0.12-0.09,0.2-0.05s0.12,0.07,0.12,0.1c0,0.04-0.01,0.07-0.04,0.12
		c-0.21,0.38-0.59,0.86-1.13,1.45s-1.08,1.06-1.6,1.43C120.97,585.92,120.42,586.12,119.83,586.12z"/>
	<path class="st8" d="M128.53,579.48c0.76,0,1.13,0.36,1.13,1.09c0,0.38-0.11,0.69-0.32,0.92c-0.35,0.52-0.92,0.97-1.7,1.35
		s-1.45,0.6-1.99,0.64c-0.2,0.01-0.3-0.04-0.32-0.17c-0.01-0.06,0-0.09,0.05-0.11c0.05-0.01,0.09-0.02,0.12-0.02
		c0.32-0.03,0.74-0.18,1.24-0.46c0.94-0.5,1.62-1.02,2.06-1.55c0.18-0.25,0.27-0.49,0.27-0.72c0-0.23-0.11-0.35-0.34-0.35
		c-0.18,0-0.43,0.08-0.74,0.23c-0.66,0.31-1.35,0.84-2.08,1.61c-0.73,0.76-1.2,1.51-1.43,2.24c-0.07,0.22-0.11,0.45-0.11,0.66
		s0.09,0.42,0.27,0.62c0.18,0.2,0.46,0.29,0.84,0.29c0.42,0,0.9-0.11,1.45-0.34c1.58-0.64,2.8-1.62,3.65-2.92
		c0.08-0.11,0.16-0.13,0.23-0.06c0.06,0.03,0.08,0.06,0.08,0.11s-0.02,0.09-0.06,0.15c-0.42,0.7-0.95,1.32-1.6,1.87
		c-1.25,1.06-2.46,1.6-3.63,1.6c-1.01,0-1.71-0.3-2.12-0.9c-0.15-0.24-0.23-0.53-0.23-0.86s0.09-0.73,0.27-1.2
		c0.35-0.8,1.1-1.62,2.25-2.46C126.94,579.9,127.85,579.48,128.53,579.48z"/>
	<path class="st8" d="M131.46,580.91c0-0.67-0.2-1.01-0.59-1.01c-0.08,0-0.17,0.01-0.26,0.03c-0.09,0.02-0.14,0-0.14-0.05
		s0.04-0.13,0.13-0.21c0.08-0.07,0.37-0.13,0.86-0.17c0.59,0,0.96,0.08,1.1,0.25c0.15,0.17,0.22,0.34,0.22,0.5s-0.13,0.58-0.39,1.25
		c-0.26,0.67-0.4,1.01-0.41,1.04c-0.42,1.26-0.61,2.05-0.57,2.37c1.26-1.69,2.09-2.75,2.48-3.17c0.83-0.91,1.41-1.53,1.76-1.87
		c0.81-0.76,1.53-1.27,2.14-1.53c0.18-0.07,0.34-0.1,0.48-0.1c0.46,0,0.78,0.14,0.95,0.42c0.06,0.07,0.08,0.14,0.08,0.2
		c0,0.06-0.02,0.14-0.06,0.22s-0.12,0.08-0.23-0.01c-0.11-0.09-0.36-0.14-0.76-0.14c-0.64,0-1.72,0.76-3.23,2.27
		c-0.91,0.94-1.75,1.92-2.51,2.94c-0.76,1.02-1.17,1.75-1.23,2.18c0,0.11-0.1,0.17-0.31,0.17s-0.37-0.09-0.47-0.26
		c-0.11-0.18-0.16-0.32-0.16-0.44s0.01-0.22,0.02-0.31s0.15-0.61,0.42-1.54c0.27-0.94,0.43-1.56,0.5-1.87
		c-0.17,0.28-0.4,0.62-0.69,1.03c-0.1,0.11-0.18,0.14-0.24,0.09c-0.06-0.05-0.09-0.09-0.09-0.14s0.01-0.09,0.04-0.15
		C130.9,582.11,131.28,581.44,131.46,580.91z"/>
	<path class="st8" d="M141.84,579.48c0.76,0,1.13,0.36,1.13,1.09c0,0.38-0.11,0.69-0.32,0.92c-0.35,0.52-0.92,0.97-1.7,1.35
		s-1.45,0.6-1.99,0.64c-0.2,0.01-0.3-0.04-0.32-0.17c-0.01-0.06,0-0.09,0.05-0.11c0.05-0.01,0.09-0.02,0.12-0.02
		c0.32-0.03,0.74-0.18,1.24-0.46c0.94-0.5,1.62-1.02,2.06-1.55c0.18-0.25,0.27-0.49,0.27-0.72c0-0.23-0.11-0.35-0.34-0.35
		c-0.18,0-0.43,0.08-0.74,0.23c-0.66,0.31-1.35,0.84-2.08,1.61c-0.73,0.76-1.2,1.51-1.43,2.24c-0.07,0.22-0.11,0.45-0.11,0.66
		s0.09,0.42,0.27,0.62c0.18,0.2,0.46,0.29,0.84,0.29c0.42,0,0.9-0.11,1.45-0.34c1.58-0.64,2.8-1.62,3.65-2.92
		c0.08-0.11,0.16-0.13,0.23-0.06c0.06,0.03,0.08,0.06,0.08,0.11s-0.02,0.09-0.06,0.15c-0.42,0.7-0.95,1.32-1.6,1.87
		c-1.25,1.06-2.46,1.6-3.63,1.6c-1.01,0-1.71-0.3-2.12-0.9c-0.15-0.24-0.23-0.53-0.23-0.86s0.09-0.73,0.27-1.2
		c0.35-0.8,1.1-1.62,2.25-2.46C140.26,579.9,141.17,579.48,141.84,579.48z"/>
	<path class="st8" d="M146.46,586.12c-0.71,0-1.07-0.43-1.07-1.29s0.62-1.92,1.85-3.18c0.1-0.1,0.17-0.17,0.21-0.23l0.15-0.21
		c0.2-0.27,0.29-0.43,0.27-0.5l-0.06-0.19c-0.06-0.17-0.29-0.29-0.69-0.37s-0.73-0.12-0.99-0.12c-1.26,1.78-1.99,2.79-2.18,3.05
		c-0.2,0.25-0.33,0.36-0.4,0.31c-0.07-0.04-0.11-0.09-0.11-0.15c0-0.06,0.04-0.14,0.13-0.25c0.76-0.92,1.41-1.91,1.95-2.96
		c-0.17-0.03-0.29-0.09-0.38-0.18s-0.09-0.25-0.02-0.46c0.07-0.22,0.28-0.51,0.64-0.87c0.36-0.36,0.67-0.61,0.93-0.73
		c0.27-0.13,0.43-0.2,0.5-0.23s0.15-0.04,0.23-0.04c0.17,0,0.11,0.25-0.17,0.76l-0.82,1.3c0.63,0.04,1.17,0.06,1.62,0.06l0.74-0.02
		c0.24,0,0.41,0.03,0.52,0.09c0.11,0.06,0.14,0.17,0.08,0.33c-0.1,0.27-0.34,0.62-0.73,1.07c-0.84,0.98-1.47,2.02-1.89,3.13
		c-0.1,0.27-0.15,0.5-0.15,0.69c0,0.41,0.15,0.61,0.44,0.61c0.1,0,0.28-0.08,0.56-0.23c0.27-0.15,0.73-0.52,1.38-1.1
		c0.64-0.58,1.16-1.15,1.55-1.71c0.06-0.07,0.12-0.09,0.2-0.05s0.12,0.07,0.12,0.1c0,0.04-0.01,0.07-0.04,0.12
		c-0.21,0.38-0.59,0.86-1.13,1.45s-1.08,1.06-1.6,1.43C147.59,585.92,147.05,586.12,146.46,586.12z"/>
	<path class="st8" d="M152.72,584.67v0.36c0,0.1-0.08,0.26-0.23,0.48c-0.15,0.22-0.27,0.34-0.36,0.34c-0.46,0-0.69-0.11-0.69-0.34
		c0-0.11,0.14-0.28,0.42-0.5c0.39-0.31,0.63-0.46,0.72-0.46S152.72,584.58,152.72,584.67z"/>
</g>
<g>
	<path class="st8" d="M200.02,596.12l-0.04-0.34c0-0.98,0.43-1.85,1.28-2.63c1.53-1.36,3.99-2.2,7.39-2.52
		c0.52-0.04,1.12-0.06,1.82-0.06s1.57,0.1,2.64,0.3c1.06,0.2,1.94,0.58,2.63,1.12c1.09,0.9,1.64,2.07,1.64,3.52
		c0,1.45-0.43,2.79-1.29,4.01c-0.86,1.22-1.96,2.17-3.29,2.84c-1.33,0.67-2.75,1.01-4.26,1.01c-1.51,0-2.74-0.36-3.68-1.07
		c-0.01,0.01-0.08,0.13-0.2,0.36c-0.12,0.22-0.24,0.44-0.37,0.65c-0.64,1.02-1.22,1.16-1.72,0.42c-0.29-0.43-0.44-0.95-0.44-1.55
		s0.06-1.33,0.19-2.18c0.01-0.08-0.04-0.28-0.17-0.59c-0.04-0.14,0.01-0.28,0.15-0.42c0.11-0.08,0.27-0.15,0.47-0.21
		c0.2-0.06,0.34-0.06,0.42,0c0.08,0.06,0.06,0.21-0.05,0.45c-0.11,0.25-0.17,0.47-0.17,0.68c0,0.21,0.22,0.52,0.65,0.93
		c0.43,0.41,0.7,0.63,0.8,0.66c0.34-0.83,1.05-2.37,2.14-4.64c0.13-0.25,0.19-0.44,0.19-0.57s-0.01-0.22-0.04-0.29
		c0.07-0.41,0.51-1.05,1.33-1.93c0.82-0.88,1.48-1.32,1.98-1.32c0.2,0,0.44,0.07,0.74,0.2s0.46,0.32,0.5,0.56
		c0,0.08-0.01,0.13-0.02,0.14c-0.01,0.01-0.05,0-0.1-0.03c-0.06-0.03-0.1-0.04-0.13-0.04c-0.45,0-0.98,0.33-1.59,0.98
		c-0.61,0.65-1.21,1.5-1.82,2.55c-1.06,1.82-1.92,3.43-2.56,4.83c0.87,0.63,1.81,0.95,2.83,0.95c1.33,0,2.6-0.34,3.82-1.03
		c1.22-0.69,2.2-1.48,2.94-2.37c1.2-1.47,1.81-2.92,1.81-4.35c0-1.05-0.42-1.99-1.25-2.81c-0.83-0.83-2.15-1.27-3.96-1.32
		c-0.08,0-0.17,0-0.25,0c-1.43,0-2.93,0.24-4.52,0.7s-2.93,1.14-4.05,2c-1.12,0.87-1.68,1.77-1.68,2.71c0,0.24,0.07,0.45,0.22,0.63
		c0.15,0.18,0.3,0.31,0.46,0.38c0.16,0.07,0.36,0.15,0.61,0.23c0.24,0.08,0.41,0.14,0.48,0.18c0.08,0.04,0.12,0.07,0.14,0.12
		c0.03,0.11-0.07,0.17-0.29,0.17c-0.52-0.04-1.04-0.23-1.56-0.58c-0.52-0.34-0.79-0.75-0.79-1.21
		C200,596.26,200.01,596.19,200.02,596.12z M202.86,600.72c0,1.89,0.13,2.83,0.4,2.83c0.2,0,0.48-0.49,0.84-1.47
		c0.03-0.04,0.04-0.07,0.04-0.08c-0.1-0.08-0.3-0.29-0.62-0.62C203.21,601.05,202.98,600.83,202.86,600.72z"/>
	<path class="st8" d="M222.26,596.5c0.76,0,1.13,0.36,1.13,1.09c0,0.38-0.1,0.69-0.32,0.92c-0.35,0.52-0.92,0.97-1.7,1.35
		c-0.78,0.38-1.45,0.6-2,0.64c-0.2,0.01-0.3-0.04-0.31-0.17c-0.01-0.06,0-0.09,0.05-0.11c0.05-0.01,0.09-0.02,0.12-0.02
		c0.32-0.03,0.73-0.18,1.24-0.46c0.94-0.5,1.62-1.02,2.06-1.55c0.18-0.25,0.27-0.49,0.27-0.72c0-0.23-0.11-0.35-0.34-0.35
		c-0.18,0-0.43,0.08-0.73,0.23c-0.66,0.31-1.35,0.84-2.08,1.61c-0.73,0.76-1.2,1.51-1.43,2.24c-0.07,0.22-0.1,0.45-0.1,0.66
		s0.09,0.42,0.27,0.62c0.18,0.2,0.46,0.29,0.84,0.29c0.42,0,0.9-0.11,1.45-0.34c1.58-0.64,2.8-1.62,3.65-2.92
		c0.08-0.11,0.16-0.13,0.23-0.06c0.06,0.03,0.08,0.06,0.08,0.11s-0.02,0.09-0.06,0.15c-0.42,0.7-0.95,1.32-1.6,1.87
		c-1.25,1.06-2.46,1.6-3.63,1.6c-1.01,0-1.71-0.3-2.12-0.9c-0.15-0.24-0.23-0.53-0.23-0.86s0.09-0.73,0.27-1.2
		c0.35-0.8,1.1-1.62,2.25-2.46C220.68,596.92,221.59,596.5,222.26,596.5z"/>
	<path class="st8" d="M229.38,597.99l0.1-0.42c0-0.28-0.1-0.42-0.31-0.42c-0.57,0-1.36,0.45-2.35,1.34c-0.99,0.9-1.62,1.8-1.89,2.71
		c-0.07,0.24-0.1,0.45-0.1,0.64c0,0.19,0.04,0.35,0.13,0.47c0.17,0.25,0.43,0.38,0.78,0.38c0.35,0,0.73-0.05,1.13-0.15
		c0.9-0.25,1.64-0.61,2.24-1.08c0.59-0.47,1.22-1.12,1.88-1.96c0.06-0.07,0.12-0.09,0.2-0.06c0.08,0.03,0.12,0.07,0.12,0.12
		c0,0.05-0.02,0.12-0.06,0.22c-0.67,0.91-1.38,1.65-2.11,2.22c-0.74,0.57-1.59,0.93-2.55,1.1c-0.28,0.04-0.54,0.06-0.78,0.06
		c-0.69,0-1.21-0.17-1.56-0.5s-0.54-0.71-0.54-1.11c0-0.41,0.1-0.85,0.29-1.32c0.35-0.8,1.1-1.62,2.25-2.46
		c1.15-0.84,2.06-1.26,2.73-1.26c0.17,0,0.33,0.02,0.48,0.06c0.39,0.14,0.59,0.36,0.59,0.67c0,0.21-0.08,0.45-0.23,0.71
		c-0.15,0.27-0.27,0.36-0.35,0.28C229.38,598.16,229.35,598.08,229.38,597.99z"/>
	<path class="st8" d="M235.58,596.5c0.76,0,1.13,0.36,1.13,1.09c0,0.38-0.1,0.69-0.32,0.92c-0.35,0.52-0.92,0.97-1.7,1.35
		c-0.78,0.38-1.45,0.6-2,0.64c-0.2,0.01-0.3-0.04-0.31-0.17c-0.01-0.06,0-0.09,0.05-0.11c0.05-0.01,0.09-0.02,0.12-0.02
		c0.32-0.03,0.73-0.18,1.24-0.46c0.94-0.5,1.62-1.02,2.06-1.55c0.18-0.25,0.27-0.49,0.27-0.72c0-0.23-0.11-0.35-0.34-0.35
		c-0.18,0-0.43,0.08-0.73,0.23c-0.66,0.31-1.35,0.84-2.08,1.61c-0.73,0.76-1.2,1.51-1.43,2.24c-0.07,0.22-0.1,0.45-0.1,0.66
		s0.09,0.42,0.27,0.62c0.18,0.2,0.46,0.29,0.84,0.29c0.42,0,0.9-0.11,1.45-0.34c1.58-0.64,2.8-1.62,3.65-2.92
		c0.08-0.11,0.16-0.13,0.23-0.06c0.06,0.03,0.08,0.06,0.08,0.11s-0.02,0.09-0.06,0.15c-0.42,0.7-0.95,1.32-1.6,1.87
		c-1.25,1.06-2.46,1.6-3.63,1.6c-1.01,0-1.71-0.3-2.12-0.9c-0.15-0.24-0.23-0.53-0.23-0.86s0.09-0.73,0.27-1.2
		c0.35-0.8,1.1-1.62,2.25-2.46C233.99,596.92,234.9,596.5,235.58,596.5z"/>
	<path class="st8" d="M240.17,597.15c0,0.1-0.08,0.31-0.23,0.64c-0.15,0.33-0.6,1.46-1.32,3.39c0.5-0.62,1.14-1.33,1.91-2.14
		c1.55-1.62,2.63-2.44,3.21-2.44c0.13,0,0.25,0.04,0.37,0.1c0.12,0.07,0.18,0.23,0.18,0.47c0,0.25-0.08,0.52-0.23,0.82
		c-0.15,0.3-0.33,0.67-0.52,1.1c-0.2,0.43-0.33,0.71-0.4,0.82c1.18-1.06,2.06-1.71,2.67-1.94c0.6-0.23,1-0.35,1.2-0.35
		c0.2,0,0.29,0.07,0.29,0.21c0,0.08-0.1,0.29-0.31,0.61c-0.21,0.32-0.44,0.8-0.69,1.43c-0.25,0.63-0.39,1.07-0.42,1.32
		c-0.03,0.25-0.04,0.48-0.04,0.67c0,0.2,0.06,0.36,0.17,0.48c0.21,0.22,0.5,0.24,0.86,0.04c0.36-0.2,0.87-0.59,1.52-1.18
		s1.17-1.16,1.56-1.72c0.06-0.07,0.12-0.09,0.2-0.05c0.08,0.04,0.12,0.07,0.12,0.1c0,0.04-0.01,0.07-0.04,0.12
		c-0.21,0.38-0.59,0.86-1.13,1.45c-0.9,0.97-1.65,1.56-2.25,1.79c-0.66,0.22-1.13,0.25-1.43,0.08s-0.48-0.36-0.55-0.57
		c-0.07-0.21-0.1-0.42-0.1-0.63c0-0.66,0.13-1.32,0.39-1.97c0.26-0.66,0.47-1.11,0.62-1.34c-0.53,0.22-0.99,0.5-1.36,0.84
		c-0.57,0.5-1.04,0.95-1.39,1.32l-0.42,0.46c-0.13,0.31-0.35,0.48-0.66,0.52c-0.32,0.04-0.47-0.06-0.45-0.31
		c0.03-0.27,0.29-0.86,0.78-1.79c0.49-0.92,0.73-1.44,0.73-1.54c0-0.1-0.06-0.16-0.17-0.16c-0.25,0-0.71,0.29-1.36,0.86
		c-0.43,0.41-1.07,1.17-1.92,2.3c-0.85,1.13-1.33,1.73-1.44,1.8c-0.5,0.25-0.82,0.38-0.95,0.38s-0.19-0.02-0.19-0.06
		s0.02-0.11,0.06-0.19s0.47-1.3,1.28-3.65c-0.31,0.48-0.59,0.84-0.84,1.09c-0.11,0.13-0.17,0.1-0.17-0.07
		c0-0.17,0.05-0.33,0.15-0.45c0.63-0.83,1.09-1.53,1.39-2.1c0.08-0.49,0.25-0.78,0.5-0.86c0.15-0.06,0.33-0.06,0.54,0
		C240.07,596.91,240.17,597.01,240.17,597.15z"/>
	<path class="st8" d="M255.57,596.94c0.25,0,0.55,0.13,0.9,0.39c0.35,0.26,0.55,0.51,0.59,0.77c0.01,0.1,0.02,0.19,0.02,0.27
		c0,0.63-0.31,1.31-0.92,2.03c-0.62,0.72-1.31,1.33-2.08,1.84c-1.19,0.81-2.37,1.22-3.55,1.22c-0.48,0-0.85-0.06-1.13-0.19
		c-0.22-0.11,0.06-0.17,0.84-0.17c0.85,0,1.96-0.5,3.32-1.51c1.32-0.92,2.11-2.03,2.39-3.32c0.04-0.2,0.04-0.4-0.01-0.6
		c-0.05-0.2-0.17-0.3-0.37-0.3c-0.63,0-1.46,0.44-2.48,1.32c-0.43,0.36-0.88,0.85-1.33,1.47c-0.46,0.62-0.68,1.12-0.68,1.51
		c0,0.06,0.01,0.12,0.03,0.18c0.02,0.06,0,0.17-0.07,0.3c-0.18,0.36-0.44,0.34-0.78-0.06c-0.08-0.21-0.13-0.43-0.13-0.65
		c0-0.64,0.1-1.32,0.29-2.04c-0.06,0.06-0.18,0.23-0.37,0.51s-0.41,0.57-0.66,0.85c-0.13,0.14-0.22,0.14-0.29,0
		c-0.01-0.03-0.02-0.07-0.02-0.12c0-0.05,0.03-0.11,0.08-0.18c1.09-1.36,1.73-2.24,1.91-2.65c0.25-0.7,0.64-1.61,1.15-2.74
		s0.99-2.03,1.43-2.7c0.9-1.41,1.82-2.12,2.77-2.12c0.17,0,0.34,0.02,0.53,0.06l0.42,0.15c0.41,0.24,0.61,0.54,0.61,0.91
		s-0.11,0.77-0.34,1.21c-0.36,0.74-1.15,1.68-2.35,2.8c-1.2,1.13-2.37,2.08-3.51,2.87c-0.28,0.5-0.5,1.16-0.65,1.97
		c0.52-0.77,1.19-1.51,2.03-2.23C254,597.3,254.8,596.94,255.57,596.94z M254.9,595.05c1.67-1.68,2.5-2.93,2.5-3.74
		c0-0.34-0.13-0.5-0.38-0.5c-0.2,0-0.46,0.13-0.8,0.38c-1.44,1.11-2.84,3.18-4.2,6.24C252.97,596.79,253.93,596,254.9,595.05z"/>
	<path class="st8" d="M262.73,596.5c0.76,0,1.13,0.36,1.13,1.09c0,0.38-0.11,0.69-0.32,0.92c-0.35,0.52-0.92,0.97-1.7,1.35
		s-1.45,0.6-1.99,0.64c-0.2,0.01-0.3-0.04-0.32-0.17c-0.01-0.06,0-0.09,0.05-0.11c0.05-0.01,0.09-0.02,0.12-0.02
		c0.32-0.03,0.74-0.18,1.24-0.46c0.94-0.5,1.62-1.02,2.06-1.55c0.18-0.25,0.27-0.49,0.27-0.72c0-0.23-0.11-0.35-0.34-0.35
		c-0.18,0-0.43,0.08-0.74,0.23c-0.66,0.31-1.35,0.84-2.08,1.61c-0.73,0.76-1.2,1.51-1.43,2.24c-0.07,0.22-0.11,0.45-0.11,0.66
		s0.09,0.42,0.27,0.62c0.18,0.2,0.46,0.29,0.84,0.29c0.42,0,0.9-0.11,1.45-0.34c1.58-0.64,2.8-1.62,3.65-2.92
		c0.08-0.11,0.16-0.13,0.23-0.06c0.06,0.03,0.08,0.06,0.08,0.11s-0.02,0.09-0.06,0.15c-0.42,0.7-0.95,1.32-1.6,1.87
		c-1.25,1.06-2.46,1.6-3.63,1.6c-1.01,0-1.71-0.3-2.12-0.9c-0.15-0.24-0.23-0.53-0.23-0.86s0.09-0.73,0.27-1.2
		c0.35-0.8,1.1-1.62,2.25-2.46C261.15,596.92,262.06,596.5,262.73,596.5z"/>
	<path class="st8" d="M267.35,603.14c-0.71,0-1.07-0.43-1.07-1.29s0.62-1.92,1.85-3.18c0.1-0.1,0.17-0.17,0.21-0.23l0.15-0.21
		c0.2-0.27,0.29-0.43,0.27-0.5l-0.06-0.19c-0.06-0.17-0.29-0.29-0.69-0.37s-0.73-0.12-0.99-0.12c-1.26,1.78-1.99,2.79-2.18,3.05
		c-0.2,0.25-0.33,0.36-0.4,0.31c-0.07-0.04-0.11-0.09-0.11-0.15c0-0.06,0.04-0.14,0.13-0.25c0.76-0.92,1.41-1.91,1.95-2.96
		c-0.17-0.03-0.29-0.09-0.38-0.18s-0.09-0.25-0.02-0.46c0.07-0.22,0.28-0.51,0.64-0.87c0.36-0.36,0.67-0.61,0.93-0.73
		c0.27-0.13,0.43-0.2,0.5-0.23s0.15-0.04,0.23-0.04c0.17,0,0.11,0.25-0.17,0.76l-0.82,1.3c0.63,0.04,1.17,0.06,1.62,0.06l0.74-0.02
		c0.24,0,0.41,0.03,0.52,0.09c0.11,0.06,0.14,0.17,0.08,0.33c-0.1,0.27-0.34,0.62-0.73,1.07c-0.84,0.98-1.47,2.02-1.89,3.13
		c-0.1,0.27-0.15,0.5-0.15,0.69c0,0.41,0.15,0.61,0.44,0.61c0.1,0,0.28-0.08,0.56-0.23c0.27-0.15,0.73-0.52,1.38-1.1
		c0.64-0.58,1.16-1.15,1.55-1.71c0.06-0.07,0.12-0.09,0.2-0.05s0.12,0.07,0.12,0.1c0,0.04-0.01,0.07-0.04,0.12
		c-0.21,0.38-0.59,0.86-1.13,1.45s-1.08,1.06-1.6,1.43C268.48,602.94,267.94,603.14,267.35,603.14z"/>
	<path class="st8" d="M278.14,602.74c-0.15,0.11-0.38,0.17-0.67,0.17c-0.29,0-0.44-0.05-0.44-0.15c0-0.32,1.11-1.83,3.32-4.53
		c2.21-2.69,3.78-4.51,4.7-5.45c-1.18-0.2-2.53-0.29-4.05-0.29c-0.2,0-0.39,0-0.59,0c-1.58,0.06-2.52,0.65-2.81,1.79
		c-0.06,0.25-0.15,0.34-0.27,0.25c-0.07-0.04-0.1-0.11-0.08-0.21c0.21-1.12,0.59-1.85,1.13-2.19s1.32-0.51,2.33-0.51
		c0.34,0,1.2,0.06,2.6,0.18c1.4,0.12,2.21,0.2,2.44,0.24c0.17-0.31,0.41-0.52,0.74-0.63c0.07-0.01,0.13-0.02,0.19-0.02
		c0.17,0,0.25,0.1,0.25,0.29c0,0.2-0.08,0.4-0.24,0.6c-0.16,0.2-0.36,0.36-0.6,0.47c-0.11,0.11-0.63,0.69-1.56,1.72
		c-0.93,1.04-1.81,2.04-2.64,3.02C280.42,599.2,279.18,600.95,278.14,602.74z"/>
	<path class="st8" d="M286.88,602.42c0,0.28-0.31,0.78-0.92,1.51c-0.76,0.98-1.23,1.47-1.43,1.47c-0.07,0-0.11-0.06-0.11-0.17
		c0-0.03,0.2-0.27,0.59-0.72s0.65-0.88,0.77-1.26c0.12-0.39,0.13-0.66,0.03-0.83c-0.24-0.46-0.06-0.69,0.53-0.69
		c0.15,0,0.28,0.08,0.39,0.24C286.83,602.13,286.88,602.28,286.88,602.42z"/>
	<path class="st8" d="M300.13,602.28c0.28,0.04,0.59,0.06,0.92,0.06s0.7-0.03,1.09-0.08c0.77-0.11,1.2-0.33,1.3-0.65
		c0.06-0.17,0.15-0.25,0.27-0.24c0.13,0.01,0.17,0.08,0.14,0.21c-0.03,0.13-0.08,0.23-0.13,0.3c-0.05,0.07-0.11,0.14-0.19,0.22
		c-0.08,0.08-0.14,0.14-0.19,0.18s-0.13,0.1-0.23,0.18c-0.11,0.08-0.17,0.13-0.2,0.16c-0.53,0.39-1.23,0.59-2.1,0.59
		c-0.38,0-0.76-0.04-1.13-0.1c-0.38-0.07-1.2-0.27-2.46-0.6c-1.26-0.33-2-0.54-2.21-0.62c-0.25,0.29-0.55,0.56-0.9,0.8
		c-0.35,0.24-0.57,0.36-0.67,0.36s-0.15-0.06-0.15-0.17c0-1.11,0.64-1.66,1.91-1.66c0.07,0,0.15,0,0.23,0
		c4.34-2.56,6.85-4.67,7.54-6.32c0.15-0.35,0.23-0.63,0.23-0.84c0-0.59-0.26-1.08-0.78-1.47c-0.36-0.28-0.85-0.42-1.45-0.42
		s-1.19,0.06-1.76,0.19c-0.6,0.18-1.17,0.41-1.7,0.67c-0.85,0.45-1.28,0.88-1.28,1.3c0,0.11,0.03,0.24,0.09,0.38
		c0.06,0.14,0.06,0.23-0.02,0.28c-0.08,0.05-0.17,0.02-0.26-0.07c-0.27-0.24-0.4-0.51-0.4-0.83c0-0.32,0.2-0.66,0.6-1.04
		s0.89-0.69,1.48-0.92c1.08-0.46,2.12-0.69,3.13-0.69c0.71,0,1.37,0.09,1.95,0.27c1.08,0.34,1.68,0.97,1.81,1.89
		c0.01,0.06,0.02,0.12,0.02,0.19c0,0.87-0.57,1.86-1.72,2.98c-1.39,1.33-3.65,2.83-6.78,4.52c0.53,0.08,1.26,0.26,2.18,0.54
		C299.25,602.08,299.85,602.23,300.13,602.28z"/>
	<path class="st8" d="M306.32,602.3c-0.73-0.85-1.09-1.88-1.09-3.07c0-0.76,0.16-1.62,0.48-2.58c0.63-1.88,1.97-3.28,4.01-4.2
		c0.81-0.38,1.53-0.57,2.16-0.57c0.11,0,0.26,0.01,0.45,0.02c0.19,0.01,0.38,0.1,0.58,0.27c0.2,0.17,0.32,0.36,0.37,0.58
		c0.05,0.22,0.02,0.37-0.07,0.45c-0.03,0-0.06-0.01-0.08-0.04c-0.21-0.32-0.57-0.48-1.09-0.48c-0.78,0-1.6,0.28-2.44,0.83
		c-0.84,0.55-1.56,1.25-2.15,2.09c-0.59,0.84-0.99,1.81-1.19,2.92c-0.06,0.35-0.08,0.78-0.08,1.3c0,0.52,0.14,1.07,0.42,1.66
		c0.41,0.87,1.14,1.3,2.2,1.3c1.06,0,2.12-0.47,3.2-1.42c1.08-0.95,1.83-2.01,2.27-3.2c0.43-1.19,0.65-2.2,0.65-3.02
		c0-1.11-0.33-1.96-0.99-2.56c-0.6-0.59-1.45-0.88-2.54-0.88c-0.32,0-0.52-0.04-0.6-0.13c-0.08-0.08-0.04-0.16,0.11-0.24
		s0.31-0.12,0.49-0.12c1.22,0.07,2.2,0.44,2.94,1.11c1.01,0.85,1.51,2.04,1.51,3.57c0,0.84-0.18,1.71-0.55,2.63
		c-0.6,1.46-1.48,2.63-2.64,3.51c-1.15,0.88-2.34,1.32-3.56,1.32C307.88,603.35,306.95,603,306.32,602.3z"/>
	<path class="st8" d="M323.94,602.28c0.28,0.04,0.59,0.06,0.92,0.06s0.7-0.03,1.09-0.08c0.77-0.11,1.2-0.33,1.3-0.65
		c0.06-0.17,0.15-0.25,0.27-0.24c0.13,0.01,0.17,0.08,0.14,0.21c-0.03,0.13-0.08,0.23-0.13,0.3c-0.05,0.07-0.11,0.14-0.19,0.22
		c-0.08,0.08-0.14,0.14-0.19,0.18s-0.13,0.1-0.23,0.18c-0.11,0.08-0.17,0.13-0.2,0.16c-0.53,0.39-1.23,0.59-2.1,0.59
		c-0.38,0-0.76-0.04-1.13-0.1c-0.38-0.07-1.2-0.27-2.46-0.6c-1.26-0.33-2-0.54-2.21-0.62c-0.25,0.29-0.55,0.56-0.9,0.8
		c-0.35,0.24-0.57,0.36-0.67,0.36s-0.15-0.06-0.15-0.17c0-1.11,0.64-1.66,1.91-1.66c0.07,0,0.15,0,0.23,0
		c4.34-2.56,6.85-4.67,7.54-6.32c0.15-0.35,0.23-0.63,0.23-0.84c0-0.59-0.26-1.08-0.78-1.47c-0.36-0.28-0.85-0.42-1.45-0.42
		s-1.19,0.06-1.76,0.19c-0.6,0.18-1.17,0.41-1.7,0.67c-0.85,0.45-1.28,0.88-1.28,1.3c0,0.11,0.03,0.24,0.09,0.38
		c0.06,0.14,0.06,0.23-0.02,0.28c-0.08,0.05-0.17,0.02-0.26-0.07c-0.27-0.24-0.4-0.51-0.4-0.83c0-0.32,0.2-0.66,0.6-1.04
		s0.89-0.69,1.48-0.92c1.08-0.46,2.12-0.69,3.13-0.69c0.71,0,1.37,0.09,1.95,0.27c1.08,0.34,1.68,0.97,1.81,1.89
		c0.01,0.06,0.02,0.12,0.02,0.19c0,0.87-0.57,1.86-1.72,2.98c-1.39,1.33-3.65,2.83-6.78,4.52c0.53,0.08,1.26,0.26,2.18,0.54
		C323.06,602.08,323.66,602.23,323.94,602.28z"/>
	<path class="st8" d="M335.34,596.21c0.77,0,1.49-0.22,2.17-0.65c0.68-0.43,1.02-0.99,1.02-1.66c0-0.46-0.2-0.86-0.6-1.2
		c-0.4-0.34-0.93-0.51-1.6-0.51c-0.67-0.01-1.34,0.16-2.04,0.5c-0.69,0.34-1.04,0.82-1.04,1.42c0,0.13-0.08,0.22-0.23,0.27
		c-0.15,0.06-0.23,0-0.23-0.17c0-0.84,0.37-1.5,1.11-1.97c0.74-0.48,1.68-0.71,2.81-0.71c0.73,0,1.37,0.14,1.91,0.42
		c0.73,0.41,1.09,1.01,1.09,1.81c0,0.45-0.15,0.91-0.46,1.39c-0.42,0.64-1.08,1.11-1.97,1.41c0.55,0.03,1,0.22,1.37,0.59
		c0.36,0.36,0.55,0.84,0.55,1.43c0,0.95-0.34,1.81-1.02,2.58c-0.68,0.77-1.5,1.35-2.45,1.73s-1.9,0.58-2.83,0.58
		c-2.03,0-3.05-0.68-3.07-2.04c0-0.22,0.05-0.45,0.15-0.69s0.23-0.36,0.4-0.36c0.06,0,0.12,0.01,0.19,0.02
		c0.17,0.1,0.24,0.22,0.21,0.38c-0.07,0.17-0.11,0.38-0.11,0.65c0.04,0.55,0.3,0.96,0.77,1.23c0.47,0.27,0.97,0.41,1.5,0.41
		c1.19-0.01,2.33-0.48,3.41-1.4s1.63-1.98,1.63-3.18c0-0.41-0.15-0.77-0.45-1.08c-0.3-0.31-0.75-0.55-1.33-0.7
		c-0.24,0.01-0.56,0.06-0.98,0.14c-0.41,0.08-0.68,0.12-0.79,0.12c-0.36,0-0.59-0.09-0.67-0.26c-0.08-0.17-0.07-0.33,0.05-0.45
		c0.12-0.13,0.32-0.16,0.61-0.11C334.72,596.18,335.02,596.21,335.34,596.21z"/>
</g>
<g>
	<path class="st9" d="M161.69,239.65c0.29-4.24,2.41-6.47,6.36-6.7c2.35,0,4.1,0.6,5.24,1.8c0.11,0.17,0.29,0.32,0.52,0.43
		c0.06,0,0.11,0,0.17,0c0,0.06,0.03,0.12,0.09,0.17c-0.46,1.32-1.09,1.6-1.89,0.86c-0.92-1.55-2.29-2.32-4.13-2.32
		c-2.98,0.29-4.58,2.21-4.81,5.76c0.11,2.92,1.75,4.47,4.9,4.64c2.46-0.17,4.01-1.38,4.64-3.61c0-0.4-0.03-0.66-0.09-0.77
		c0-0.11,0.06-0.2,0.17-0.26c0.69,0.4,1.26,0.8,1.72,1.2c0,0.12,0,0.23,0,0.34c-0.97,2.69-3.12,4.07-6.45,4.13
		C163.95,245.27,161.8,243.38,161.69,239.65z"/>
	<path class="st9" d="M176.38,233.98c-0.06-0.29,0.11-0.49,0.52-0.6c0.74,0.12,1.2,0.4,1.38,0.86c0,0.29-0.06,0.63-0.17,1.03v0.17
		c-0.12,0.57-0.2,1.29-0.26,2.15c0,0.86,0.03,1.89,0.09,3.09c0,1.2,0.14,2.32,0.43,3.35c-0.06,0.75-0.34,1.17-0.86,1.29
		c-0.46-0.11-0.75-0.49-0.86-1.12c0-0.06,0-0.43,0-1.12c0.11-1.55,0.17-2.63,0.17-3.27c0-1.55-0.03-2.78-0.09-3.7
		C176.67,235.27,176.55,234.55,176.38,233.98z"/>
	<path class="st9" d="M181.71,234.75c-0.69,0-1.03-0.37-1.03-1.12c0-0.74,0.34-1.15,1.03-1.2c0.63,0.12,1,0.52,1.12,1.2
		C182.77,234.38,182.4,234.75,181.71,234.75z M180.85,236.13c0.06-0.23,0.2-0.37,0.43-0.43c0.63,0.12,1.12,0.4,1.46,0.86
		c0,0.06,0,0.14,0,0.26v0.09c-0.06,0.17-0.12,0.69-0.17,1.55c-0.06,0.92-0.09,1.75-0.09,2.49c0,0.69,0.09,1.69,0.26,3.01
		c0.06,0.75-0.23,1.2-0.86,1.38c-0.46-0.06-0.72-0.31-0.77-0.77c0-0.06,0.03-0.43,0.09-1.12c0.06-1.2,0.11-2.03,0.17-2.49
		C181.31,238.82,181.14,237.22,180.85,236.13z"/>
	<path class="st9" d="M185.15,235.78c0.06-0.34,0.26-0.54,0.6-0.6c0.63,0.12,0.97,0.43,1.03,0.95c-0.23,0.57-0.29,1-0.17,1.29
		c1.09-1.09,2.38-1.66,3.87-1.72c3.21,0.17,4.87,1.75,4.98,4.73c-0.12,3.15-1.78,4.78-4.98,4.9c-1.49,0-2.78-0.52-3.87-1.55
		c-0.12,0.29-0.06,1.43,0.17,3.44c-0.12,0.57-0.43,0.95-0.95,1.12c-0.46,0-0.66-0.23-0.6-0.69
		C185.46,244.55,185.43,240.6,185.15,235.78z M186.61,238.79v3.7c0.86,1.03,2.15,1.58,3.87,1.63c2.29,0,3.52-1.23,3.7-3.7
		c-0.23-2.35-1.46-3.58-3.7-3.7C188.64,236.9,187.35,237.59,186.61,238.79z"/>
	<path class="st9" d="M197.7,243.69c0.11-1.72,0.14-3.49,0.09-5.33c0-1.83-0.09-3.52-0.26-5.07c0-0.29,0.26-0.49,0.77-0.6
		c0.4,0.12,0.74,0.37,1.03,0.77c0,0.12,0,0.23,0,0.34v0.09c-0.4,0.57-0.54,1.75-0.43,3.52c1.2-1.09,2.43-1.66,3.7-1.72
		c3.15,0.17,4.81,1.8,4.98,4.9c-0.12,3.09-1.8,4.67-5.07,4.73c-1.38,0-2.52-0.46-3.44-1.38c-0.06,0.69-0.2,1.15-0.43,1.38h-0.26
		C197.81,245.04,197.58,244.49,197.7,243.69z M198.98,238.96v3.52c0.86,1.09,2.03,1.72,3.52,1.89c2.46-0.23,3.7-1.49,3.7-3.78
		c-0.06-2.41-1.23-3.7-3.52-3.87C201.25,236.73,200.02,237.47,198.98,238.96z"/>
	<path class="st9" d="M213.08,235.61c0.06,0.06,0.2-0.03,0.43-0.26c0.17-0.11,0.29-0.17,0.34-0.17c0.34,0.23,0.72,0.34,1.12,0.34
		c2.75,0.75,4.18,2.41,4.3,4.98c-0.23,3.04-1.98,4.61-5.24,4.73c-3.15-0.17-4.84-1.75-5.07-4.73
		C209.24,237.7,210.61,236.07,213.08,235.61z M218.06,240.51c-0.12-2.41-1.4-3.67-3.87-3.78c-2.69,0.12-4.04,1.38-4.04,3.78
		c0.11,2.23,1.4,3.44,3.87,3.61C216.49,244.06,217.83,242.86,218.06,240.51z"/>
	<path class="st9" d="M229.23,244.55v-0.95c-1.2,1.15-2.49,1.69-3.87,1.63c-2.98-0.17-4.5-1.69-4.55-4.55
		c0.17-3.09,1.72-4.73,4.64-4.9c1.43,0.06,2.66,0.54,3.7,1.46c-0.06-0.34-0.12-0.69-0.17-1.03c0-0.46,0.14-0.72,0.43-0.77
		c0.57,0.23,0.92,0.6,1.03,1.12c-0.17,1.09-0.23,2.32-0.17,3.7c0.11,1.43,0.31,2.61,0.6,3.52c0,0.69-0.37,1.09-1.12,1.2
		C229.41,244.98,229.23,244.84,229.23,244.55z M229.23,242.4l-0.17-3.44c-0.69-1.43-1.89-2.18-3.61-2.23
		c-2.12,0.29-3.29,1.6-3.52,3.95c0.11,2.18,1.26,3.38,3.44,3.61C226.8,244.23,228.09,243.6,229.23,242.4z"/>
	<path class="st9" d="M233.45,236.56c0-0.11,0-0.23,0-0.34c0.23-0.29,0.6-0.46,1.12-0.52c0.11-0.06,0.29,0,0.52,0.17
		c0,0.17-0.03,0.49-0.09,0.95c-0.12,0.63-0.12,1.15,0,1.55c1.09-1.43,2.38-2.18,3.87-2.23c1.09,0.06,1.95,0.34,2.58,0.86
		c0.29,0.34,0.29,0.75,0,1.2c-0.29,0.4-0.57,0.43-0.86,0.09c-0.75-0.63-1.35-0.97-1.8-1.03c-1.49,0.12-2.72,0.92-3.7,2.41
		c-0.12,0.92-0.03,2.35,0.26,4.3c0,0.12,0.03,0.17,0.09,0.17c-0.06,0.69-0.34,1.09-0.86,1.2c-0.63-0.06-0.92-0.34-0.86-0.86
		c0.06-0.92,0.11-1.92,0.17-3.01c-0.06-0.86-0.12-1.75-0.17-2.66C233.65,237.88,233.56,237.13,233.45,236.56z"/>
	<path class="st9" d="M250.98,233.12c0.06-0.17,0.14-0.29,0.26-0.34c0.74,0.12,1.26,0.34,1.55,0.69c0.17,0.23,0.17,0.46,0,0.69
		c-0.17,0.34-0.26,0.6-0.26,0.77c-0.12,2.01-0.14,3.75-0.09,5.24c0,1.55,0.06,2.87,0.17,3.95c0,0.57-0.2,0.97-0.6,1.2
		c-0.29,0-0.54-0.2-0.77-0.6c0-0.23,0-0.46,0-0.69c-0.97,0.8-2.21,1.2-3.7,1.2c-3.32-0.17-5.07-1.72-5.24-4.64
		c0.29-3.09,2.06-4.75,5.33-4.98c1.38,0.12,2.63,0.66,3.78,1.63C251.46,235.87,251.32,234.49,250.98,233.12z M251.32,242.14
		c0-1.95,0.03-2.98,0.09-3.09c-0.63-1.32-1.89-2.12-3.78-2.41c-2.41,0.34-3.72,1.66-3.95,3.95c0.11,2.29,1.4,3.5,3.87,3.61
		C249.54,243.98,250.8,243.29,251.32,242.14z"/>
</g>
<g>
</g>
<g>
</g>
<g>
</g>
<g>
</g>
<g>
</g>
<g>
</g>
</svg>
