<svg xmlns="http://www.w3.org/2000/svg" viewBox="0 0 101.05831 85.79163"><defs><style>.a{fill:none;stroke:#fff;stroke-miterlimit:10;stroke-width:3px;}.b{fill:#fff;}</style></defs><rect class="a" x="39.30456" y="1.5" width="60.25376" height="31.94425" rx="6.48712"/><path class="b" d="M228.58266,470.6022c-3.96892,4.56876-8.19757,8.84043-12.5176,13.00751-4.30413,4.1853-8.73973,8.22022-13.24817,12.17181-4.515,3.94407-9.10742,7.7996-13.82955,11.50669-4.70646,3.72507-9.50643,7.34314-14.568,10.662,3.96563-4.57251,8.19288-8.84577,12.51365-13.012,4.30507-4.18423,8.73989-8.22,13.25211-12.1673,4.51877-3.93975,9.1104-7.79617,13.8335-11.50219C218.72577,477.54446,223.52435,473.92477,228.58266,470.6022Z" transform="translate(-157.42709 -446.85697)"/><path class="b" d="M239.4729,487.94763c-1.79166-9.64062-.30173-19.753,2.53377-29.08032a64.54056,64.54056,0,0,1-29.158-1.37625l-3.75856,3.28561a70.10084,70.10084,0,0,0,27.8611,2.51,71.241,71.241,0,0,0-1.29859,28.00055Z" transform="translate(-157.42709 -446.85697)"/><path class="b" d="M230.41179,495.86859c-1.79163-9.64065-.30159-19.75308,2.53073-29.07767a64.53009,64.53009,0,0,1-29.155-1.37893L200.029,468.6976a70.1392,70.1392,0,0,0,27.85809,2.51264,71.30716,71.30716,0,0,0-1.29561,27.99792Z" transform="translate(-157.42709 -446.85697)"/><rect class="b" x="172.41932" y="504.95019" width="4.00001" height="25.99999" transform="translate(-455.21447 -204.07096) rotate(-41.15889)"/><rect class="a" x="1.5" y="26.51282" width="75.60911" height="57.77881" rx="4.72694"/></svg>