<svg xmlns="http://www.w3.org/2000/svg" viewBox="0 0 17.29 17.16"><defs><style>.a{fill:#fff;}</style></defs><path class="a" d="M19.48,28.2c-.11,0-.32-.11-.42-.11l-8-8a.51.51,0,0,1,0-.74,4.37,4.37,0,0,1,4.84-.84l4.2-4.2h0a1.93,1.93,0,0,1-.53-1.26,1.91,1.91,0,0,1,.53-1.26l.21-.21a1.71,1.71,0,0,1,2.52,0l4.83,4.83a1.93,1.93,0,0,1,.53,1.26,1.69,1.69,0,0,1-.53,1.16l-.21.21a1.72,1.72,0,0,1-2.52,0h0l-4.2,4.2a4.35,4.35,0,0,1-.84,4.83A.77.77,0,0,1,19.48,28.2Zm-7.25-8.41,7.14,7.15a3,3,0,0,0,.11-3.47.49.49,0,0,1,.1-.63l4.94-4.94a.51.51,0,0,1,.74,0l.42.42a.69.69,0,0,0,1.05,0l.21-.21a.8.8,0,0,0,.21-.52.85.85,0,0,0-.21-.53l-4.83-4.83a.7.7,0,0,0-1.06,0l-.21.21a.8.8,0,0,0-.21.52.85.85,0,0,0,.21.53l.42.42a.5.5,0,0,1,0,.73l-4.83,4.84a.49.49,0,0,1-.63.1A3.38,3.38,0,0,0,12.23,19.79Z" transform="translate(-10.91 -11.04)"/><path class="a" d="M15.8,24.1l-3.47,3.47c-.1.1-.21.1-.42.1s-.31,0-.42-.1a.51.51,0,0,1,0-.74L15,23.37Z" transform="translate(-10.91 -11.04)"/></svg>